<svg xmlns="http://www.w3.org/2000/svg" width="220" height="64" viewBox="0 0 220 64">
  <g fill="none" fill-rule="evenodd">
    <circle cx="7" cy="4" r="4" fill="#D3B7FB"/>
    <circle cx="214" cy="4" r="4" fill="#D3B7FB"/>
    <path fill="#D3B7FB" d="M15.8739825 17L21 17C21.5522847 17 22 17.4477153 22 18 22 18.5522847 21.5522847 19 21 19L15.8739825 19C15.4299397 20.7252272 13.8638394 22 12 22 9.790861 22 8 20.209139 8 18 8 15.790861 9.790861 14 12 14 13.8638394 14 15.4299397 15.2747728 15.8739825 17zM208.126017 19L202 19C201.447715 19 201 18.5522847 201 18 201 17.4477153 201.447715 17 202 17L208.126017 17C208.57006 15.2747728 210.136161 14 212 14 214.209139 14 216 15.790861 216 18 216 20.209139 214.209139 22 212 22 210.136161 22 208.57006 20.7252272 208.126017 19zM7.87398251 31L13 31C13.5522847 31 14 31.4477153 14 32 14 32.5522847 13.5522847 33 13 33L7.87398251 33C7.42993972 34.7252272 5.86383943 36 4 36 1.790861 36 0 34.209139 0 32 0 29.790861 1.790861 28 4 28 5.86383943 28 7.42993972 29.2747728 7.87398251 31zM211.126017 33L206 33C205.447715 33 205 32.5522847 205 32 205 31.4477153 205.447715 31 206 31L211.126017 31C211.57006 29.2747728 213.136161 28 215 28 217.209139 28 219 29.790861 219 32 219 34.209139 217.209139 36 215 36 213.136161 36 211.57006 34.7252272 211.126017 33zM14.8739825 45L20 45C20.5522847 45 21 45.4477153 21 46 21 46.5522847 20.5522847 47 20 47L14.8739825 47C14.4299397 48.7252272 12.8638394 50 11 50 8.790861 50 7 48.209139 7 46 7 43.790861 8.790861 42 11 42 12.8638394 42 14.4299397 43.2747728 14.8739825 45zM208.126017 47L203 47C202.447715 47 202 46.5522847 202 46 202 45.4477153 202.447715 45 203 45L208.126017 45C208.57006 43.2747728 210.136161 42 212 42 214.209139 42 216 43.790861 216 46 216 48.209139 214.209139 50 212 50 210.136161 50 208.57006 48.7252272 208.126017 47z"/>
    <circle cx="6" cy="60" r="4" fill="#D3B7FB"/>
    <circle cx="216" cy="60" r="4" fill="#D3B7FB"/>
    <path stroke="#D3B7FB" stroke-width="2" d="M216,60 L209,55 C206.333333,55 203.624336,55.0279709 200.873008,55.0839126 C198.959244,59.1698591 194.810129,62 190,62 L32,62 C27.2270747,62 23.1049785,59.2134694 21.1717984,55.1784953 C19.0572661,55.0594984 16,55 12,55 L6,60"/>
    <path stroke="#D3B7FB" stroke-width="2" d="M214,7.15422304 L208.5,2.15422304 C206.166667,2.15422304 203.637312,2.15420777 200.911937,2.15417724 C199.015932,6.28526159 194.843007,9.15422304 190,9.15422304 L32,9.15422304 C27.0969702,9.15422304 22.8807348,6.21370661 21.01862,2 C17.6728733,2.10281536 14.6666667,2.15422304 12,2.15422304 L7,7.15422304" transform="matrix(1 0 0 -1 0 11.154)"/>
    <path fill="#EEE3FF" d="M34,8 L188,8 C192.418278,8 196,11.581722 196,16 L196,48 C196,52.418278 192.418278,56 188,56 L34,56 C29.581722,56 26,52.418278 26,48 L26,16 C26,11.581722 29.581722,8 34,8 Z M51.302821,38.317757 L53.4137402,39.8598131 C53.6056429,39.9532715 53.8135344,40 54.0374208,40 C54.45321,40 54.7410598,39.8753907 54.9009787,39.6261682 C54.9009787,39.5950154 54.9169704,39.5638631 54.9489541,39.5327103 C54.9809379,39.5015575 55.0289129,39.4236766 55.0928804,39.2990654 L57.1078488,35.046729 L59.1228171,39.2990654 C59.1867847,39.4236766 59.2347596,39.5015575 59.2667434,39.5327103 C59.2987272,39.5638631 59.3147189,39.5950154 59.3147189,39.6261682 C59.4746378,39.8753907 59.7624875,40 60.1782767,40 C60.4021632,40 60.6100547,39.9532715 60.8019574,39.8598131 L62.9128766,38.317757 C63.2007307,38.1308402 63.3446555,37.8504692 63.3446555,37.4766355 C63.3446555,37.2897187 63.2806889,37.1028047 63.1527538,36.9158879 C63.1527538,36.884735 63.0568039,36.7757019 62.8649012,36.588785 L59.3626943,33.5046729 L64.1122625,32.9906542 L64.4480906,32.8971963 C64.6719771,32.8348907 64.8558811,32.7024932 64.9998081,32.5 C65.1437351,32.2975068 65.2156976,32.0872285 65.2156976,31.8691589 L65.1677221,31.588785 L64.3041643,29.1121495 C64.2721805,28.8940799 64.1522431,28.7227421 63.9443485,28.5981308 C63.7364539,28.4735196 63.5045749,28.411215 63.2487047,28.411215 C63.1527533,28.411215 63.0727951,28.4267911 63.0088275,28.4579439 L62.625024,28.6448598 L58.451161,30.9345794 L59.4106697,26.4018692 L59.4586452,26.0280374 C59.4586452,25.778815 59.3546994,25.5451724 59.1468048,25.3271028 C58.9389102,25.1090332 58.6910396,25 58.4031856,25 L55.7645366,25 C55.4766825,25 55.2288119,25.1090332 55.0209173,25.3271028 C54.8130227,25.5451724 54.709077,25.778815 54.709077,26.0280374 L54.7570524,26.4018692 L55.7165611,30.9345794 L51.5906736,28.6448598 L51.2068701,28.4579439 C51.1109187,28.4267911 51.0309605,28.411215 50.9669929,28.411215 C50.7750902,28.411215 50.599182,28.4579435 50.4392631,28.5514019 C50.151409,28.6760131 49.9755009,28.8629271 49.9115333,29.1121495 L49.0479754,31.588785 C49.0159917,31.6822435 49,31.7757005 49,31.8691589 C49,32.0560757 49.047975,32.2274136 49.1439263,32.3831776 C49.2718614,32.6635528 49.4637613,32.8348907 49.7196315,32.8971963 L50.103435,32.9906542 L54.8050278,33.5046729 L51.3507964,36.588785 C51.1588937,36.7757019 51.0629438,36.884735 51.0629438,36.9158879 C50.9350086,37.1028047 50.871042,37.2897187 50.871042,37.4766355 C50.871042,37.8504692 51.0149669,38.1308402 51.302821,38.317757 Z M73.0596814,38.317757 L75.1706007,39.8598131 C75.3625034,39.9532715 75.5703948,40 75.7942813,40 C76.2100705,40 76.4979203,39.8753907 76.6578392,39.6261682 C76.6578392,39.5950154 76.6738308,39.5638631 76.7058146,39.5327103 C76.7377984,39.5015575 76.7857734,39.4236766 76.8497409,39.2990654 L78.8647093,35.046729 L80.8796776,39.2990654 C80.9436452,39.4236766 80.9916201,39.5015575 81.0236039,39.5327103 C81.0555877,39.5638631 81.0715794,39.5950154 81.0715794,39.6261682 C81.2314983,39.8753907 81.519348,40 81.9351372,40 C82.1590237,40 82.3669152,39.9532715 82.5588179,39.8598131 L84.6697371,38.317757 C84.9575912,38.1308402 85.101516,37.8504692 85.101516,37.4766355 C85.101516,37.2897187 85.0375494,37.1028047 84.9096143,36.9158879 C84.9096143,36.884735 84.8136644,36.7757019 84.6217617,36.588785 L81.1195548,33.5046729 L85.869123,32.9906542 L86.2049511,32.8971963 C86.4288376,32.8348907 86.6127416,32.7024932 86.7566686,32.5 C86.9005956,32.2975068 86.9725581,32.0872285 86.9725581,31.8691589 L86.9245826,31.588785 L86.0610248,29.1121495 C86.029041,28.8940799 85.9091036,28.7227421 85.701209,28.5981308 C85.4933144,28.4735196 85.2614354,28.411215 85.0055652,28.411215 C84.9096138,28.411215 84.8296555,28.4267911 84.765688,28.4579439 L84.3818845,28.6448598 L80.2080215,30.9345794 L81.1675302,26.4018692 L81.2155057,26.0280374 C81.2155057,25.778815 81.1115599,25.5451724 80.9036653,25.3271028 C80.6957707,25.1090332 80.4479001,25 80.1600461,25 L77.521397,25 C77.233543,25 76.9856724,25.1090332 76.7777778,25.3271028 C76.5698832,25.5451724 76.4659374,25.778815 76.4659374,26.0280374 L76.5139129,26.4018692 L77.4734216,30.9345794 L73.3475341,28.6448598 L72.9637306,28.4579439 C72.8677792,28.4267911 72.787821,28.411215 72.7238534,28.411215 C72.5319507,28.411215 72.3560425,28.4579435 72.1961236,28.5514019 C71.9082695,28.6760131 71.7323614,28.8629271 71.6683938,29.1121495 L70.8048359,31.588785 C70.7728521,31.6822435 70.7568605,31.7757005 70.7568605,31.8691589 C70.7568605,32.0560757 70.8048354,32.2274136 70.9007868,32.3831776 C71.0287219,32.6635528 71.2206218,32.8348907 71.476492,32.8971963 L71.8602955,32.9906542 L76.5618883,33.5046729 L73.1076569,36.588785 C72.9157542,36.7757019 72.8198043,36.884735 72.8198043,36.9158879 C72.6918691,37.1028047 72.6279025,37.2897187 72.6279025,37.4766355 C72.6279025,37.8504692 72.7718274,38.1308402 73.0596814,38.317757 Z M94.8165419,38.317757 L96.9274611,39.8598131 C97.1193638,39.9532715 97.3272553,40 97.5511418,40 C97.966931,40 98.2547808,39.8753907 98.4146997,39.6261682 C98.4146997,39.5950154 98.4306913,39.5638631 98.4626751,39.5327103 C98.4946589,39.5015575 98.5426339,39.4236766 98.6066014,39.2990654 L100.62157,35.046729 L102.636538,39.2990654 C102.700506,39.4236766 102.748481,39.5015575 102.780464,39.5327103 C102.812448,39.5638631 102.82844,39.5950154 102.82844,39.6261682 C102.988359,39.8753907 103.276209,40 103.691998,40 C103.915884,40 104.123776,39.9532715 104.315678,39.8598131 L106.426598,38.317757 C106.714452,38.1308402 106.858377,37.8504692 106.858377,37.4766355 C106.858377,37.2897187 106.79441,37.1028047 106.666475,36.9158879 C106.666475,36.884735 106.570525,36.7757019 106.378622,36.588785 L102.876415,33.5046729 L107.625983,32.9906542 L107.961812,32.8971963 C108.185698,32.8348907 108.369602,32.7024932 108.513529,32.5 C108.657456,32.2975068 108.729419,32.0872285 108.729419,31.8691589 L108.681443,31.588785 L107.817885,29.1121495 C107.785901,28.8940799 107.665964,28.7227421 107.458069,28.5981308 C107.250175,28.4735196 107.018296,28.411215 106.762426,28.411215 C106.666474,28.411215 106.586516,28.4267911 106.522548,28.4579439 L106.138745,28.6448598 L101.964882,30.9345794 L102.924391,26.4018692 L102.972366,26.0280374 C102.972366,25.778815 102.86842,25.5451724 102.660526,25.3271028 C102.452631,25.1090332 102.204761,25 101.916907,25 L99.2782575,25 C98.9904035,25 98.7425329,25.1090332 98.5346383,25.3271028 C98.3267437,25.5451724 98.2227979,25.778815 98.2227979,26.0280374 L98.2707734,26.4018692 L99.2302821,30.9345794 L95.1043945,28.6448598 L94.7205911,28.4579439 C94.6246397,28.4267911 94.5446814,28.411215 94.4807139,28.411215 C94.2888112,28.411215 94.112903,28.4579435 93.9529841,28.5514019 C93.66513,28.6760131 93.4892218,28.8629271 93.4252543,29.1121495 L92.5616964,31.588785 C92.5297126,31.6822435 92.513721,31.7757005 92.513721,31.8691589 C92.513721,32.0560757 92.5616959,32.2274136 92.6576473,32.3831776 C92.7855824,32.6635528 92.9774822,32.8348907 93.2333525,32.8971963 L93.617156,32.9906542 L98.3187488,33.5046729 L94.8645174,36.588785 C94.6726147,36.7757019 94.5766647,36.884735 94.5766647,36.9158879 C94.4487296,37.1028047 94.384763,37.2897187 94.384763,37.4766355 C94.384763,37.8504692 94.5286879,38.1308402 94.8165419,38.317757 Z M116.573402,38.317757 L118.684322,39.8598131 C118.876224,39.9532715 119.084116,40 119.308002,40 C119.723791,40 120.011641,39.8753907 120.17156,39.6261682 C120.17156,39.5950154 120.187552,39.5638631 120.219536,39.5327103 C120.251519,39.5015575 120.299494,39.4236766 120.363462,39.2990654 L122.37843,35.046729 L124.393399,39.2990654 C124.457366,39.4236766 124.505341,39.5015575 124.537325,39.5327103 C124.569309,39.5638631 124.5853,39.5950154 124.5853,39.6261682 C124.745219,39.8753907 125.033069,40 125.448858,40 C125.672745,40 125.880636,39.9532715 126.072539,39.8598131 L128.183458,38.317757 C128.471312,38.1308402 128.615237,37.8504692 128.615237,37.4766355 C128.615237,37.2897187 128.55127,37.1028047 128.423335,36.9158879 C128.423335,36.884735 128.327385,36.7757019 128.135483,36.588785 L124.633276,33.5046729 L129.382844,32.9906542 L129.718672,32.8971963 C129.942559,32.8348907 130.126463,32.7024932 130.27039,32.5 C130.414317,32.2975068 130.486279,32.0872285 130.486279,31.8691589 L130.438304,31.588785 L129.574746,29.1121495 C129.542762,28.8940799 129.422825,28.7227421 129.21493,28.5981308 C129.007035,28.4735196 128.775156,28.411215 128.519286,28.411215 C128.423335,28.411215 128.343377,28.4267911 128.279409,28.4579439 L127.895605,28.6448598 L123.721742,30.9345794 L124.681251,26.4018692 L124.729227,26.0280374 C124.729227,25.778815 124.625281,25.5451724 124.417386,25.3271028 C124.209492,25.1090332 123.961621,25 123.673767,25 L121.035118,25 C120.747264,25 120.499393,25.1090332 120.291499,25.3271028 C120.083604,25.5451724 119.979658,25.778815 119.979658,26.0280374 L120.027634,26.4018692 L120.987143,30.9345794 L116.861255,28.6448598 L116.477452,28.4579439 C116.3815,28.4267911 116.301542,28.411215 116.237574,28.411215 C116.045672,28.411215 115.869763,28.4579435 115.709845,28.5514019 C115.42199,28.6760131 115.246082,28.8629271 115.182115,29.1121495 L114.318557,31.588785 C114.286573,31.6822435 114.270581,31.7757005 114.270581,31.8691589 C114.270581,32.0560757 114.318556,32.2274136 114.414508,32.3831776 C114.542443,32.6635528 114.734343,32.8348907 114.990213,32.8971963 L115.374017,32.9906542 L120.075609,33.5046729 L116.621378,36.588785 C116.429475,36.7757019 116.333525,36.884735 116.333525,36.9158879 C116.20559,37.1028047 116.141623,37.2897187 116.141623,37.4766355 C116.141623,37.8504692 116.285548,38.1308402 116.573402,38.317757 Z M138.330263,38.317757 L140.441182,39.8598131 C140.633085,39.9532715 140.840976,40 141.064863,40 C141.480652,40 141.768502,39.8753907 141.928421,39.6261682 C141.928421,39.5950154 141.944412,39.5638631 141.976396,39.5327103 C142.00838,39.5015575 142.056355,39.4236766 142.120322,39.2990654 L144.135291,35.046729 L146.150259,39.2990654 C146.214227,39.4236766 146.262202,39.5015575 146.294185,39.5327103 C146.326169,39.5638631 146.342161,39.5950154 146.342161,39.6261682 C146.50208,39.8753907 146.789929,40 147.205719,40 C147.429605,40 147.637497,39.9532715 147.829399,39.8598131 L149.940319,38.317757 C150.228173,38.1308402 150.372097,37.8504692 150.372097,37.4766355 C150.372097,37.2897187 150.308131,37.1028047 150.180196,36.9158879 C150.180196,36.884735 150.084246,36.7757019 149.892343,36.588785 L146.390136,33.5046729 L151.139704,32.9906542 L151.475533,32.8971963 C151.699419,32.8348907 151.883323,32.7024932 152.02725,32.5 C152.171177,32.2975068 152.24314,32.0872285 152.24314,31.8691589 L152.195164,31.588785 L151.331606,29.1121495 C151.299622,28.8940799 151.179685,28.7227421 150.97179,28.5981308 C150.763896,28.4735196 150.532017,28.411215 150.276147,28.411215 C150.180195,28.411215 150.100237,28.4267911 150.036269,28.4579439 L149.652466,28.6448598 L145.478603,30.9345794 L146.438112,26.4018692 L146.486087,26.0280374 C146.486087,25.778815 146.382141,25.5451724 146.174247,25.3271028 C145.966352,25.1090332 145.718482,25 145.430628,25 L142.791979,25 C142.504124,25 142.256254,25.1090332 142.048359,25.3271028 C141.840465,25.5451724 141.736519,25.778815 141.736519,26.0280374 L141.784494,26.4018692 L142.744003,30.9345794 L138.618116,28.6448598 L138.234312,28.4579439 C138.138361,28.4267911 138.058402,28.411215 137.994435,28.411215 C137.802532,28.411215 137.626624,28.4579435 137.466705,28.5514019 C137.178851,28.6760131 137.002943,28.8629271 136.938975,29.1121495 L136.075417,31.588785 C136.043434,31.6822435 136.027442,31.7757005 136.027442,31.8691589 C136.027442,32.0560757 136.075417,32.2274136 136.171368,32.3831776 C136.299303,32.6635528 136.491203,32.8348907 136.747073,32.8971963 L137.130877,32.9906542 L141.83247,33.5046729 L138.378238,36.588785 C138.186336,36.7757019 138.090386,36.884735 138.090386,36.9158879 C137.962451,37.1028047 137.898484,37.2897187 137.898484,37.4766355 C137.898484,37.8504692 138.042409,38.1308402 138.330263,38.317757 Z M160.087123,38.317757 L162.198043,39.8598131 C162.389945,39.9532715 162.597837,40 162.821723,40 C163.237512,40 163.525362,39.8753907 163.685281,39.6261682 C163.685281,39.5950154 163.701273,39.5638631 163.733257,39.5327103 C163.76524,39.5015575 163.813215,39.4236766 163.877183,39.2990654 L165.892151,35.046729 L167.90712,39.2990654 C167.971087,39.4236766 168.019062,39.5015575 168.051046,39.5327103 C168.08303,39.5638631 168.099021,39.5950154 168.099021,39.6261682 C168.25894,39.8753907 168.54679,40 168.962579,40 C169.186466,40 169.394357,39.9532715 169.58626,39.8598131 L171.697179,38.317757 C171.985033,38.1308402 172.128958,37.8504692 172.128958,37.4766355 C172.128958,37.2897187 172.064991,37.1028047 171.937056,36.9158879 C171.937056,36.884735 171.841106,36.7757019 171.649204,36.588785 L168.146997,33.5046729 L172.896565,32.9906542 L173.232393,32.8971963 C173.45628,32.8348907 173.640184,32.7024932 173.784111,32.5 C173.928038,32.2975068 174,32.0872285 174,31.8691589 L173.952025,31.588785 L173.088467,29.1121495 C173.056483,28.8940799 172.936546,28.7227421 172.728651,28.5981308 C172.520756,28.4735196 172.288877,28.411215 172.033007,28.411215 C171.937056,28.411215 171.857097,28.4267911 171.79313,28.4579439 L171.409326,28.6448598 L167.235463,30.9345794 L168.194972,26.4018692 L168.242948,26.0280374 C168.242948,25.778815 168.139002,25.5451724 167.931107,25.3271028 C167.723213,25.1090332 167.475342,25 167.187488,25 L164.548839,25 C164.260985,25 164.013114,25.1090332 163.80522,25.3271028 C163.597325,25.5451724 163.493379,25.778815 163.493379,26.0280374 L163.541355,26.4018692 L164.500864,30.9345794 L160.374976,28.6448598 L159.991173,28.4579439 C159.895221,28.4267911 159.815263,28.411215 159.751295,28.411215 C159.559393,28.411215 159.383484,28.4579435 159.223566,28.5514019 C158.935711,28.6760131 158.759803,28.8629271 158.695836,29.1121495 L157.832278,31.588785 C157.800294,31.6822435 157.784302,31.7757005 157.784302,31.8691589 C157.784302,32.0560757 157.832277,32.2274136 157.928229,32.3831776 C158.056164,32.6635528 158.248064,32.8348907 158.503934,32.8971963 L158.887737,32.9906542 L163.58933,33.5046729 L160.135099,36.588785 C159.943196,36.7757019 159.847246,36.884735 159.847246,36.9158879 C159.719311,37.1028047 159.655344,37.2897187 159.655344,37.4766355 C159.655344,37.8504692 159.799269,38.1308402 160.087123,38.317757 Z"/>
  </g>
</svg>
