<?xml version="1.0" encoding="UTF-8"?>
<svg width="160px" height="164px" viewBox="0 0 160 164" version="1.1" xmlns="http://www.w3.org/2000/svg" xmlns:xlink="http://www.w3.org/1999/xlink">
    <!-- Generator: Sketch 64 (93537) - https://sketch.com -->
    <title>Group 6</title>
    <desc>Created with Sketch.</desc>
    <defs>
        <linearGradient x1="26.1283262%" y1="53.9155051%" x2="82.2807078%" y2="47.3887481%" id="linearGradient-1">
            <stop stop-color="#DED5EA" offset="0%"></stop>
            <stop stop-color="#EFEAF6" offset="100%"></stop>
        </linearGradient>
        <linearGradient x1="46.6522507%" y1="59.7754543%" x2="48.7820625%" y2="57.561154%" id="linearGradient-2">
            <stop stop-color="#A396B6" offset="0%"></stop>
            <stop stop-color="#FFFFFF" stop-opacity="0" offset="100%"></stop>
        </linearGradient>
        <linearGradient x1="74.3459975%" y1="45.6494646%" x2="72.8474954%" y2="47.0998528%" id="linearGradient-3">
            <stop stop-color="#FFFFFF" stop-opacity="0.589352054" offset="0%"></stop>
            <stop stop-color="#FFFFFF" stop-opacity="0" offset="100%"></stop>
        </linearGradient>
        <path d="M3.06677963,13.7798136 L10.4329863,9.57981549 C12.0811693,8.64006918 14.1026556,8.63866819 15.7521397,9.57612905 L34.572675,20.2725136 C35.5406692,20.8226594 35.8794023,22.0533549 35.3292565,23.0213491 C35.1521434,23.3329836 34.8951446,23.591761 34.584739,23.771019 L27.2222089,28.0228516 C25.5655339,28.979575 23.5252435,28.983823 21.8645991,28.0340063 L3.06442241,17.2811196 C2.09793518,16.7283308 1.76256637,15.4967142 2.31535519,14.530227 C2.49426255,14.2174282 2.75374022,13.9582996 3.06677963,13.7798136 Z" id="path-4"></path>
        <linearGradient x1="0.000198887388%" y1="50.005888%" x2="100.005089%" y2="50.005888%" id="linearGradient-5">
            <stop stop-color="#A8E7EE" offset="0.0343116554%"></stop>
            <stop stop-color="#C0F8FE" offset="100%"></stop>
        </linearGradient>
        <linearGradient x1="31.4252081%" y1="57.6949047%" x2="44.1608947%" y2="20.014807%" id="linearGradient-6">
            <stop stop-color="#8CE8F2" offset="0%"></stop>
            <stop stop-color="#8CE8F2" stop-opacity="0" offset="100%"></stop>
        </linearGradient>
        <linearGradient x1="40.4942049%" y1="27.3628446%" x2="51.5167672%" y2="79.0845066%" id="linearGradient-7">
            <stop stop-color="#8CE8F2" stop-opacity="0" offset="0%"></stop>
            <stop stop-color="#8CE8F2" offset="99.9049831%"></stop>
        </linearGradient>
        <linearGradient x1="12.9610476%" y1="50.975368%" x2="17.9642162%" y2="50.8428479%" id="linearGradient-8">
            <stop stop-color="#A4A0AA" offset="19%"></stop>
            <stop stop-color="#C3BCCE" offset="65%"></stop>
        </linearGradient>
        <linearGradient x1="11.22731%" y1="63.3861706%" x2="91.7828526%" y2="35.6561196%" id="linearGradient-9">
            <stop stop-color="#DAD0E8" offset="1%"></stop>
            <stop stop-color="#EFEAF6" offset="97%"></stop>
        </linearGradient>
        <linearGradient x1="56.4164908%" y1="12.0418848%" x2="44.2589293%" y2="83.8743455%" id="linearGradient-10">
            <stop stop-color="#EFEAF6" offset="0%"></stop>
            <stop stop-color="#DAD0E8" offset="100%"></stop>
        </linearGradient>
        <linearGradient x1="79.8815107%" y1="9.05233452%" x2="20.4147124%" y2="91.0852716%" id="linearGradient-11">
            <stop stop-color="#EFEAF6" offset="0%"></stop>
            <stop stop-color="#DAD0E8" offset="100%"></stop>
        </linearGradient>
        <linearGradient x1="27.3102767%" y1="40.5618897%" x2="74.7638142%" y2="61.0815635%" id="linearGradient-12">
            <stop stop-color="#8CE8F2" stop-opacity="0" offset="0%"></stop>
            <stop stop-color="#8CE8F2" offset="99.9604096%"></stop>
        </linearGradient>
        <linearGradient x1="27.3102767%" y1="40.5618897%" x2="74.7826087%" y2="61.0896905%" id="linearGradient-13">
            <stop stop-color="#8CE8F2" stop-opacity="0" offset="0%"></stop>
            <stop stop-color="#8CE8F2" offset="99.9604096%"></stop>
        </linearGradient>
        <linearGradient x1="-0.000875371554%" y1="50.0102771%" x2="100%" y2="50.0102771%" id="linearGradient-14">
            <stop stop-color="#E8E2F7" offset="23%"></stop>
            <stop stop-color="#CFC7DD" offset="47%"></stop>
            <stop stop-color="#B9B0C6" offset="100%"></stop>
        </linearGradient>
        <linearGradient x1="20.1304044%" y1="83.1140598%" x2="69.6566148%" y2="11.7070169%" id="linearGradient-15">
            <stop stop-color="#A497B7" offset="0%"></stop>
            <stop stop-color="#B5ABC6" offset="8%"></stop>
            <stop stop-color="#B9AEC8" offset="25%"></stop>
            <stop stop-color="#DED6EB" offset="42%"></stop>
            <stop stop-color="#E0D8ED" offset="100%"></stop>
        </linearGradient>
        <linearGradient x1="-5.916556%" y1="76.8910461%" x2="122.401973%" y2="15.119664%" id="linearGradient-16">
            <stop stop-color="#DAD0E8" offset="3%"></stop>
            <stop stop-color="#EFEAF6" offset="83%"></stop>
        </linearGradient>
        <linearGradient x1="30.775048%" y1="1.84875912%" x2="68.4295047%" y2="96.1192551%" id="linearGradient-17">
            <stop stop-color="#DAD1E9" offset="20%"></stop>
            <stop stop-color="#E1DAEA" offset="46%"></stop>
            <stop stop-color="#D7CCE6" offset="76%"></stop>
        </linearGradient>
        <linearGradient x1="93.8558413%" y1="29.7312344%" x2="-2.35145292%" y2="67.1265176%" id="linearGradient-18">
            <stop stop-color="#BFB7CE" offset="0%"></stop>
            <stop stop-color="#B9B0C6" offset="93%"></stop>
        </linearGradient>
        <linearGradient x1="0.000198887388%" y1="50.005888%" x2="100.005089%" y2="50.005888%" id="linearGradient-19">
            <stop stop-color="#8CF2E3" offset="0%"></stop>
            <stop stop-color="#C1FFFF" offset="100%"></stop>
        </linearGradient>
        <linearGradient x1="93.5626294%" y1="84.704131%" x2="4.6634901%" y2="18.8314105%" id="linearGradient-20">
            <stop stop-color="#E8E2F7" offset="75%"></stop>
            <stop stop-color="#B9B0C6" offset="98%"></stop>
        </linearGradient>
        <linearGradient x1="22.0811397%" y1="37.1658651%" x2="67.7462372%" y2="56.6427347%" id="linearGradient-21">
            <stop stop-color="#8CE8F2" offset="0%"></stop>
            <stop stop-color="#8CE8F2" stop-opacity="0" offset="99.9604096%"></stop>
        </linearGradient>
        <linearGradient x1="17.2290062%" y1="46.6992337%" x2="16.5640469%" y2="47.8492528%" id="linearGradient-22">
            <stop stop-color="#EFEAF6" offset="0%"></stop>
            <stop stop-color="#D0C7DD" offset="100%"></stop>
        </linearGradient>
        <linearGradient x1="0.000198887388%" y1="50.005888%" x2="100.005089%" y2="50.005888%" id="linearGradient-23">
            <stop stop-color="#A8E7EE" offset="0.0343116554%"></stop>
            <stop stop-color="#C0F8FE" offset="100%"></stop>
        </linearGradient>
        <linearGradient x1="93.1413885%" y1="19.829487%" x2="6.96326011%" y2="80.4008036%" id="linearGradient-24">
            <stop stop-color="#D0C7DD" offset="22%"></stop>
            <stop stop-color="#DFD8E9" offset="23%"></stop>
        </linearGradient>
        <linearGradient x1="76.1427112%" y1="-5.11563728%" x2="23.8528425%" y2="105.130403%" id="linearGradient-25">
            <stop stop-color="#F9F7FC" offset="0%"></stop>
            <stop stop-color="#E6DEF0" offset="100%"></stop>
        </linearGradient>
        <linearGradient x1="41.6038905%" y1="66.457455%" x2="12.3496525%" y2="39.7817676%" id="linearGradient-26">
            <stop stop-color="#8CE8F2" stop-opacity="0" offset="0%"></stop>
            <stop stop-color="#8CE8F2" offset="99.9604096%"></stop>
        </linearGradient>
        <linearGradient x1="100.613647%" y1="44.023168%" x2="1.11914667%" y2="46.6669969%" id="linearGradient-27">
            <stop stop-color="#B0A5C2" offset="0%"></stop>
            <stop stop-color="#EFEAF6" offset="1.90383866%"></stop>
            <stop stop-color="#EFEAF6" offset="54.7581512%"></stop>
            <stop stop-color="#BAB0CA" offset="58.7916504%"></stop>
            <stop stop-color="#B7ADC7" offset="98.7629126%"></stop>
            <stop stop-color="#A09AA9" offset="99.9049831%"></stop>
        </linearGradient>
        <linearGradient x1="24.0262926%" y1="48.8070772%" x2="28.1749597%" y2="36.4528393%" id="linearGradient-28">
            <stop stop-color="#D5CCE2" offset="0.0897381757%"></stop>
            <stop stop-color="#E4DDEE" offset="100%"></stop>
        </linearGradient>
        <linearGradient x1="10.6887327%" y1="82.8702262%" x2="101.80703%" y2="20.2661662%" id="linearGradient-29">
            <stop stop-color="#E2DBEC" offset="0%"></stop>
            <stop stop-color="#F0ECF5" offset="100%"></stop>
        </linearGradient>
        <linearGradient x1="10.7777986%" y1="56.1666773%" x2="88.8053%" y2="37.7214506%" id="linearGradient-30">
            <stop stop-color="#DBD1E8" offset="0%"></stop>
            <stop stop-color="#E3DBEE" offset="99.9049831%"></stop>
        </linearGradient>
        <linearGradient x1="0.000198887388%" y1="50.005888%" x2="100.005089%" y2="50.005888%" id="linearGradient-31">
            <stop stop-color="#A8E7EE" offset="0.0343116554%"></stop>
            <stop stop-color="#C0F8FE" offset="100%"></stop>
        </linearGradient>
        <linearGradient x1="53.1649956%" y1="46.93461%" x2="44.4673991%" y2="48.5191131%" id="linearGradient-32">
            <stop stop-color="#E6DAF7" stop-opacity="0.358282343" offset="0%"></stop>
            <stop stop-color="#CFBCE8" stop-opacity="0" offset="100%"></stop>
        </linearGradient>
        <path d="M36.288,68.7168555 C46.6187101,62.5118413 51.7840652,59.4093342 51.7840652,59.4093342 C51.7840652,59.4093342 55.5787101,61.7085058 63.168,66.3068489 L47.7283224,75.5373342 L36.288,68.7168555 Z" id="path-33"></path>
        <linearGradient x1="88.1443036%" y1="41.458774%" x2="9.31865643%" y2="52.6341671%" id="linearGradient-34">
            <stop stop-color="#C2B1DA" offset="0%"></stop>
            <stop stop-color="#A293B5" offset="100%"></stop>
        </linearGradient>
        <linearGradient x1="88.1443036%" y1="41.2749152%" x2="10.2465555%" y2="52.5564869%" id="linearGradient-35">
            <stop stop-color="#A897C0" offset="0%"></stop>
            <stop stop-color="#8F80A4" offset="100%"></stop>
        </linearGradient>
        <path d="M6.07183175,65.1319536 C5.79984732,64.9902931 5.69419889,64.6549676 5.83585938,64.3829832 C5.88413287,64.2902993 5.9575814,64.2131193 6.04776126,64.1603157 L45.9335475,40.805731 C46.4488295,40.5040146 47.091373,40.5240268 47.5868804,40.8572246 C47.8676693,41.0460376 47.9422305,41.4267252 47.7534175,41.7075142 C47.7018829,41.7841527 47.6336889,41.848149 47.5539351,41.8947175 L7.83028858,65.0894623 C7.29034728,65.4047354 6.6263705,65.4207798 6.07183175,65.1319536 Z" id="path-36"></path>
        <linearGradient x1="9.80450381%" y1="24.1231213%" x2="53.4495637%" y2="54.6878367%" id="linearGradient-37">
            <stop stop-color="#8CE8F2" offset="0%"></stop>
            <stop stop-color="#8CE8F2" stop-opacity="0" offset="100%"></stop>
        </linearGradient>
    </defs>
    <g id="New-Sign-Up" stroke="none" stroke-width="1" fill="none" fill-rule="evenodd">
        <g id="Onboarding/Developer/Sign-Up" transform="translate(-176.000000, -183.000000)">
            <g id="Group-7" transform="translate(176.000000, 183.000000)">
                <g id="Group-6">
                    <g id="Group" transform="translate(69.216000, 134.400000)">
                        <g id="Path-10">
                            <use fill="url(#linearGradient-1)" xlink:href="#path-4"></use>
                            <use fill="url(#linearGradient-2)" xlink:href="#path-4"></use>
                            <use fill="url(#linearGradient-3)" xlink:href="#path-4"></use>
                        </g>
                        <path d="M4.20236001,14.0873523 L6.55697601,12.7046703 L6.55697601,12.7046703 L7.44356388,12.8231519 C7.59879889,12.8438972 7.75640467,12.8097704 7.88915321,12.7266675 L9.59486128,11.6588638 C9.72066287,11.5801098 9.7798908,11.4281462 9.74056229,11.2850326 L9.61537928,10.8295006 L9.61537928,10.8295006 L11.3031337,9.84214827 C12.5370971,9.12026805 14.0610539,9.10578025 15.3085184,9.80407028 L33.5031116,19.9888118 C34.1508115,20.3513731 34.3819619,21.1703515 34.0194006,21.8180514 C33.9068704,22.0190817 33.7445533,22.1878105 33.5480312,22.3080407 L26.5982747,26.5598282 C25.3557303,27.3200038 23.7997781,27.3508881 22.5280467,26.6406187 L4.22757455,16.4196997 C3.5795265,16.0577611 3.34758894,15.2390052 3.7095275,14.5909571 C3.82609364,14.3822464 3.99621812,14.2084034 4.20236001,14.0873523 Z" id="Path-10" fill="url(#linearGradient-5)"></path>
                        <g id="Group-2" opacity="0.382719494" transform="translate(3.564755, 0.000000)">
                            <path d="M10.3426579,2.38742359e-15 L29.9335096,11.5971363 C30.3422071,11.8390717 30.5928708,12.2787471 30.5928708,12.7536854 L30.5928708,21.2193482 L30.5928708,21.2193482 L23.1502274,26.3292722 C21.8529841,27.2199254 20.156123,27.2745201 18.8043103,26.4690974 L10.3426579,21.4275656 L10.3426579,21.4275656 L10.3426579,2.38742359e-15 Z" id="Path-10" fill="url(#linearGradient-6)"></path>
                            <path d="M-1.43245416e-14,15.3525992 L-1.43245416e-14,7.27100218 C-1.30487563e-14,6.80978882 0.236491906,6.38078896 0.626478437,6.13456089 L10.3426579,4.05862011e-14 L10.3426579,4.05862011e-14 L10.3426579,21.4275656 L-1.43245416e-14,15.3525992 Z" id="Path-10" fill="url(#linearGradient-7)"></path>
                        </g>
                        <path d="M29.936061,26.4507569 L31.4030768,25.6195811 C31.638659,25.4861059 31.7842646,25.2362574 31.7842646,24.9654908 C31.7842646,24.8288249 31.673475,24.7180353 31.5368091,24.7180353 C31.491784,24.7180353 31.4476122,24.7303198 31.409052,24.7535654 L29.9306286,25.6448186 C29.7189255,25.7724418 29.5894981,26.0015924 29.5894981,26.2487885 C29.5894981,26.3769918 29.6934274,26.4809211 29.8216306,26.4809211 C29.8617395,26.4809211 29.9011641,26.4705286 29.936061,26.4507569 Z" id="Path-11" fill="#A396B6"></path>
                        <path d="M7.40575772,12.3931858 C7.49480769,12.4445589 7.6048658,12.4429254 7.69235193,12.3889322 L9.16743109,11.4785681 C9.20992474,11.4523426 9.22311268,11.3966347 9.19688717,11.354141 C9.18816627,11.3400104 9.17572243,11.3285543 9.16092039,11.3210291 C9.07165376,11.275647 8.96528542,11.2795541 8.87958884,11.3313631 L7.4040173,12.2234379 C7.35742658,12.2516049 7.3424912,12.312208 7.37065819,12.3587987 C7.37926793,12.37304 7.39134289,12.3848699 7.40575772,12.3931858 Z" id="Path-12" fill="#CAC1D7"></path>
                    </g>
                    <g id="Asset-3">
                        <path d="M29.87712,125.664 L39.15072,131.04 C39.6175429,131.304802 40.1891771,131.304802 40.656,131.04 L91.056,102.40608 C91.4298435,102.182963 91.6588015,101.779682 91.6588015,101.34432 C91.6588015,100.908958 91.4298435,100.505677 91.056,100.28256 L82.68288,95.12832 C82.2067489,94.8534256 81.6201311,94.8534256 81.144,95.12832 L29.8704,124.19232 C29.6202027,124.354032 29.4696597,124.632094 29.4710108,124.929999 C29.4723803,125.227904 29.6254564,125.50458 29.87712,125.664 Z" id="Path" fill="url(#linearGradient-8)" fill-rule="nonzero"></path>
                        <path d="M29.64192,125.16672 L39.16416,130.66368 C39.579995,130.903762 40.092325,130.903762 40.50816,130.66368 L91.37856,101.76768 C91.5973156,101.641756 91.7321449,101.40857 91.7321449,101.15616 C91.7321449,100.90375 91.5973156,100.670564 91.37856,100.54464 L82.23936,94.93344 C81.823525,94.6933575 81.311195,94.6933575 80.89536,94.93344 L29.64192,123.93024 C29.4202022,124.057125 29.2834066,124.293023 29.2834066,124.54848 C29.2834066,124.803937 29.4202022,125.039835 29.64192,125.16672 Z" id="Path" fill="url(#linearGradient-9)" fill-rule="nonzero"></path>
                        <polygon id="Path" fill="url(#linearGradient-10)" fill-rule="nonzero" points="45.68928 121.45728 45.68928 115.5504 43.80768 115.03968 43.80768 120.60384"></polygon>
                        <polygon id="Path" fill="url(#linearGradient-11)" fill-rule="nonzero" points="45.68928 115.5504 72.912 99.77856 72.912 105.88032 45.68928 121.45728"></polygon>
                        <g id="Group-3" transform="translate(17.472000, 118.272000)">
                            <polygon id="Path" fill="url(#linearGradient-12)" fill-rule="nonzero" opacity="0.612327939" points="30.9976185 19.3904908 19.6206585 12.2874508 13.9960185 15.6071308 24.9092985 22.5018508"></polygon>
                            <polygon id="Path" fill="url(#linearGradient-13)" fill-rule="nonzero" opacity="0.612327939" points="39.4177785 15.1098508 28.0475385 8.0068108 22.4161785 11.3264908 33.3294585 18.2212108"></polygon>
                            <path d="M41.5144185,14.3437708 L27.4561785,6.5485708 C27.4561785,6.5485708 20.2052985,1.0919308 9.89009854,6.1453708 C-0.425101461,11.1988108 2.10833854,16.0103308 2.10833854,16.0103308 C2.10833854,16.0103308 -4.85358146,9.6935308 7.01393854,3.1012108 C18.8814585,-3.4911092 27.5905785,2.4762508 27.5905785,2.4762508 L41.5144185,10.1908108 L41.5144185,14.3437708 Z" id="Path" fill="url(#linearGradient-14)" fill-rule="nonzero"></path>
                            <polygon id="Path" fill="#7A7189" fill-rule="nonzero" points="43.1876985 29.0068108 38.7995385 26.6413708 42.0721785 25.2973708 44.2225785 27.1520908"></polygon>
                            <path d="M37.187819,7.21761867 L37.187819,8.55300521 C37.3843378,9.78704313 37.438494,10.6522582 37.3502876,11.1486505 C37.2620812,11.6450427 37.4048296,11.695064 37.7785329,11.2987143 L38.2148985,7.49354415 L37.187819,7.21761867 Z" id="Path-3" fill="#A69FB3"></path>
                            <path d="M19.5736185,17.3005708 C19.5736185,17.3005708 24.6808185,19.1687308 32.5700985,14.5655308 C40.4593785,9.9623308 36.7902585,7.4154508 37.2068985,7.1735308 C38.1476985,6.6695308 38.8936185,6.7636108 40.9499385,7.9664908 C43.0062585,9.1693708 49.9614585,13.1408908 49.9614585,13.1408908 L29.5460985,23.0932108 C27.174345,24.4641198 25.7180252,26.9998597 25.7291385,29.7392908 C25.840723,30.7346053 26.0022062,31.7236902 26.2129785,32.7028108 C26.2129785,32.7028108 29.2974585,36.4996108 28.4238585,36.1165708 C25.3259385,34.7725708 19.0158585,30.6868108 17.5777785,29.8468108 C15.2795385,28.5028108 15.7230585,25.2772108 15.7566585,23.2813708 C15.9621531,20.7793997 17.3909095,18.5406792 19.5736185,17.3005708 L19.5736185,17.3005708 Z" id="Path" fill="url(#linearGradient-15)" fill-rule="nonzero"></path>
                            <path d="M31.6158585,35.7872908 C31.6158585,35.7872908 37.7512185,32.5012108 38.8734585,31.6746508 C39.9956985,30.8480908 38.8264185,28.8791308 40.9499385,27.5351308 C43.0734585,26.1911308 42.2603385,29.8736908 43.8462585,28.8791308 C44.4443385,28.5095308 48.4158585,26.3322508 48.4158585,26.3322508 C50.8129753,24.9804396 52.2988893,22.4448902 52.3067491,19.6928908 L52.3067491,16.7965708 C52.3100025,15.3818716 51.5566982,14.0733705 50.3316494,13.3658113 C49.1066007,12.658252 47.5967528,12.6596096 46.3729785,13.3693708 L38.0603385,18.1741708 L29.5326585,23.1066508 C27.1796892,24.4683353 25.7303248,26.9803962 25.7291378,29.6989708 L25.7291378,32.3399308 C25.7282794,33.7437617 26.4723223,35.0426448 27.6837166,35.7520572 C28.8951108,36.4614696 30.3919465,36.4748819 31.6158585,35.7872908 Z" id="Path" fill="url(#linearGradient-16)" fill-rule="nonzero"></path>
                            <path d="M15.1988985,27.4746508 L16.8856185,28.5968908 C17.3783688,28.9253531 18.0122816,28.95466 18.533236,28.6730631 C19.0541904,28.3914661 19.3769079,27.8450618 19.3720185,27.2528908 L19.3720185,24.8068108 C19.3696259,23.9138262 18.9239186,23.0803283 18.1825785,22.5824908 L16.6436985,21.5408908 C16.1358804,21.1972872 15.4812015,21.1576257 14.9356173,21.4374125 C14.3900332,21.7171992 14.0402034,22.2719934 14.0228985,22.8848908 L14.0228985,25.1696908 C13.9949625,26.0885567 14.438543,26.9579745 15.1988985,27.4746508 Z" id="Path" fill="url(#linearGradient-17)" fill-rule="nonzero"></path>
                            <path d="M15.1249785,27.4612108 L17.0132985,28.7178508 C17.3837489,28.9482433 17.8488725,28.9638715 18.2339524,28.758865 C18.6190323,28.5538584 18.865761,28.1592584 18.8814585,27.7232908 L18.8814585,25.0688908 C18.873582,24.2616803 18.4722184,23.5091235 17.8062585,23.0528908 L15.9380985,21.7895308 C15.5650107,21.5370328 15.0833212,21.5100783 14.6843921,21.7193756 C14.2854629,21.928673 14.0338909,22.3403316 14.0296185,22.7908108 L14.0296185,25.4317708 C14.035306,26.2481145 14.4456797,27.0084388 15.1249785,27.4612108 Z" id="Path" fill="#A38FC0" fill-rule="nonzero"></path>
                            <path d="M52.3067491,16.7898508 C52.3100025,15.3751516 51.5566982,14.0666505 50.3316494,13.3590913 C49.1066007,12.651532 47.5967528,12.6528896 46.3729785,13.3626508 L38.0603385,18.1674508 L29.5326585,23.0999308 C27.1796892,24.4616153 25.7303248,26.9736762 25.7291385,29.6922508 L25.7291385,31.3184908 C27.7518585,30.1088908 52.3067491,16.7898508 52.3067491,16.7898508 Z" id="Path" fill="url(#linearGradient-18)" fill-rule="nonzero"></path>
                            <path d="M42.6232185,17.3005708 C42.8382585,17.1728908 43.0196985,17.3005708 43.0196985,17.5290508 L43.0196985,17.6432908 C43.0004677,17.9171448 42.8536251,18.1660305 42.6232185,18.3152908 L33.8132985,23.4023308 C33.5915385,23.5300108 33.4100985,23.4023308 33.4100985,23.1671308 L33.4100985,23.0461708 C33.4358266,22.7726791 33.5840897,22.525574 33.8132985,22.3741708 L42.6232185,17.3005708 Z" id="Path" fill="url(#linearGradient-19)" fill-rule="nonzero"></path>
                            <path d="M16.4689785,27.8509708 C16.4689785,27.8509708 6.77201854,21.8836108 2.16209854,19.2023308 C-1.15758146,17.2736908 0.334258539,9.7943308 0.334258539,9.7943308 C0.959218539,14.4983308 4.36625854,15.7549708 16.4622585,22.7572108 L16.4689785,27.8509708 Z" id="Path" fill="url(#linearGradient-20)" fill-rule="nonzero"></path>
                            <polygon id="Path" fill="url(#linearGradient-21)" fill-rule="nonzero" opacity="0.308244978" points="33.4100985 22.8378508 42.8113785 17.3946508 55.1089785 24.1280908 44.9886585 30.2500108"></polygon>
                        </g>
                        <path d="M-0.000130765374,67.32096 L-0.000130765374,139.89696 C-0.00451365717,140.39857 0.260114719,140.864135 0.69341265,141.116893 C1.12671058,141.36965 1.66222688,141.370836 2.09664,141.12 L115.3152,75.77472 C115.736902,75.5313129 115.993977,75.0788613 115.987557,74.592 L115.987557,2.19744 C115.999099,1.64764353 115.712857,1.134366 115.238857,0.85554285 C114.764858,0.576719701 114.177161,0.575915358 113.7024,0.85344 L0.672,66.13824 C0.25029764,66.3816471 -0.0067771216,66.8340987 -0.000130765374,67.32096 Z" id="Path" fill="url(#linearGradient-22)" fill-rule="nonzero"></path>
                        <path d="M0.927131145,67.99296 L0.927131145,140.62944 C0.920952592,140.875414 1.049491,141.105222 1.26243575,141.228506 C1.4753805,141.351789 1.73867668,141.348833 1.9488,141.2208 L115.32192,75.76128 C115.739412,75.5202457 115.994784,75.0740723 115.994784,74.592 L115.994784,1.95552 C116.006452,1.70809366 115.881832,1.47384077 115.669642,1.34596472 C115.457452,1.21808866 115.192114,1.21733362 114.9792,1.344 L1.60608,66.82368 C1.18599976,67.0629953 0.927131145,67.5094945 0.927131145,67.99296 Z" id="Path" fill="url(#linearGradient-23)" fill-rule="nonzero"></path>
                        <path d="M114.83808,2.184 L114.83808,74.69952 L2.17728,139.33248 L2.17728,137.98848 L113.05728,74.53152 C113.474772,74.2904857 113.731194,73.8443123 113.72928,73.36224 L113.76288,3.03744 L114.83808,2.184 Z" id="Path" fill="url(#linearGradient-24)" fill-rule="nonzero"></path>
                        <path d="M116.00173,1.95552 L116.00173,74.592 C116.00173,75.0740723 115.746132,75.5202457 115.32864,75.76128 L1.9488,141.2208 C1.73867668,141.348833 1.4753805,141.351789 1.26243575,141.228506 C1.049491,141.105222 0.920952592,140.875414 0.927131145,140.62944 L0.927131145,67.98624 C0.927131145,67.5065675 1.18395105,67.0635161 1.59936,66.82368 L114.9792,1.344 C115.192455,1.21362081 115.460452,1.2123757 115.674909,1.34076773 C115.889366,1.46915977 116.014842,1.70597115 116.00173,1.95552 Z M114.838165,73.92 L114.838165,4.15296 C114.841975,3.90818321 114.71245,3.68065398 114.499984,3.55904481 C114.287517,3.43743563 114.025728,3.44098896 113.81664,3.56832 L2.84928,67.41504 C2.43178764,67.6560743 2.17536614,68.1022477 2.17719456,68.58432 L2.17719456,137.98176 C2.17338491,138.226537 2.30290983,138.454066 2.51537644,138.575675 C2.72784304,138.697284 2.98963232,138.693731 3.19872,138.5664 L114.13248,75.08928 C114.562934,74.8569606 114.833182,74.4091206 114.838165,73.92 Z" id="Shape" fill="url(#linearGradient-25)" fill-rule="nonzero"></path>
                        <path d="M2.17728,137.98848 L76.608,180.343982 L76.608,101.18513 L76.608,93.9783607 C76.608,92.165383 77.5817373,90.4921025 79.1580041,89.5964067 L119.96796,66.406609 C121.194138,65.7098477 122.752987,66.139024 123.449748,67.3652011 C123.668271,67.7497617 123.783158,68.1844882 123.783158,68.626799 L123.783158,69.7119515 L123.783158,69.7119515 L180.07117,42.8282109 L113.663792,3.64516191 L2.85097377,67.4082361 C2.4341845,67.6480618 2.17728,68.092287 2.17728,68.5731505 L2.17728,137.98848 L2.17728,137.98848 Z" id="Path-16" fill="url(#linearGradient-26)" opacity="0.291527158"></path>
                    </g>
                    <g id="Group-5" transform="translate(76.608000, 64.238666)">
                        <path d="M2.62702704,67.6563469 L31.4131959,84.2811821 C33.9204729,85.7292063 37.0116064,85.7219035 39.5120136,84.2620486 L77.8497965,61.8786541 C78.6706632,61.3993937 79.1773781,60.5222354 79.1824634,59.5717162 L79.1894312,58.2693562 L79.1894312,58.2693562 L39.6082987,82.7843006 C37.0623295,84.3611704 33.8521898,84.3972698 31.2714038,82.8780526 L1.27823029,65.2221342 L1.27823029,65.2221342 L1.28485995,65.4190824 C1.31607918,66.3465168 1.8234525,67.1922597 2.62702704,67.6563469 Z" id="Path-13" fill="url(#linearGradient-27)"></path>
                        <path d="M47.20128,4.61782478 L47.20128,37.7114912 C47.20128,38.673015 46.6876862,39.56131 45.8543852,40.0410364 L2.51819076,64.989424 C1.71408308,65.452344 0.686954229,65.1757567 0.224034255,64.371649 C0.0772543651,64.1166874 -6.04319163e-16,63.8276517 0,63.5334582 L0,29.9360799 C1.53947343e-15,28.0017801 1.03913993,26.2165992 2.72111565,25.2613644 L43.1858378,2.28046703 C44.4767249,1.54734096 46.1175117,1.99949556 46.8506378,3.29038261 C47.0804579,3.69504957 47.20128,4.15245109 47.20128,4.61782478 Z" id="Path-Copy" fill="url(#linearGradient-28)" fill-rule="nonzero"></path>
                        <path d="M47.20128,4.11124301 L47.20128,37.4421014 C47.20128,38.4024073 46.6889754,39.2897704 45.8573381,39.7699442 L2.12354177,65.0211177 C1.64142975,65.2994813 1.0249425,65.1343105 0.746578965,64.6521985 C0.658100401,64.4989579 0.61152,64.3251262 0.61152,64.1481767 L0.61152,30.3015221 C0.61152,28.3695282 1.64820511,26.5861052 3.32703,25.6299946 L44.1875963,2.3594202 C45.1551013,1.80841468 46.3860973,2.14605424 46.9371028,3.11355926 C47.1102376,3.41756481 47.20128,3.76139302 47.20128,4.11124301 Z" id="Path" fill="url(#linearGradient-29)" fill-rule="nonzero"></path>
                        <path d="M39.5091278,82.99501 L77.8567943,60.6607157 C79.1396218,59.9135765 79.5738829,58.2679634 78.8267437,56.985136 C78.590949,56.58028 78.25343,56.2440856 77.8476499,56.0098849 L48.5452089,39.0976385 C47.7135678,38.6176471 46.6890414,38.6177324 45.8574801,39.0978621 L1.61942863,64.6401844 C1.29802062,64.8257601 1.18790677,65.2367516 1.37348246,65.5581596 C1.4324578,65.660302 1.51727779,65.7451233 1.61941924,65.8041003 L31.4183952,83.0101796 C33.9229096,84.4562988 37.0100538,84.4505106 39.5091278,82.99501 Z" id="Path" fill="url(#linearGradient-30)" fill-rule="nonzero"></path>
                        <path d="M45.8347331,5.4362865 L45.8347331,36.0238043 C45.8347331,37.2248194 45.1936828,38.3345076 44.1532718,38.9344928 L3.02370773,62.6531291 C2.70220195,62.8385353 2.29126855,62.7282049 2.10586229,62.4066991 C2.04699043,62.3046117 2.016,62.1888376 2.016,62.0709914 L2.016,30.8329505 C2.016,29.1430706 2.92244549,27.5830443 4.39057727,26.7462151 L43.8251837,4.26864783 C44.4700528,3.90107507 45.290799,4.12586811 45.6583718,4.77073714 C45.7739515,4.97350999 45.8347331,5.20288664 45.8347331,5.4362865 Z" id="Path" fill="url(#linearGradient-31)" fill-rule="nonzero"></path>
                        <g id="Path-14">
                            <use fill="#B5A5CB" xlink:href="#path-33"></use>
                            <use fill="url(#linearGradient-32)" xlink:href="#path-33"></use>
                        </g>
                        <path d="M22.1280723,71.8576713 L24.210814,73.0680777 C24.3663282,73.1583985 24.3654855,73.3047198 24.2089754,73.3950406 L22.0582824,74.6367031 C21.9018488,74.7271005 21.6488126,74.7274069 21.4932984,74.6370095 L19.4105567,73.4266031 C19.2550424,73.3362823 19.2563448,73.1897312 19.4128549,73.0994103 L21.5635479,71.8576713 C21.7200581,71.7672738 21.972558,71.7672738 22.1280723,71.8576713 Z M22.9612992,68.1239276 L25.0440409,69.3342574 C25.1995551,69.4246548 25.1987124,69.5708995 25.0422023,69.6612203 L19.2505609,73.0050829 C19.0940507,73.0954803 18.8410145,73.0956336 18.6855769,73.0053893 L16.6028352,71.7949829 C16.4473209,71.7045855 16.4486233,71.5580344 16.6051334,71.467637 L22.3967748,68.1239276 C22.553285,68.0335301 22.8057849,68.0335301 22.9612992,68.1239276 Z M25.0084411,70.1946495 L27.0912594,71.4050559 C27.2466971,71.4954533 27.245931,71.641698 27.0888846,71.7323253 L24.9387279,72.9736813 C24.7822177,73.0640787 24.5291815,73.0643852 24.3736672,72.9739877 L22.2909256,71.7636579 C22.1354879,71.6733371 22.1367903,71.5267094 22.2933004,71.4363886 L24.4434571,70.1949559 C24.6004269,70.1043286 24.8530035,70.1043286 25.0084411,70.1946495 Z M18.6862127,67.3393697 L20.7689544,68.5497761 C20.9244687,68.640097 20.923626,68.7864182 20.7671158,68.8767391 L16.442824,71.3733172 C16.2863139,71.4637146 16.0332777,71.4640211 15.8777634,71.3736236 L13.7950217,70.1632938 C13.6395841,70.072973 13.6408864,69.9264219 13.7973966,69.8360245 L18.1216884,67.3393697 C18.2781985,67.2489723 18.5306985,67.2489723 18.6862127,67.3393697 Z M27.9431864,68.5003793 L30.0259281,69.7107091 C30.1814423,69.8011065 30.1805996,69.9473512 30.0235532,70.0379785 L27.8733965,71.2793345 C27.7168863,71.3697319 27.4639267,71.3700384 27.3084125,71.2796409 L25.2256708,70.0693877 C25.0701565,69.9789903 25.0714589,69.8324392 25.227969,69.7420418 L27.3781258,68.5006091 C27.5351722,68.4099819 27.7876721,68.4099819 27.9431864,68.5003793 Z M15.172694,66.1157408 L17.2548995,67.3258408 C17.4104137,67.4162382 17.4101073,67.5627893 17.2535972,67.6531101 L13.6356311,69.7419805 C13.479121,69.8323779 13.2255485,69.8323779 13.0700343,69.7419805 L10.9878288,68.5318805 C10.8323146,68.4414831 10.8331573,68.2947021 10.9896674,68.2043813 L14.6076334,66.115511 C14.7641436,66.0251135 15.0171798,66.0253434 15.172694,66.1157408 Z M31.5299116,66.4295731 L33.6125767,67.6399029 C33.768091,67.7303004 33.7672483,67.8766216 33.6107381,67.9669425 L30.753796,69.6163893 C30.5972858,69.7067101 30.3443262,69.7070166 30.188812,69.6166957 L28.1060703,68.406366 C27.9505561,68.3159685 27.9518584,68.1694174 28.1083685,68.07902 L30.9653107,66.4295731 C31.1218208,66.3391757 31.3743974,66.3391757 31.5299116,66.4295731 Z M25.8417676,66.4609211 L27.9244327,67.6712509 C28.079947,67.7616483 28.0791043,67.907893 27.9225941,67.9982139 L25.7719777,69.2398763 C25.6154676,69.3302738 25.362891,69.3302738 25.2073768,69.2398763 L23.1247117,68.0296231 C22.9691975,67.9392257 22.9700401,67.792981 23.1265503,67.7025836 L25.2771667,66.4609211 C25.4336768,66.3705237 25.6862534,66.3705237 25.8417676,66.4609211 Z M21.6209579,65.6450153 L23.703623,66.8554217 C23.8591373,66.9457425 23.8582946,67.0920638 23.7017844,67.1823846 L21.5511681,68.4240471 C21.3946579,68.5144445 21.1420813,68.5144445 20.9865671,68.4240471 L18.903902,67.2137939 C18.7483878,67.1233965 18.7492305,66.9770752 18.9057406,66.8866777 L21.056357,65.6450153 C21.2128671,65.5546178 21.4654437,65.5546178 21.6209579,65.6450153 Z M10.8976076,65.3312595 L12.979813,66.5413595 C13.1357869,66.6319102 13.1350208,66.7783081 12.9785107,66.8686289 L10.8278177,68.1102914 C10.6713076,68.2006888 10.4182713,68.2009186 10.2622974,68.1102914 L8.18009201,66.9001914 C8.02457777,66.8098706 8.02542046,66.663013 8.1819306,66.5726156 L10.332547,65.3309531 C10.4890571,65.2405557 10.7420934,65.2408621 10.8976076,65.3312595 Z M28.7221595,64.7979147 L30.8048246,66.0082444 C30.9603388,66.0986419 30.9594961,66.2448866 30.802986,66.3352074 L28.6523696,67.5768699 C28.4958595,67.6672673 28.2433595,67.6672673 28.0877686,67.5768699 L26.0051036,66.3666167 C25.8495893,66.2762192 25.850432,66.1299746 26.0069421,66.0395771 L28.1575585,64.7979147 C28.3140687,64.7075172 28.5666452,64.7075172 28.7221595,64.7979147 Z M46.0404857,58.0518372 L48.1232274,59.2622436 C48.2787417,59.352641 48.2773627,59.4991921 48.1208526,59.5895129 L34.394844,67.5143041 C34.2382572,67.6046249 33.9857573,67.6046249 33.830243,67.5143041 L31.7475013,66.3038977 C31.5919871,66.2135003 31.5928298,66.0672556 31.7494165,65.9768581 L45.4754251,58.0521436 C45.6319353,57.9617461 45.8849715,57.9614397 46.0404857,58.0518372 Z M18.0531012,64.4527267 L20.1353833,65.6628266 C20.2908209,65.7532241 20.2905145,65.8997752 20.1335447,65.9904024 L17.9833113,67.2317585 C17.8268012,67.3221559 17.5733053,67.3221559 17.4177911,67.2317585 L15.3355856,66.0216585 C15.1800714,65.9313377 15.1809141,65.7845567 15.3374242,65.6941593 L17.487581,64.4527267 C17.6445508,64.3620994 17.897587,64.3624058 18.0531012,64.4527267 Z M24.5013115,63.9820088 L26.5840532,65.1924152 C26.7395674,65.282736 26.7387247,65.4290573 26.5822146,65.5193782 L24.4315216,66.7610406 C24.2750881,66.8514381 24.0225115,66.8514381 23.8669973,66.7610406 L21.7842556,65.5507874 C21.6288179,65.46039 21.629584,65.3140687 21.7860942,65.2237479 L23.9367871,63.9820088 C24.0932973,63.891688 24.3457973,63.891688 24.5013115,63.9820088 Z M13.7779765,63.6682454 L15.8602585,64.8783454 C16.0162324,64.9689727 16.0153897,65.1152939 15.8584199,65.2058446 L13.7082632,66.4472772 C13.551753,66.5376747 13.2987168,66.5379045 13.1427429,66.4472772 L11.0604609,65.2371773 C10.9049466,65.1468564 10.9057893,64.9999989 11.0622995,64.9096015 L13.2124562,63.6682454 C13.3695026,63.5775416 13.6225388,63.577848 13.7779765,63.6682454 Z M31.6568741,63.1035602 L33.7395392,64.31389 C33.8950534,64.4042874 33.8942107,64.5505321 33.7377006,64.6408529 L31.5870842,65.8825154 C31.430574,65.9729128 31.1779975,65.9729128 31.0224832,65.8825154 L28.9398181,64.6722622 C28.7843039,64.5818648 28.7851466,64.4356201 28.9416567,64.3452227 L31.0922731,63.1035602 C31.2487833,63.0131628 31.5013598,63.0131628 31.6568741,63.1035602 Z M20.9334931,62.7897968 L23.0157751,63.9998202 C23.1712128,64.0902176 23.1704467,64.2370751 23.0139365,64.327396 L20.8637798,65.568752 C20.707193,65.6591494 20.4536972,65.6591494 20.2981829,65.568752 L18.2159775,64.358652 C18.0604633,64.2684078 18.0613059,64.1215503 18.2178161,64.0311528 L20.3679728,62.7897202 C20.524483,62.6993994 20.7779788,62.6993994 20.9334931,62.7897968 Z M27.4360644,62.287731 L29.5187295,63.4980608 C29.6742437,63.5883816 29.673401,63.7347029 29.5168909,63.8250237 L27.3662745,65.0666862 C27.2097644,65.1570836 26.9571878,65.1570836 26.8016735,65.0666862 L24.7190084,63.856433 C24.5634942,63.7660355 24.5643369,63.6197909 24.720847,63.5293934 L26.8714634,62.2876544 C27.0279736,62.1973335 27.2805501,62.1973335 27.4360644,62.287731 Z M16.7126834,61.973891 L18.7949654,63.1839909 C18.9509393,63.2746182 18.9500966,63.4209395 18.7931268,63.5114901 L16.6429701,64.7529228 C16.48646,64.8433202 16.2333471,64.84355 16.0773732,64.7529228 L13.9951678,63.5428228 C13.8396536,63.452502 13.8404963,63.3056444 13.9970064,63.2153236 L16.1471631,61.973891 C16.3041329,61.8831871 16.5572458,61.8834935 16.7126834,61.973891 Z M34.5372659,61.4405537 L36.619931,62.6508835 C36.7754453,62.741281 36.7746792,62.8876022 36.618169,62.9778465 L34.467476,64.2195855 C34.3109659,64.3099064 34.0583893,64.3099064 33.9028751,64.2195855 L31.82021,63.0092557 C31.6646958,62.9188583 31.6655384,62.7726136 31.8220486,62.6822162 L33.972665,61.4405537 C34.1291751,61.3501563 34.3817517,61.3501563 34.5372659,61.4405537 Z M23.8682,61.0954424 L25.950482,62.3054657 C26.1059197,62.3958632 26.1051536,62.5427207 25.9485668,62.6330415 L23.7984101,63.8743976 C23.6419,63.964795 23.3884041,63.964795 23.2328899,63.8743976 L21.1506844,62.6643742 C20.9951702,62.5740534 20.9960129,62.4271958 21.152523,62.3367984 L23.3026797,61.0954424 C23.4591899,61.0050449 23.7126858,61.0050449 23.8682,61.0954424 Z M30.3164179,60.6247168 L32.3991596,61.8350466 C32.5546739,61.9254441 32.5538312,62.0716887 32.397321,62.1620096 L30.246628,63.403672 C30.0901945,63.4940695 29.8376179,63.4940695 29.6821037,63.403672 L27.599362,62.1934189 C27.4439244,62.1030214 27.4446904,61.9567767 27.6012006,61.8663793 L29.7518936,60.6247168 C29.9084037,60.5343194 30.1609037,60.5343194 30.3164179,60.6247168 Z M19.5930752,60.3108845 L21.6753573,61.5209845 C21.8313312,61.6116117 21.8300288,61.7582394 21.6735187,61.8485603 L19.523362,63.0899163 C19.3668518,63.1803138 19.1138156,63.1806202 18.9578417,63.0899163 L16.8755597,61.8798163 C16.7200454,61.7894955 16.7208881,61.642638 16.8773982,61.5523171 L19.027555,60.3108845 C19.1840651,60.2204871 19.4376376,60.2204871 19.5930752,60.3108845 Z M37.4176578,59.7775473 L39.5003995,60.9878771 C39.6558371,61.0782745 39.6549944,61.2245958 39.4984843,61.31484 L37.3478679,62.5565791 C37.1913577,62.6468999 36.9383215,62.6472063 36.7828073,62.5568089 L34.7000656,61.3464791 C34.544628,61.2561583 34.5459303,61.1096072 34.7024404,61.0192097 L36.8530568,59.7775473 C37.009567,59.6871498 37.2621435,59.6871498 37.4176578,59.7775473 Z M26.7485919,59.4324359 L28.8308739,60.6424592 C28.9863115,60.7328567 28.9855455,60.8797142 28.8290353,60.9700351 L26.6788786,62.2113911 C26.5218322,62.302095 26.268796,62.3017885 26.1132817,62.2113911 L24.0310763,61.0013677 C23.875562,60.9110469 23.8758685,60.7644958 24.0329149,60.6737919 L26.1830716,59.4324359 C26.3395817,59.3420384 26.5930776,59.3420384 26.7485919,59.4324359 Z M33.1968098,58.9617104 L35.2795515,60.1720402 C35.4350657,60.2624376 35.434223,60.4086823 35.2777129,60.4990031 L33.1270199,61.7406656 C32.9705864,61.831063 32.7180098,61.831063 32.5624955,61.7406656 L30.4797539,60.5304124 C30.3243162,60.4400149 30.3250823,60.2937703 30.4816691,60.2033728 L32.6322854,58.9617104 C32.7887956,58.8713129 33.0412955,58.8713129 33.1968098,58.9617104 Z M22.5277822,58.61653 L24.6100642,59.82663 C24.7660381,59.9172573 24.7647358,60.063885 24.6082256,60.1542058 L22.4580689,61.3955619 C22.3015587,61.4859593 22.0484459,61.4862657 21.892472,61.3955619 L19.8102666,60.1854619 C19.6547523,60.0951411 19.655595,59.9483601 19.8121052,59.8579627 L21.9622619,58.61653 C22.1187721,58.5261326 22.3723445,58.5261326 22.5277822,58.61653 Z M40.3523264,58.0831928 L42.4350681,59.2935226 C42.5905823,59.38392 42.5897396,59.5302413 42.4332295,59.6205622 L40.2825365,60.8622246 C40.1260264,60.9526221 39.8729901,60.9528519 39.7175525,60.8624544 L37.6348108,59.6521246 C37.4792966,59.5618038 37.4805989,59.4152527 37.6371091,59.3248553 L39.787802,58.0831928 C39.9443122,57.9927954 40.1968122,57.9927954 40.3523264,58.0831928 Z M29.6832605,57.7380814 L31.7655425,58.9481048 C31.9210568,59.0385022 31.9202141,59.1853598 31.7637039,59.2756806 L29.6135472,60.5170366 C29.4565008,60.6077405 29.2035412,60.6074341 29.0480269,60.5170366 L26.9657449,59.3070133 C26.8102307,59.2166924 26.8106137,59.0701413 26.9675835,58.9794375 L29.1177402,57.7380814 C29.2742504,57.647684 29.5278228,57.647684 29.6832605,57.7380814 Z M36.0772399,57.2987039 L38.1599816,58.5090337 C38.3154959,58.5994311 38.3146532,58.7456758 38.1580664,58.8359966 L36.0074501,60.0776591 C35.8509399,60.1680565 35.5979037,60.168363 35.4424661,60.0779655 L33.3597244,58.8676357 C33.2042101,58.7773149 33.2055125,58.6307638 33.3620226,58.5403664 L35.5127156,57.2987039 C35.6692257,57.2083065 35.9217257,57.2083065 36.0772399,57.2987039 Z M25.408174,56.9535236 L27.4904561,58.1636235 C27.64643,58.2542508 27.6451276,58.4008785 27.4886175,58.4911994 L25.3384607,59.7325554 C25.1814143,59.8232593 24.9288378,59.8232593 24.7728639,59.7325554 L22.6906584,58.5224554 C22.5351442,58.4321346 22.5355272,58.2855835 22.692497,58.1949562 L24.8426538,56.9535236 C24.9991639,56.8631261 25.2527364,56.8631261 25.408174,56.9535236 Z M43.2327719,56.4201787 L45.3155136,57.6305851 C45.4709512,57.7209059 45.4696489,57.867457 45.3131387,57.9577779 L43.162982,59.1992105 C43.0064718,59.2896079 42.7534356,59.2898378 42.5979214,59.1995169 L40.5151797,57.9891871 C40.3596654,57.8987897 40.3610444,57.7522386 40.5175545,57.6618411 L42.6677113,56.4204851 C42.8242214,56.3300877 43.0772576,56.3297812 43.2327719,56.4201787 Z M49.6814418,55.9497596 L51.7641835,57.1600894 C51.9196977,57.2504868 51.918855,57.3967315 51.7623449,57.4870523 L48.9054028,59.1365758 C48.7488926,59.2268966 48.495933,59.2272031 48.3403422,59.1368822 L46.2576771,57.9264758 C46.1020862,57.836155 46.1034652,57.6896039 46.2599753,57.5992064 L49.1169174,55.9497596 C49.2734276,55.8593622 49.5259276,55.8593622 49.6814418,55.9497596 Z M32.5636906,56.075075 L34.6459727,57.2850983 C34.8014103,57.3754958 34.8006442,57.5223533 34.6441341,57.6126741 L32.4934411,58.8543366 C32.336931,58.944734 32.0838947,58.9444276 31.9283805,58.8540302 L29.846175,57.6440068 C29.6906608,57.553686 29.6909672,57.4071349 29.847554,57.3167374 L31.9981704,56.075075 C32.1546805,55.9846775 32.4081764,55.9846775 32.5636906,56.075075 Z M39.0119086,55.6043494 L41.0946503,56.8146792 C41.2501645,56.9050767 41.2493218,57.0513214 41.0928117,57.1416422 L38.9421953,58.3833046 C38.7856851,58.4737021 38.5325723,58.4740085 38.3771347,58.3836111 L36.294393,57.1732813 C36.1388787,57.0829605 36.1402577,56.9364094 36.2967678,56.8460119 L38.4473842,55.6043494 C38.6038944,55.513952 38.8564709,55.513952 39.0119086,55.6043494 Z M28.2886118,55.2905554 L30.3708939,56.5005788 C30.5268678,56.5912827 30.5255654,56.7378338 30.3689787,56.8282312 L28.2183623,58.0698937 C28.0618522,58.1602145 27.8092756,58.1602145 27.6533017,58.0695872 L25.5710963,56.8594873 C25.415582,56.7691664 25.4158884,56.6225387 25.5723986,56.5322179 L27.7230916,55.2905554 C27.8796017,55.200158 28.1330976,55.200158 28.2886118,55.2905554 Z M46.1674405,54.7258242 L48.2501822,55.9362306 C48.4056964,56.0266281 48.4043175,56.1731792 48.2478073,56.2634234 L46.0976506,57.504856 C45.9411405,57.5952535 45.6881042,57.5955599 45.5326666,57.5051625 L43.4498483,56.2948327 C43.2944107,56.2044352 43.295713,56.0578841 43.4522232,55.9674867 L45.6023799,54.7261307 C45.75889,54.6357332 46.0119263,54.6355034 46.1674405,54.7258242 Z M35.4435539,54.4122983 L37.5258359,55.6223983 C37.6813502,55.7127957 37.6810437,55.8593468 37.5245336,55.9496677 L35.3738406,57.1913301 C35.2173305,57.2817276 34.9642942,57.2814211 34.80878,57.1910237 L32.7265746,55.9810003 C32.5710603,55.8906795 32.5714434,55.7441284 32.7279535,55.653731 L34.8785699,54.4120685 C35.03508,54.3216711 35.2881163,54.3219775 35.4435539,54.4122983 Z M52.5618796,54.2867531 L54.6446213,55.4970829 C54.8000589,55.5874804 54.7992163,55.7338016 54.6427061,55.8240459 L52.5464048,57.0344523 C52.3898947,57.1248497 52.1373181,57.1248497 51.9818804,57.0344523 L49.8990621,55.8240459 C49.7436245,55.733725 49.7444672,55.5874804 49.9009773,55.4970829 L51.9972787,54.2867531 C52.1537888,54.1963557 52.4063654,54.1963557 52.5618796,54.2867531 Z M41.9466538,53.9100027 L44.0293955,55.1203324 C44.1848331,55.2107299 44.1839904,55.3569746 44.0274803,55.447372 L41.8768639,56.6890345 C41.7203538,56.7793553 41.4673175,56.7796617 41.3118033,56.6892643 L39.2290616,55.4789345 C39.0735474,55.3886137 39.0749263,55.2420626 39.2314364,55.1516651 L41.3820528,53.9100027 C41.538563,53.8196052 41.7911396,53.8196052 41.9466538,53.9100027 Z M31.2232805,53.596201 L33.3055625,54.8062243 C33.4615364,54.8969282 33.4602341,55.0434793 33.3037239,55.1338767 L31.1530309,56.3755392 C30.9965208,56.46586 30.7439442,56.46586 30.5879703,56.3752328 L28.5057649,55.1651328 C28.3502506,55.074812 28.3506337,54.9282609 28.5071438,54.8378634 L30.6577602,53.596201 C30.8142703,53.5058035 31.0678428,53.5058035 31.2232805,53.596201 Z M49.047794,53.0628944 L51.1306124,54.2731476 C51.28605,54.363545 51.2847476,54.5100961 51.1282375,54.6004935 L48.9780808,55.8418496 C48.8215706,55.932247 48.5685344,55.9325534 48.4130202,55.842156 L46.3302785,54.6318262 C46.1747642,54.5414288 46.1761432,54.3948777 46.3326533,54.3045568 L48.48281,53.0631242 C48.6393202,52.9727268 48.8923564,52.9724969 49.047794,53.0628944 Z M38.3783374,52.7179439 L40.4605429,53.9280438 C40.6160571,54.0184413 40.6156741,54.1649924 40.4591639,54.2553898 L38.3085475,55.4969757 C38.1520374,55.5873731 37.8990012,55.5870667 37.7434869,55.4967459 L35.6612815,54.2866459 C35.5057672,54.1963251 35.5061503,54.0497739 35.6626604,53.9593765 L37.8132768,52.717714 C37.969787,52.6273166 38.2228232,52.627623 38.3783374,52.7179439 Z M55.4965482,52.5924063 L57.5792899,53.8027361 C57.7348042,53.8931336 57.7339615,54.0393782 57.5774513,54.1297757 L55.426835,55.3714381 C55.2702482,55.4618356 55.0177482,55.4618356 54.862234,55.3714381 L52.7794923,54.1611084 C52.6239781,54.0707109 52.6248208,53.9244662 52.7814075,53.8340688 L54.9320239,52.5924063 C55.088534,52.5020089 55.341034,52.5020089 55.4965482,52.5924063 Z M44.8270227,52.2470268 L46.9097644,53.4573566 C47.0652786,53.5477541 47.0638997,53.6943052 46.9073895,53.784626 L44.7573094,55.025982 C44.6007992,55.1163795 44.3476864,55.1166859 44.1922488,55.0262885 L42.1095071,53.8159587 C41.9539928,53.7255612 41.9553718,53.5790101 42.1118819,53.4886893 L44.2619621,52.2472567 C44.4184722,52.1569358 44.671585,52.1566294 44.8270227,52.2470268 Z M34.1032127,51.9335009 L36.1854181,53.1435243 C36.341392,53.2341516 36.3406259,53.3804728 36.1841158,53.4708703 L34.0334228,54.7125327 C33.8769126,54.8028536 33.6244127,54.8028536 33.4684388,54.7122263 L31.3861567,53.5021263 C31.2306425,53.4118055 31.2310255,53.2652544 31.3875357,53.174857 L33.5381521,51.9331945 C33.6946622,51.8427971 33.9476984,51.8431035 34.1032127,51.9335009 Z M51.9825393,51.3685399 L54.065281,52.5788697 C54.2207952,52.6691905 54.2194163,52.8157416 54.0629061,52.9061391 L51.9127494,54.1474951 C51.7562392,54.2378926 51.503203,54.238199 51.3477654,54.1478015 L49.2649471,52.9374718 C49.1095095,52.8470743 49.1108118,52.7005232 49.2673219,52.6102024 L51.4174787,51.3687697 C51.5739888,51.2783723 51.827025,51.2781425 51.9825393,51.3685399 Z M41.258691,51.055014 L43.340973,52.2650374 C43.4964873,52.3554348 43.4961042,52.5019859 43.3395941,52.5923834 L41.1889777,53.8340458 C41.0324675,53.9243667 40.7794313,53.9241368 40.6239171,53.8337394 L38.541635,52.6236394 C38.3861974,52.5333186 38.3865038,52.3867675 38.543014,52.29637 L40.693707,51.0547076 C40.8502171,50.9643101 41.1032533,50.9646166 41.258691,51.055014 Z M58.4312169,50.8980519 L60.5140352,52.1083817 C60.6694728,52.1987791 60.6686301,52.3450238 60.51212,52.4354212 L58.3615036,53.6770837 C58.2049934,53.7674811 57.9524169,53.7674811 57.7969792,53.6770837 L55.7141609,52.4667539 C55.5587233,52.3763565 55.559566,52.2301118 55.7160761,52.1397143 L57.8666925,50.8980519 C58.0232027,50.8076544 58.2757792,50.8076544 58.4312169,50.8980519 Z M47.7074528,50.5839821 L49.7901945,51.7943119 C49.9457088,51.8847093 49.9443298,52.0312604 49.7878197,52.1216578 L47.6376629,53.3630139 C47.4811528,53.4534113 47.2281166,53.4537177 47.0726023,53.3633203 L44.9898606,52.1529905 C44.834423,52.0625931 44.8357253,51.916042 44.9922355,51.8256445 L47.1423922,50.5842885 C47.2989024,50.4938911 47.5519386,50.4935846 47.7074528,50.5839821 Z M37.0379196,50.2391465 L39.1202016,51.4491698 C39.2761755,51.5398737 39.2753328,51.6861184 39.1188227,51.7765158 L36.9681297,53.0181783 C36.8116196,53.1084991 36.5591196,53.1084991 36.4031457,53.0178718 L34.3208636,51.8077719 C34.1653494,51.717451 34.1657324,51.5708999 34.3222426,51.4805025 L36.472859,50.23884 C36.6293691,50.1485192 36.8824053,50.148749 37.0379196,50.2391465 Z M58.5581716,47.5720313 L60.6409133,48.7823611 C60.7964276,48.8727585 60.7955849,49.0190032 60.6390747,49.1094006 L54.8475099,52.4531866 C54.6909998,52.5435841 54.437887,52.5438139 54.2824493,52.4534931 L52.1997076,51.2430867 C52.0441934,51.1527658 52.0454957,51.0062147 52.2020059,50.9158173 L57.9936473,47.5720313 C58.1501574,47.4816339 58.402734,47.4816339 58.5581716,47.5720313 Z M44.1934362,49.3606596 L46.2756416,50.5706829 C46.4311559,50.6610804 46.4307728,50.8076315 46.2742627,50.8980289 L44.1236463,52.1396914 C43.9671362,52.2300122 43.7140999,52.2297824 43.5585857,52.1393849 L41.4763803,50.929285 C41.320866,50.8389641 41.3212491,50.692413 41.4777592,50.6020156 L43.6283756,49.3603531 C43.7848857,49.2699557 44.037922,49.2702621 44.1934362,49.3606596 Z M61.311647,49.2350454 L63.3943887,50.4453752 C63.549903,50.5357726 63.5490603,50.6820939 63.3925501,50.7724148 L61.2419337,52.0140772 C61.085347,52.1044747 60.832847,52.1044747 60.6773328,52.0140772 L58.5945911,50.8037474 C58.4390768,50.71335 58.4399195,50.5671053 58.5965063,50.4767079 L60.7471227,49.2350454 C60.9036328,49.1447246 61.1561328,49.1447246 61.311647,49.2350454 Z M50.5878064,48.9209756 L52.6706247,50.1313054 C52.8260623,50.2217028 52.82476,50.3682539 52.6682498,50.4586514 L50.5180931,51.7000074 C50.3615829,51.7904048 50.1085467,51.7907113 49.9530325,51.7003138 L47.8702908,50.489984 C47.7147765,50.3995866 47.7161555,50.2530355 47.8726656,50.1626381 L50.0228224,48.921282 C50.1793325,48.8308846 50.4323687,48.8305782 50.5878064,48.9209756 Z M39.9182731,48.57614 L42.0005552,49.7861634 C42.1565291,49.8768672 42.1556864,50.0231119 41.9991762,50.1135094 L39.8485599,51.3551718 C39.6920497,51.4454926 39.4394731,51.4454926 39.2834992,51.3548654 L37.2012938,50.1447654 C37.0457796,50.0544446 37.0461626,49.9078935 37.2026728,49.817496 L39.3532891,48.5758336 C39.5097993,48.4855127 39.7628355,48.4857426 39.9182731,48.57614 Z M47.0737897,47.6976531 L49.1560718,48.9076765 C49.3115094,48.9980739 49.311203,49.144625 49.1546929,49.2350224 L47.0040765,50.4766849 C46.8475663,50.5670057 46.5945301,50.5667759 46.4390159,50.4763785 L44.3567338,49.2662785 C44.2012962,49.1759577 44.2016026,49.0294066 44.3581128,48.9390091 L46.5087291,47.6973467 C46.6653159,47.6069492 46.9183521,47.6072557 47.0737897,47.6976531 Z M55.6961427,45.9716825 L57.7788844,47.1820123 C57.9343987,47.2724097 57.933556,47.4186544 57.7770458,47.5090519 L53.452754,50.0057066 C53.2962439,50.0960274 53.0432077,50.0963338 52.8876934,50.0059364 L50.8049517,48.7956066 C50.6495141,48.7052858 50.6508164,48.5586581 50.8073266,48.4683372 L55.1316184,45.9716825 C55.2881285,45.8812851 55.5407051,45.8812851 55.6961427,45.9716825 Z M42.7987033,46.9130952 L44.8809853,48.1231952 C45.0369592,48.2138225 45.0361165,48.3601438 44.8796064,48.4504646 L42.72899,49.6922037 C42.5724799,49.7825245 42.3199033,49.7825245 42.1639294,49.6918972 L40.0816474,48.4817973 C39.9262097,48.3914764 39.9265162,48.2449253 40.0830263,48.1545279 L42.2336427,46.9128654 C42.3902294,46.822468 42.6432657,46.8227744 42.7987033,46.9130952 Z M50.008535,46.0032986 L52.0907404,47.213322 C52.2462547,47.3037194 52.2458716,47.4502705 52.0893615,47.540668 L49.9387451,48.7823304 C49.7822349,48.8726513 49.5291987,48.8724214 49.3736845,48.782024 L47.291479,47.5720006 C47.1359648,47.4816032 47.1363478,47.3350521 47.292858,47.2446547 L49.4434744,46.0029922 C49.5999845,45.9126714 49.8530207,45.9129012 50.008535,46.0032986 Z M45.7333719,45.2187408 L47.815654,46.4288408 C47.9716278,46.519468 47.9707852,46.6657893 47.814275,46.7561101 L45.6636586,47.9978492 C45.5071485,48.08817 45.2545719,48.08817 45.098598,47.9975428 L43.016316,46.7874428 C42.8608783,46.697122 42.8611848,46.5505709 43.0177715,46.4601734 L45.1683879,45.218511 C45.3248981,45.1281135 45.5779343,45.12842 45.7333719,45.2187408 Z M52.8888962,44.3402539 L54.9711782,45.5503538 C55.1266159,45.6407513 55.1263094,45.7873024 54.9697993,45.8776232 L52.8191829,47.1193623 C52.6626728,47.2096831 52.4095599,47.2094533 52.2541223,47.1190558 L50.1718403,45.9089559 C50.0164026,45.818635 50.0167091,45.6720839 50.1732192,45.5816865 L52.3238356,44.340024 C52.4804223,44.2496266 52.7334586,44.249933 52.8888962,44.3402539 Z M50.1354208,42.6772857 L52.2177029,43.8873091 C52.3736767,43.9779363 52.3728341,44.1242576 52.2163239,44.214655 L48.5983579,46.3034488 C48.4418478,46.3938462 48.1893478,46.3938462 48.0333739,46.3031423 L45.9510918,45.093119 C45.7955776,45.0027215 45.795884,44.8561704 45.9523942,44.7658496 L49.5704368,42.6769793 C49.726947,42.5865818 49.9799832,42.5868883 50.1354208,42.6772857 Z" id="Combined-Shape" fill="url(#linearGradient-34)"></path>
                        <g id="Path-15" opacity="0.499186198">
                            <use fill="#D8D8D8" xlink:href="#path-36"></use>
                            <use fill="url(#linearGradient-35)" xlink:href="#path-36"></use>
                        </g>
                        <path d="M45.1746893,4.2557996 L80.7942303,24.8939665 C82.3998625,25.824279 82.9473173,27.8800684 82.0170047,29.4857006 C81.7020557,30.0292731 81.2410229,30.4736618 80.6862425,30.7684202 L44.5062152,49.9911001 L44.5062152,49.9911001 L44.5062152,87.4400659 C16.5844767,71.0871758 2.52233961,62.805493 2.31980376,62.5950174 C2.28112883,62.5548264 2.2424539,62.5146353 2.20377897,62.4744443 C2.08330068,62.3492431 2.016,62.1822431 2.016,62.0084894 L2.016,30.832281 C2.016,29.142759 2.9220649,27.5830058 4.38970768,26.7460415 L43.8350995,4.25120431 C44.2506297,4.01423663 44.7607947,4.01598668 45.1746893,4.2557996 Z" id="Path" fill="url(#linearGradient-37)" fill-rule="nonzero" opacity="0.427106585"></path>
                    </g>
                </g>
            </g>
        </g>
    </g>
</svg>