<svg xmlns="http://www.w3.org/2000/svg" xmlns:xlink="http://www.w3.org/1999/xlink" width="380" height="248" viewBox="0 0 380 248">
  <defs>
    <linearGradient id="awaiting-a" x1="55.91%" x2="64.677%" y1="39.676%" y2="66.261%">
      <stop offset="0%" stop-color="#240A49"/>
      <stop offset="100%" stop-color="#352054"/>
    </linearGradient>
    <filter id="awaiting-b" width="226.6%" height="201.4%" x="-63.3%" y="-50.7%" filterUnits="objectBoundingBox">
      <feOffset dx="-12" dy="3" in="SourceAlpha" result="shadowOffsetOuter1"/>
      <feGaussianBlur in="shadowOffsetOuter1" result="shadowBlurOuter1" stdDeviation="4.5"/>
      <feColorMatrix in="shadowBlurOuter1" result="shadowMatrixOuter1" values="0 0 0 0 0   0 0 0 0 0   0 0 0 0 0  0 0 0 0.12 0"/>
      <feMerge>
        <feMergeNode in="shadowMatrixOuter1"/>
        <feMergeNode in="SourceGraphic"/>
      </feMerge>
    </filter>
    <linearGradient id="awaiting-c" x1="78.294%" x2="78.294%" y1="100%" y2="-4.997%">
      <stop offset="0%" stop-color="#543369"/>
      <stop offset="100%" stop-color="#3C2F83"/>
    </linearGradient>
    <linearGradient id="awaiting-d" x1="78.294%" x2="78.294%" y1="200.094%" y2="-8.721%">
      <stop offset="0%" stop-color="#583270"/>
      <stop offset="100%" stop-color="#3A2D80"/>
    </linearGradient>
    <linearGradient id="awaiting-e" x1="78.294%" x2="78.294%" y1="100%" y2="6.904%">
      <stop offset="0%" stop-color="#533169"/>
      <stop offset="100%" stop-color="#3E3188"/>
    </linearGradient>
    <polygon id="awaiting-f" points=".166 .33 59.745 .33 59.745 77.505 .166 77.505"/>
    <linearGradient id="awaiting-g" x1="78.294%" x2="78.294%" y1="100%" y2="0%">
      <stop offset="0%" stop-color="#884FAC"/>
      <stop offset="100%" stop-color="#644FD9"/>
    </linearGradient>
    <linearGradient id="awaiting-i" x1="50%" x2="79.772%" y1="273.924%" y2="-833.239%">
      <stop offset="0%" stop-color="#884FAC"/>
      <stop offset="100%" stop-color="#644FD9"/>
    </linearGradient>
    <linearGradient id="awaiting-j" x1="-5.304%" x2="20.215%" y1="765.994%" y2="-322.815%">
      <stop offset="0%" stop-color="#884FAC"/>
      <stop offset="100%" stop-color="#644FD9"/>
    </linearGradient>
    <linearGradient id="awaiting-k" x1="78.294%" x2="78.294%" y1="233.22%" y2="-77.922%">
      <stop offset="0%" stop-color="#884FAC"/>
      <stop offset="100%" stop-color="#644FD9"/>
    </linearGradient>
    <linearGradient id="awaiting-l" x1="50%" x2="79.78%" y1="468.737%" y2="-618.511%">
      <stop offset="0%" stop-color="#884FAC"/>
      <stop offset="100%" stop-color="#644FD9"/>
    </linearGradient>
    <linearGradient id="awaiting-m" x1="50%" x2="50%" y1="988.662%" y2="-75.798%">
      <stop offset="0%" stop-color="#884FAC"/>
      <stop offset="100%" stop-color="#644FD9"/>
    </linearGradient>
  </defs>
  <g fill="none" fill-rule="evenodd">
    <path fill="url(#awaiting-a)" d="M368.438068,122.168086 L157.415512,240.20606 L157.415512,240.20606 C141.518943,249.436205 115.676934,249.441323 99.6663891,240.20606 L12.4608236,185.854673 C-3.5407572,176.627087 -3.63296319,161.659769 12.2623246,152.429624 L40.1597586,136.234008 C49.7121368,130.687985 108.747267,98.6108668 217.265149,40.0026529 C240.581242,27.410125 268.711182,27.5860919 291.86791,40.4693314 L368.393129,83.0441158 C379.203838,89.0586507 383.091905,102.698206 377.077371,113.508914 C375.056713,117.140907 372.065409,120.13909 368.438068,122.168086 Z" opacity=".6"/>
    <path fill="#321C52" fill-rule="nonzero" d="M234.16698,1.81268218 C238.427868,-0.523017197 243.777188,1.03450508 246.11502,5.29150557 C246.826835,6.58766155 247.2,8.04222628 247.2,9.52066341 L247.2,9.52066341 L247.2,94.4467225 C247.2,99.868866 244.306431,104.879662 239.608099,107.593623 L239.608099,107.593623 L120.004689,176.681763 C115.79721,179.112186 110.414328,177.67471 107.981686,173.47107 C107.207582,172.133408 106.8,170.615548 106.8,169.0704 L106.8,169.0704 L106.8,80.6212635 C106.8,75.0774662 109.823696,69.9741829 114.68842,67.3074778 L114.68842,67.3074778 Z M242.190401,8.24399274 L187.092354,105.972003 L111.795208,78.6161458 C111.666628,79.2695493 111.6,79.9405529 111.6,80.6212635 L111.6,80.6212635 L111.6,169.0704 C111.6,169.77274 111.785265,170.462676 112.13713,171.070704 C113.242876,172.98145 115.689641,173.634848 117.602131,172.53011 L117.602131,172.53011 L237.205542,103.44197 C240.42019,101.585049 242.4,98.1566102 242.4,94.4467225 L242.4,94.4467225 L242.4,9.52066341 C242.4,9.08499145 242.328709,8.6538802 242.190401,8.24399274 Z M238.2106,5.52789236 C237.620946,5.55537434 237.0283,5.7142255 236.4759,6.01703558 L236.4759,6.01703558 L116.99734,71.5118312 C115.732589,72.2051323 114.649709,73.139138 113.793095,74.2389217 L184.9072,100.075215 Z"/>
    <g filter="url(#awaiting-b)" transform="translate(226.8 69.055)">
      <path fill="url(#awaiting-c)" d="M57.2961546,34.1843502 C57.4467277,33.4370507 57.5782281,32.6917737 57.6896522,31.9505416 C57.6966789,31.8949239 57.7107324,31.8403174 57.718763,31.7846997 C57.729805,31.7139136 57.7328164,31.6431274 57.7418508,31.57133 C57.8603016,30.7299861 57.9556645,29.8926871 58.019909,29.0624667 C58.0269358,28.9785346 58.0289434,28.8946024 58.0349663,28.8106703 C58.0951956,27.9410119 58.1323369,27.0784321 58.1294958,26.2269758 C58.1294958,26.179448 58.1294958,26.1309089 58.1283216,26.0823699 C58.126314,25.8700114 58.115272,25.6657428 58.1102529,25.4564181 C58.1042299,25.2076553 58.1012185,24.9558589 58.0881688,24.7121523 C58.076123,24.4735018 58.0560466,24.2429412 58.0379778,24.0083357 C58.0219167,23.7828313 58.008867,23.5522707 57.986783,23.3308111 C57.9636951,23.0911495 57.9325767,22.8605889 57.9024621,22.6259834 C57.8773666,22.4176698 57.8562863,22.2063226 57.8261717,22.0030652 C57.791038,21.7684597 57.7478737,21.5429553 57.7077209,21.3134059 C57.673591,21.1192496 57.6434764,20.9210484 57.6053313,20.7299258 C57.5591555,20.5034101 57.5039454,20.2839731 57.4527506,20.0625135 C57.4105901,19.880492 57.372445,19.6944256 57.3262692,19.516449 C57.2690515,19.292967 57.2017955,19.0795973 57.1385548,18.8642052 C57.0893676,18.6963409 57.0441957,18.5254429 56.9909933,18.3616235 C56.9217297,18.1442089 56.8424279,17.9358954 56.7661375,17.7245482 C56.7109274,17.5718524 56.6597326,17.4141004 56.6025148,17.2654495 C56.5222092,17.0581472 56.4328692,16.8619684 56.3455368,16.662756 C56.2833,16.5171387 56.2250784,16.3684878 56.1588262,16.2279268 C56.0684824,16.0357929 55.9711118,15.8527602 55.8757489,15.6666937 C55.8054815,15.5291664 55.7382255,15.3855716 55.6639428,15.2520892 C55.5645646,15.0720901 55.4571559,14.9011921 55.3517547,14.7272604 C55.2734567,14.5978229 55.2001779,14.4643404 55.1198722,14.3389478 C55.0104558,14.1690611 54.892005,14.0102979 54.7775695,13.848501 C54.6932486,13.7281645 54.612943,13.6037831 54.5266145,13.4885028 C54.4091675,13.3337845 54.2846938,13.1891785 54.1632315,13.0415389 C54.0698762,12.928281 53.98154,12.8109783 53.8861771,12.7027766 C53.7617034,12.5612043 53.6291991,12.4307555 53.5007101,12.2952506 C53.3993243,12.1910938 53.3029575,12.0818809 53.199564,11.9807579 C53.0620407,11.8462642 52.9164867,11.7239053 52.7729404,11.5975014 C52.6725584,11.5075019 52.574184,11.411435 52.4697867,11.3264916 C52.3121869,11.1950316 52.1455527,11.0746952 51.98193,10.9523363 C51.8865671,10.8815501 51.7962233,10.8046966 51.6988527,10.7369441 C51.434848,10.5518889 51.1638165,10.376946 50.8857583,10.2151491 C49.7072733,9.52447851 48.5287882,8.83481918 47.3492994,8.14414862 C47.6263538,8.30695676 47.8973853,8.48088844 48.16139,8.66594366 C48.2637797,8.73672981 48.3601464,8.81863949 48.4595246,8.89347056 C48.6181283,9.01178455 48.7797433,9.12706485 48.9333278,9.25447992 C49.0457557,9.34751314 49.1531645,9.4516699 49.2625809,9.54975928 C49.396089,9.6690845 49.5336124,9.78335357 49.6631052,9.90975741 C49.775533,10.0199816 49.8799304,10.1393068 49.9903506,10.2535758 C50.1098052,10.3789684 50.2322713,10.4993049 50.3477106,10.6307649 C50.4581308,10.7561575 50.5605205,10.8916624 50.6669255,11.0231224 C50.7743342,11.1535712 50.8837506,11.279975 50.9871441,11.4154799 C51.0905376,11.5530073 51.1869044,11.7016582 51.2872864,11.8432305 C51.384657,11.9848028 51.4860428,12.1203077 51.5804019,12.2659249 C51.674761,12.4125534 51.7620934,12.5682829 51.8524372,12.7199675 C51.9437849,12.8726633 52.0391478,13.020303 52.1254763,13.1790662 C52.2108011,13.3337845 52.2880952,13.4976039 52.3694047,13.6573783 C52.4537256,13.822209 52.5410579,13.9829946 52.6203597,14.1528814 C52.6956463,14.3156895 52.7618984,14.4865875 52.8341735,14.6534406 C52.9114676,14.8314172 52.9917732,15.0063601 53.0630445,15.1904041 C53.1303004,15.3613021 53.1875182,15.5402899 53.2507589,15.7142216 C53.3180148,15.9053442 53.3892861,16.0903994 53.4525267,16.2865781 C53.5107483,16.4645547 53.5589317,16.64961 53.6121342,16.8316315 C53.6713596,17.0348889 53.7346002,17.2351125 53.7888065,17.4444373 C53.8349823,17.6254476 53.8741313,17.8145477 53.9172955,17.9996029 C53.9684904,18.21904 54.0216928,18.4354434 54.0668648,18.6599366 C54.1050099,18.846003 54.1351245,19.0391481 54.1682506,19.2292595 C54.2094072,19.463865 54.2535753,19.6954368 54.288709,19.9340873 C54.3158122,20.1191425 54.3348848,20.3102651 54.3589765,20.4993652 C54.3900949,20.7541953 54.4262324,21.007003 54.4513279,21.2679005 C54.4683929,21.4478996 54.4774273,21.6359885 54.4924846,21.8190213 C54.5145686,22.0971097 54.5376565,22.3731757 54.5527138,22.6583427 C54.5597405,22.8332856 54.5617482,23.0163184 54.5677711,23.1953062 C54.5778093,23.5128327 54.590859,23.8303591 54.5918628,24.1559754 C54.5928666,24.4866478 54.5637558,24.8254101 54.5557252,25.158105 L51.9728956,23.6473264 C51.9447887,23.6291242 51.9156779,23.614967 51.8835556,23.5997985 C51.8393875,23.5795739 51.7871889,23.5745177 51.7400093,23.558338 C51.6767687,23.5371022 51.6155356,23.5138439 51.5482797,23.5027204 C51.5312147,23.4996867 51.5171612,23.4905856 51.5000963,23.4885631 C51.4248098,23.4784508 51.3445041,23.4855294 51.2641985,23.4875519 C51.228061,23.4895744 51.1939311,23.483507 51.1557859,23.4875519 C51.1467516,23.4885631 51.1397248,23.4865407 51.1316942,23.4875519 C51.0072205,23.5017091 50.8787315,23.5300236 50.7462273,23.5724953 C50.7392005,23.5745177 50.7301661,23.5795739 50.7231394,23.5826076 C50.6769637,23.5967648 50.6287803,23.624068 50.5826046,23.6422702 C50.4872416,23.680697 50.3928825,23.7140676 50.2945081,23.7666516 C50.2633897,23.7838425 50.2312675,23.8010334 50.200149,23.8202468 C50.0114308,23.9294597 49.8297393,24.0649646 49.653067,24.2136155 C49.6410211,24.2227166 49.6269676,24.2297952 49.6159256,24.2399075 C49.5316047,24.3127161 49.4533067,24.3976595 49.3709935,24.4775467 C49.317791,24.531142 49.2615771,24.579681 49.2093784,24.63631 C49.0959467,24.7596801 48.9895418,24.8931626 48.8841406,25.0296787 C48.8580413,25.0640605 48.8289305,25.0954087 48.8028312,25.1297905 C48.8018274,25.1308018 48.8018274,25.131813 48.8008235,25.1328242 C48.7978121,25.1368692 48.7958044,25.1419253 48.792793,25.1459702 C48.6271626,25.3734971 48.4836163,25.6172037 48.3501082,25.8679889 C48.3320395,25.9023708 48.3079478,25.9316965 48.289879,25.9660783 C48.2607682,26.0247297 48.239688,26.0854035 48.211581,26.1440549 C48.1684168,26.2350657 48.128264,26.3260765 48.0911226,26.4170872 C48.0730538,26.4615814 48.049966,26.5040531 48.032901,26.5485472 C48.0047941,26.6233783 47.9857215,26.6992206 47.960626,26.7750629 C47.9375381,26.8448378 47.9124426,26.9156239 47.8923662,26.9853989 C47.8843356,27.0147246 47.871286,27.0440502 47.8642592,27.0743872 C47.8331408,27.1886562 47.8160758,27.3009028 47.7939918,27.4141607 C47.7839536,27.4657334 47.7699001,27.5183174 47.7618696,27.5709014 C47.7608657,27.5789913 47.7578543,27.5870811 47.7568504,27.5941597 C47.7287435,27.7852823 47.71469,27.97236 47.71469,28.156404 L47.71469,28.1705612 C47.7156938,28.2919089 47.7347664,28.3970769 47.7478161,28.5073011 C47.7558466,28.573031 47.7548428,28.6468509 47.7678925,28.7095472 C47.7899765,28.8217938 47.8291255,28.9188719 47.865263,29.0179726 C47.8833318,29.0644892 47.8923662,29.1190956 47.9124426,29.1625785 C47.9596221,29.2647128 48.021859,29.3476338 48.0840959,29.4305547 C48.1051761,29.4568467 48.1182258,29.4922397 48.1413136,29.5175205 C48.2296498,29.6186436 48.3300318,29.7025757 48.4424597,29.7683057 L51.9799224,31.8393062 C51.8684983,31.7735762 51.7671125,31.689644 51.6777725,31.588521 C51.6446464,31.5511054 51.6225624,31.4975102 51.5914439,31.4550385 C51.5432606,31.3832411 51.4900581,31.3185224 51.4509091,31.2345902 C51.4197907,31.1688602 51.4027257,31.0859393 51.378634,31.0111082 C51.3545424,30.9352659 51.3234239,30.8665023 51.3053552,30.7815589 C51.2913017,30.7067278 51.2902979,30.6167283 51.2812635,30.5348186 C51.2702214,30.4326843 51.2521527,30.3376286 51.2521527,30.2274045 C51.2521527,30.0342594 51.2692176,29.8360582 51.2993322,29.6358345 C51.306359,29.5913404 51.3194086,29.5468462 51.3274392,29.5023521 C51.3545424,29.3557236 51.3866646,29.2070727 51.4288251,29.059433 C51.4499053,28.9876356 51.473997,28.9178607 51.4980887,28.8470746 C51.5372376,28.7267381 51.5804019,28.6064017 51.6285853,28.4870764 C51.6667305,28.3950544 51.7078871,28.3050549 51.7500475,28.2140442 C51.7932118,28.1220222 51.8383837,28.0310114 51.8865671,27.9410119 C52.0200752,27.6902267 52.1646253,27.4455088 52.3302557,27.2179819 C52.3342709,27.2119145 52.3372824,27.2058472 52.3412977,27.200791 C52.3603703,27.1734878 52.3834581,27.1502295 52.4035345,27.1249487 C52.5139548,26.977309 52.6293941,26.8347255 52.7508564,26.7032655 C52.7930168,26.6577601 52.8381887,26.6203446 52.881353,26.5768617 C52.9827389,26.4727049 53.0861323,26.3705706 53.1945449,26.2805711 C53.3702135,26.1339426 53.5509011,25.9994489 53.7376117,25.8912473 C53.8691122,25.815405 53.9955935,25.7638322 54.1210711,25.7132707 C54.1672468,25.6940573 54.2154302,25.6677653 54.2606021,25.6525968 C54.3569688,25.6212487 54.4473126,25.6101251 54.5396641,25.591923 C54.5246068,25.9650671 54.5246068,26.3341663 54.4995113,26.7113553 C54.4924846,26.8094447 54.4884693,26.9075341 54.4804387,27.0056235 C54.4182019,27.8226979 54.3238428,28.6468509 54.2084034,29.4760601 C54.188327,29.6166211 54.1702583,29.7571822 54.149178,29.8987545 C54.0387578,30.6349304 53.9082612,31.3751513 53.7576881,32.1173946 C53.7275735,32.2640231 53.6954513,32.4106515 53.6643328,32.55728 C53.5037216,33.3136805 53.328053,34.0731148 53.1282928,34.832549 C53.1222699,34.8517624 53.1182546,34.8729983 53.1122317,34.8932229 C52.9054447,35.6749042 52.6715546,36.4555743 52.4246148,37.2362444 C52.378439,37.3828728 52.3332671,37.5305125 52.2850838,37.6781522 C52.0401516,38.4274741 51.7781545,39.1767961 51.4990925,39.9230843 C51.44589,40.0636454 51.3896761,40.2052177 51.3364736,40.34679 C51.0062167,41.2063361 50.6568873,42.0638597 50.2824623,42.9153159 C50.2322713,43.029585 50.1790688,43.1438541 50.1268701,43.2591344 C49.7373879,44.1328377 49.3278292,45.0014849 48.8921712,45.861031 C48.8409764,45.9611428 48.7877739,46.0602434 48.736579,46.1613665 C48.4545055,46.7124872 48.1623938,47.2585518 47.8642592,47.8005714 C47.7719078,47.9674245 47.6795563,48.1352888 47.586201,48.3011306 C47.2318524,48.9301161 46.8684695,49.5550567 46.4920369,50.1719074 C46.4639299,50.2174128 46.4348191,50.2619069 46.4057083,50.3074123 C46.0513598,50.8858363 45.6849654,51.4541479 45.3125481,52.0184146 C45.2081507,52.1741442 45.1037534,52.3298737 44.9993561,52.4856032 C44.6199121,53.0478475 44.2324374,53.6040244 43.8359284,54.1511002 C43.8078214,54.1895269 43.7807183,54.2299762 43.7526113,54.2684029 C43.1914758,55.0379495 42.6112677,55.7862602 42.0190137,56.5204137 C41.9527616,56.6023234 41.8865094,56.6862555 41.8202573,56.7681652 C41.2490835,57.4669256 40.6618487,58.1454614 40.0635718,58.8088287 C39.9712203,58.910963 39.8798727,59.0141086 39.7875212,59.1142204 C39.1962711,59.7603968 38.5919712,60.3843261 37.9776332,60.9900533 C37.8752436,61.0901652 37.7728539,61.190277 37.6694604,61.2903888 C37.0501033,61.8890374 36.4217118,62.4674614 35.7812744,63.022627 C35.6367243,63.1490309 35.4881589,63.272401 35.3416012,63.3957711 C35.0655506,63.6283542 34.7895,63.8579036 34.5114418,64.0803743 C34.3397885,64.2189129 34.1671314,64.3544178 33.9944743,64.4889115 C33.7124008,64.7083486 33.4283197,64.9217183 33.1422309,65.1320542 C32.9735891,65.2564356 32.8049473,65.380817 32.6353017,65.5021647 C32.3251212,65.7216017 32.0129331,65.9329489 31.700745,66.1412625 C31.5531834,66.2393518 31.4076295,66.3414861 31.2600679,66.4375531 C31.1877928,66.4830584 31.1135101,66.5245189 31.0412351,66.5710355 C31.0332045,66.5487884 31.0261778,66.5245189 31.0181472,66.5012606 C30.997067,66.4314857 30.9679562,66.3698006 30.9528989,66.2939583 C30.9368378,66.2140711 30.9358339,66.1190154 30.9267995,66.0320496 C30.9177652,65.9349714 30.8996964,65.8459831 30.8996964,65.7398039 C30.8996964,65.5466588 30.9167613,65.3474464 30.9478798,65.1462115 C30.9539027,65.1067735 30.9659485,65.0663242 30.9719715,65.025875 C31.0000784,64.8741904 31.0342083,64.7204833 31.0783764,64.5677875 C31.0954414,64.5010463 31.119533,64.4363275 31.1406133,64.3705975 C31.1817699,64.2441937 31.2279456,64.1167786 31.2801443,63.991386 C31.315278,63.9044202 31.354427,63.8184656 31.393576,63.7335222 C31.4387479,63.6374553 31.4859274,63.5444221 31.5351146,63.4513888 C31.6686227,63.2006036 31.8131729,62.9558858 31.9777994,62.7293701 C31.9818147,62.724314 31.9838223,62.7182466 31.9878376,62.7131904 C32.0119293,62.6818423 32.0390324,62.6535278 32.0621203,62.6221797 C32.1695291,62.4816186 32.2799493,62.3440912 32.3963924,62.2166762 C32.4415644,62.1681371 32.4907516,62.1266766 32.5369273,62.08016 C32.6363055,61.9800482 32.7356837,61.88297 32.8410848,61.7939817 C33.0167534,61.646342 33.197441,61.5128596 33.3851554,61.4036467 C33.5116368,61.3298268 33.6341029,61.2812878 33.7555651,61.2317375 C33.8077638,61.2105016 33.8609662,61.1801647 33.9121611,61.163985 C34.0617303,61.1144347 34.2052766,61.0830865 34.3448076,61.0689293 C34.3789375,61.0658956 34.4100559,61.0709518 34.4441858,61.0689293 C34.5445679,61.0658956 34.6429422,61.0689293 34.7352937,61.0840978 C34.8035535,61.0952213 34.8657903,61.1194909 34.9300348,61.1397155 C35.007329,61.1670187 35.0886385,61.1862321 35.1589059,61.2276925 L31.6214432,59.1566921 C31.5933362,59.1405124 31.5632216,59.1243327 31.533107,59.1101755 C31.4899427,59.0899509 31.4367403,59.0848947 31.3905645,59.068715 C31.3273238,59.0484904 31.2660908,59.0242209 31.197831,59.0130973 C31.1807661,59.0100636 31.1677164,59.0009626 31.1496477,58.9989401 C31.0723535,58.9888278 30.9890364,58.9948952 30.9067231,58.9979289 C30.8725933,58.9999513 30.8414748,58.9948952 30.8063411,58.9979289 C30.7993144,58.9989401 30.7922876,58.9969176 30.7832532,58.9979289 C30.6587795,59.0130973 30.5292867,59.0404006 30.3957786,59.0838835 C30.3887519,59.0859059 30.3817251,59.0909621 30.3736946,59.0939958 C30.3235036,59.1101755 30.2692973,59.1395012 30.2181024,59.160737 C30.1277586,59.1971413 30.0374148,59.2284895 29.9430557,59.279051 C29.9119372,59.2962419 29.879815,59.3144441 29.8466889,59.3326462 C29.6589745,59.4428704 29.4762792,59.577364 29.2996069,59.726015 C29.2885648,59.7361273 29.2745114,59.7421947 29.2624655,59.752307 C29.1771408,59.8251156 29.097839,59.9110702 29.0165295,59.9919686 C28.9633271,60.0445526 28.9091208,60.0920805 28.8569221,60.1476982 C28.7214064,60.2953378 28.5919136,60.4530898 28.4694475,60.6179204 C28.4644284,60.6239878 28.4584055,60.6300552 28.4543902,60.6371338 C28.4523825,60.6391563 28.4503749,60.64219 28.4483673,60.6442124 C28.4413405,60.6543247 28.4363214,60.6654483 28.4292947,60.6745493 C28.2676796,60.9000538 28.1251371,61.1397155 27.9946405,61.3864558 C27.9775756,61.4188151 27.9554915,61.4461184 27.9384266,61.4784777 C27.9103196,61.5340954 27.8892394,61.5927468 27.86314,61.6483645 C27.8199758,61.742409 27.7778153,61.8354422 27.7396701,61.9294866 C27.7205976,61.9729696 27.6975097,62.0164525 27.6804447,62.0609466 C27.651334,62.1398226 27.6302537,62.2186986 27.6051582,62.2965634 C27.5820704,62.3622934 27.5599863,62.4280234 27.5409137,62.4927421 C27.5328832,62.5240903 27.5198335,62.5554384 27.5107991,62.5867866 C27.4786769,62.7091455 27.4575966,62.8304932 27.4355126,62.9528521 C27.4284859,62.9943126 27.41644,63.035773 27.4104171,63.0772335 C27.4094133,63.0873458 27.4064018,63.0974581 27.4043942,63.1075704 C27.3762872,63.2976818 27.3622337,63.4857707 27.3632375,63.6688034 L27.3632375,63.6829607 C27.3642414,63.8032971 27.3823101,63.9084651 27.3953598,64.017678 C27.4033903,64.083408 27.4033903,64.1592503 27.4154362,64.2209354 C27.4375202,64.3341932 27.4766692,64.4302601 27.5128068,64.5293607 C27.5308755,64.5758774 27.5389061,64.631495 27.5599863,64.674978 C27.6071659,64.7771123 27.6694027,64.8600332 27.7316396,64.9429541 C27.751716,64.9692461 27.7657695,65.0056504 27.7878535,65.0299199 C27.8761897,65.131043 27.9775756,65.2149752 28.0889996,65.2796939 L30.6768483,66.7955287 C30.4088283,66.9623818 30.1408083,67.1353022 29.8697768,67.2930542 C29.4923404,67.5124913 29.1189192,67.7157487 28.7454981,67.9129386 C28.5778601,68.0019269 28.4112259,68.0848479 28.2435879,68.1697912 C28.0046787,68.2911389 27.7667733,68.4104641 27.5308755,68.5216995 C27.3612299,68.6015867 27.1925881,68.677429 27.0239463,68.7542826 C26.7920638,68.8574281 26.5611851,68.9585512 26.3303065,69.0536069 C26.1626685,69.1233818 25.9960343,69.190123 25.8294001,69.255853 C25.5975177,69.3458525 25.3656352,69.4318071 25.1357603,69.5147281 C24.9781605,69.5703457 24.8195569,69.6269747 24.6639648,69.6795587 C24.5143956,69.729109 24.366834,69.7715806 24.2192724,69.8180973 C23.6470948,69.9950626 23.0829478,70.1528146 22.5278352,70.2761848 C22.5077588,70.2812409 22.4866786,70.2873083 22.4666022,70.2923645 C21.8974361,70.4167458 21.3403158,70.5037117 20.7902223,70.5714641 C20.6767906,70.5866326 20.5613513,70.601801 20.4489234,70.6129246 C19.9028452,70.6705647 19.3647975,70.7019129 18.8377919,70.7039353 C18.7394175,70.7049466 18.6420469,70.7009017 18.5446763,70.6988792 C18.004621,70.6918006 17.4736001,70.6634861 16.9576365,70.5987674 C16.6073032,70.5552844 16.261989,70.4976443 15.9226977,70.4288806 C15.8313501,70.408656 15.7440177,70.382364 15.6546777,70.3611281 C15.4167723,70.3075329 15.1808746,70.2539377 14.9499959,70.1871965 C14.7381898,70.1255114 14.5334105,70.0506803 14.3276273,69.9778717 C14.22323,69.9424786 14.1148174,69.9121417 14.0124277,69.8727037 C13.7895796,69.7877603 13.5727545,69.689671 13.3569331,69.5925928 C13.2746198,69.5561885 13.1902989,69.5248404 13.1089895,69.4864136 C12.8088472,69.3438301 12.5157317,69.1870893 12.2286391,69.0202362 L15.7661018,71.0912367 C16.0501829,71.2580898 16.3422946,71.4117968 16.6414331,71.5553916 C16.6444445,71.5564028 16.6484598,71.5584253 16.6514713,71.5604477 C16.8130863,71.6373013 16.982732,71.7030313 17.1483623,71.7728062 C17.2818704,71.8294351 17.4113632,71.8911202 17.5458751,71.9426929 C17.7105017,72.004378 17.8811511,72.0559508 18.0497929,72.1115685 C18.1963507,72.1601075 18.3378894,72.2137028 18.4874586,72.2571857 C18.6952494,72.3178595 18.9110707,72.3653874 19.1248845,72.4159489 C19.2373123,72.4422409 19.3467287,72.4756115 19.4621681,72.4998811 C19.7321957,72.5554987 20.0082463,72.5969592 20.2873083,72.6363972 C20.3495452,72.6454983 20.4097744,72.6596555 20.4720113,72.6677454 C20.4730151,72.6687566 20.4750227,72.6687566 20.4760266,72.6687566 C20.4800418,72.6687566 20.4830533,72.6687566 20.4870686,72.6697678 C21.0070475,72.7344866 21.5430875,72.762801 22.0871581,72.7708909 C22.182521,72.7719021 22.2748725,72.775947 22.3712393,72.7750967 C22.9012564,72.7729133 23.4423155,72.7415652 23.9934128,72.683925 C24.0395886,72.6788689 24.081749,72.6808913 24.1279248,72.6758352 C24.1901616,72.6697678 24.2544061,72.6525769 24.316643,72.644487 C24.8727594,72.5757234 25.4359026,72.4877463 26.0100878,72.3613425 C26.020126,72.35932 26.0301642,72.3562863 26.0391986,72.3542638 C26.606357,72.2288712 27.1845575,72.0680856 27.7667733,71.886064 C27.8350331,71.8648282 27.902289,71.8526934 27.9705488,71.8314576 C28.0428239,71.807188 28.1181104,71.7788736 28.1903855,71.7535928 C28.3570196,71.6989863 28.5246576,71.6383125 28.6922956,71.5786499 C28.9121322,71.4997739 29.1309651,71.4188754 29.3528093,71.3319096 C29.5294817,71.2631459 29.7071579,71.1923598 29.8848341,71.1175287 C30.1026631,71.0275292 30.3214959,70.9314623 30.5413326,70.8333729 C30.7210164,70.7524744 30.9007002,70.671576 31.0823917,70.5856214 C31.3072474,70.4794421 31.5351146,70.3651731 31.761978,70.250904 C31.9376466,70.1619157 32.1123113,70.0749499 32.2879799,69.9819166 C32.3472053,69.9505685 32.404423,69.9242765 32.4636484,69.8929283 C32.7758365,69.7240528 33.0910361,69.5480987 33.4072395,69.3640547 C33.8760235,69.0920336 34.3407923,68.8028216 34.8025497,68.5045086 C34.9420807,68.4145091 35.0806079,68.3174309 35.2201389,68.2243977 C35.5403576,68.011028 35.8605762,67.7936134 36.1787873,67.5691202 C36.3434138,67.4508062 36.5070365,67.3294585 36.6706592,67.2091221 C36.9607633,66.9957524 37.2498635,66.779349 37.5359523,66.5568783 C37.7066018,66.4244071 37.8762474,66.2899134 38.0448892,66.1544085 C38.3259589,65.9299153 38.6030133,65.7003659 38.8800677,65.4667716 C38.9864726,65.3777833 39.0938814,65.2938511 39.1992825,65.2038516 C39.2404391,65.1684585 39.2795881,65.1280093 39.3207448,65.091605 C39.9611821,64.5364394 40.5925851,63.9549817 41.2139498,63.3553219 C41.3123242,63.259255 41.4096948,63.1641993 41.5070654,63.0681324 C42.1284301,62.4573491 42.7367452,61.8273523 43.3340183,61.1761198 C43.4203468,61.0830865 43.5046677,60.9880309 43.5899924,60.8929752 C44.1932884,60.2245517 44.7855424,59.5389373 45.3627391,58.8330983 C45.4259797,58.7562447 45.486209,58.67838 45.5484458,58.6015264 C46.1427074,57.8653505 46.7249232,57.1150173 47.2870626,56.3434483 C47.2930855,56.3353585 47.2991084,56.3282798 47.3051313,56.3212012 C47.3332383,56.2817632 47.3603414,56.241314 47.3884484,56.2008648 C47.7789345,55.66289 48.1593824,55.114803 48.5338074,54.5606486 C48.6402123,54.4028966 48.7456134,54.2451446 48.8520184,54.0853702 C49.2234319,53.5231259 49.5888225,52.9548143 49.943171,52.3784128 C49.971278,52.3329074 50.0003888,52.2884132 50.0294996,52.2418966 C50.4059322,51.6260571 50.7693151,51.0001053 51.1246675,50.3701086 C51.217019,50.2042668 51.3093704,50.0384249 51.4007181,49.8725831 C51.6958412,49.3376421 51.98193,48.8006786 52.2589844,48.2596702 C52.3041563,48.1716931 52.3543474,48.0867497 52.3985154,47.9987726 C52.4115651,47.9745031 52.4226071,47.9471999 52.434653,47.9229303 C52.8683033,47.0654067 53.2758544,46.2008045 53.6663405,45.3291236 C53.7165315,45.2148545 53.7687301,45.1026079 53.8189212,44.9883389 C54.1963576,44.129804 54.5486985,43.266213 54.880963,42.3985771 C54.90907,42.3257685 54.9421961,42.2539711 54.970303,42.1811625 C54.9913832,42.1235223 55.009452,42.0648709 55.0305322,42.0062196 C55.3105981,41.2599313 55.573599,40.5106094 55.8185312,39.7602762 C55.869726,39.601513 55.9179094,39.4457834 55.9681004,39.2880315 C56.2090173,38.5235411 56.4388921,37.7580394 56.6426676,36.9925378 L56.6537096,36.9510773 C56.6607364,36.9247853 56.6657555,36.8995046 56.6727822,36.8722013 C56.8685272,36.1259131 57.0411843,35.3816473 57.1987841,34.6373815 C57.2319101,34.4867081 57.26604,34.3350235 57.2961546,34.1843502"/>
      <polygon fill="#513689" points="46.136 30.312 42.599 28.241 32.274 34.247 35.811 36.317"/>
      <path fill="url(#awaiting-d)" d="M32.2310632,19.1561475 L31.1609908,19.7780544 C31.0867081,19.6870436 31.0184483,19.5889542 30.964242,19.4716515 C30.9572153,19.4585055 30.9552077,19.4403033 30.9491847,19.4261461 C30.8959823,19.3027759 30.8488027,19.1682822 30.8196919,19.0186201 C30.8096537,18.9680586 30.8106575,18.908396 30.8036308,18.855812 C30.7865659,18.7304194 30.7664894,18.6070492 30.7664894,18.4664881 C30.7664894,18.2753655 30.7835544,18.0781756 30.813669,17.8789631 C30.8216996,17.8314353 30.8347492,17.7839074 30.8427798,17.7363796 C30.8708868,17.5927848 30.9020052,17.4491901 30.9431618,17.3035729 C30.9622344,17.2327867 30.9883337,17.1620006 31.0104178,17.0912144 C31.0505706,16.9688555 31.0957425,16.8475078 31.1449297,16.7261601 C31.182071,16.6351494 31.2222239,16.5451498 31.2643843,16.4561615 C31.3075486,16.3641395 31.3527205,16.2731288 31.4009039,16.1841405 C31.5364196,15.9303216 31.6819735,15.6795364 31.8506154,15.4489758 C31.852623,15.4459421 31.8546306,15.4418972 31.8566383,15.4388635 C31.8726994,15.4186388 31.8897643,15.4004367 31.9058255,15.3802121 C32.0192572,15.2285275 32.1367041,15.0829103 32.2621817,14.9474053 C32.3133765,14.8907764 32.3695904,14.8422374 32.4227929,14.7906646 C32.5151444,14.6976314 32.6074959,14.6056094 32.7058702,14.5236997 C32.8815388,14.3740375 33.0632303,14.2415663 33.2519485,14.1303309 C33.3814413,14.0554999 33.5049112,14.0059496 33.6293849,13.955388 C33.6775683,13.9361747 33.7287631,13.9088714 33.7769465,13.8916805 C33.9255119,13.8421302 34.070062,13.8117933 34.2085892,13.797636 C34.2457306,13.7935911 34.2798604,13.7996585 34.315998,13.797636 C34.4153762,13.7946024 34.5107391,13.797636 34.6010829,13.8138157 C34.6683389,13.8249393 34.7285681,13.8471864 34.7918088,13.8684222 C34.8711106,13.8947142 34.9534239,13.91595 35.0246951,13.9574105 L31.4872324,11.88641 C31.4581216,11.8692191 31.428007,11.8530394 31.3978924,11.8398934 C31.355732,11.8196688 31.3055409,11.8146127 31.260369,11.7994442 C31.1951207,11.7771971 31.1308762,11.7539388 31.0616126,11.7418041 C31.0445477,11.7387704 31.031498,11.7296693 31.0134292,11.7276468 C30.9411542,11.719557 30.8608486,11.7246131 30.7825506,11.7266356 C30.7444054,11.7276468 30.7082679,11.7225907 30.6701227,11.7266356 C30.6620921,11.7276468 30.6550654,11.7256244 30.6470348,11.7266356 C30.5235649,11.7407928 30.3940721,11.7691073 30.260564,11.811579 C30.2535373,11.8136014 30.2455067,11.8186576 30.2394838,11.82068 C30.1923042,11.8368597 30.1421132,11.864163 30.0939299,11.8843876 C29.9995708,11.9218031 29.9072193,11.9541625 29.8098487,12.0067465 C29.7787303,12.0239374 29.7456042,12.0421396 29.7144858,12.0593305 C29.5277752,12.1695546 29.3460837,12.3030371 29.1704152,12.4506768 C29.1573655,12.4618003 29.1443159,12.4678677 29.1312662,12.47798 C29.0409224,12.556856 28.9566015,12.6468555 28.8702729,12.7328101 C28.8220896,12.780338 28.7729024,12.8228097 28.7267266,12.8733712 C28.5902071,13.0220221 28.4607143,13.1787629 28.339252,13.3435935 C28.3332291,13.3516833 28.3262023,13.3587619 28.3201794,13.3658405 C28.3201794,13.367863 28.3191756,13.3688742 28.3181718,13.3698855 C28.3141565,13.3749416 28.3121489,13.381009 28.3081336,13.3870764 C28.1414994,13.6156145 27.9959455,13.8623548 27.8624374,14.1141513 C27.8463762,14.1454994 27.8222846,14.1738139 27.8062234,14.2061732 C27.7771126,14.2628022 27.7570362,14.3224648 27.7299331,14.3790937 C27.685765,14.4731381 27.6436045,14.5661714 27.6054594,14.6622383 C27.5863868,14.7057212 27.5643027,14.7481929 27.5472378,14.792687 C27.5191308,14.8675181 27.4990544,14.9423492 27.4749627,15.0171803 C27.450871,15.0889776 27.4267794,15.1587526 27.4056991,15.2295387 C27.3986724,15.2588644 27.3856227,15.2892013 27.3775922,15.318527 C27.3474776,15.4338073 27.3274012,15.5500988 27.3063209,15.6643679 C27.2972865,15.712907 27.2842369,15.7624573 27.2762063,15.8089739 C27.2752025,15.8190862 27.272191,15.8291985 27.2711872,15.8382996 C27.2430802,16.0263885 27.2290268,16.2144774 27.2299804,16.3964989 L27.2299804,16.4106562 C27.2310344,16.5168354 27.2480993,16.6068349 27.2581376,16.7029018 C27.2671719,16.7848115 27.2681758,16.874811 27.2822292,16.9496421 C27.300298,17.0345855 27.3314164,17.1033492 27.3565119,17.1791915 C27.3795998,17.2540226 27.3966648,17.3359322 27.4277832,17.4036847 C27.4669322,17.4866056 27.5201346,17.5513244 27.568318,17.6221105 C27.5984326,17.6655934 27.6215205,17.7181774 27.6546466,17.7566042 C27.7429827,17.8587385 27.8443686,17.9426707 27.9557926,18.0073894 L31.0716508,19.8306384 L27.2450879,22.0563571 L27.3043133,42.9180463 L30.8407721,44.9890467 L30.7835544,24.1273576 L35.7685259,21.2281592 L32.2310632,19.1561475 Z"/>
      <path fill="#51357F" d="M10.5695249,54.8552201 C10.5313798,54.7530858 10.4912269,54.6519627 10.4671353,54.5336487 C10.4430436,54.4153347 10.4370207,54.2808411 10.4289901,54.1473586 C10.4259786,54.0897185 10.4139328,54.0391569 10.4139328,53.9794943 C10.4139328,53.7883717 10.4299939,53.592193 10.4611123,53.3939917 C10.4681391,53.342419 10.4831964,53.289835 10.4922308,53.237251 C10.5193339,53.0956787 10.5504523,52.9510727 10.591609,52.8074779 C10.6116854,52.737703 10.6347732,52.6699506 10.6588649,52.6011869 C10.6980139,52.4798392 10.7411782,52.360514 10.7903654,52.2411888 C10.8285106,52.1461331 10.870671,52.0530998 10.9148391,51.9600666 C10.9569996,51.8710783 11.0011677,51.7831012 11.0473434,51.6961354 C11.1768362,51.4493951 11.3203825,51.2087222 11.4830014,50.9832178 C11.491032,50.9720942 11.4970549,50.9609707 11.5050854,50.9498472 C11.5141198,50.9367012 11.5251618,50.9255776 11.5341962,50.9134429 C11.6536508,50.7516459 11.7801322,50.5989501 11.9126365,50.4553554 C11.9547969,50.4088387 12.0019765,50.370412 12.0451407,50.3259178 C12.1455228,50.2237835 12.2479124,50.1226605 12.3543174,50.0336722 C12.5309898,49.8860325 12.7116774,49.75255 12.8993918,49.6433371 C13.026877,49.5695173 13.1503469,49.519967 13.272813,49.4704167 C13.323004,49.4491808 13.3762064,49.4208664 13.4263975,49.4036754 C13.5749629,49.3551364 13.719513,49.322777 13.8560325,49.309631 C13.8941777,49.3055861 13.9283076,49.3106422 13.9644451,49.309631 C14.0628195,49.3065973 14.1601901,49.3086197 14.2515377,49.3237882 C14.3187937,49.3349117 14.3800267,49.3591813 14.4422636,49.3794059 C14.5215654,49.4056979 14.6038787,49.4259225 14.6741461,49.467383 L11.1356796,47.3963825 C11.1075726,47.3802028 11.077458,47.3640231 11.0473434,47.3498659 C11.0031753,47.3296413 10.9509766,47.3245851 10.9037971,47.3084054 C10.8415602,47.2881808 10.781331,47.2639113 10.7150789,47.253799 C10.6970101,47.2507653 10.6819528,47.240653 10.6648879,47.2386305 C10.5845822,47.2285182 10.4982537,47.2345856 10.412929,47.2376193 C10.3818105,47.2396418 10.3537036,47.2345856 10.3225851,47.2376193 C10.3135508,47.2386305 10.306524,47.2366081 10.2984935,47.2376193 C10.1730159,47.2527878 10.0445269,47.280091 9.91101882,47.3235739 C9.90399208,47.3255964 9.89596152,47.3306525 9.88793096,47.3336862 C9.83773994,47.3498659 9.78654511,47.3791916 9.73535027,47.3994162 C9.64299881,47.4358205 9.55265498,47.4671687 9.45729205,47.5187414 C9.4251698,47.5359323 9.39405137,47.5531233 9.36192913,47.5723366 C9.17421473,47.6815496 8.99352708,47.815032 8.81785853,47.9626717 C8.80380505,47.972784 8.79075538,47.9808738 8.7767019,47.9919974 C8.68535425,48.0708734 8.60002953,48.1618841 8.51269716,48.2498612 C8.46652143,48.2963778 8.41733424,48.3378383 8.37416997,48.3863774 C8.25672299,48.5127812 8.14730658,48.6482861 8.04090163,48.7878359 C8.01680994,48.8201953 7.98870298,48.849521 7.96461129,48.8828916 C7.78994656,49.1235645 7.64539644,49.3692936 7.51088452,49.62109 C7.49381957,49.6554719 7.46872407,49.6847976 7.45266294,49.7181682 C7.42154451,49.7778308 7.40046429,49.8395159 7.3713535,49.9001897 C7.33120069,49.9871555 7.2920517,50.0731101 7.25591417,50.1610872 C7.23684158,50.2076038 7.21174607,50.2531092 7.19468113,50.3006371 C7.16456652,50.3785018 7.14449012,50.458389 7.11939461,50.537265 C7.09630674,50.6040063 7.0742227,50.6697363 7.05414629,50.7374887 C7.04611573,50.7668144 7.03406988,50.7961401 7.02603932,50.826477 C6.99391707,50.9498472 6.97183303,51.0722061 6.94974898,51.194565 C6.94272224,51.2350142 6.93067639,51.2754634 6.92465347,51.3149014 C6.92264583,51.326025 6.91963437,51.3361373 6.91762673,51.3462496 C6.89052358,51.5373722 6.8764701,51.7244499 6.8764701,51.9084939 C6.87747392,52.0288303 6.89554268,52.1188298 6.90558089,52.215908 C6.91361145,52.2978177 6.91461527,52.3878172 6.92967257,52.4626483 C6.94774134,52.5475917 6.97885977,52.6163553 7.00295146,52.6921976 C7.02704314,52.7670287 7.04410809,52.8489384 7.07522652,52.9156796 C7.11437551,52.9996118 7.16657416,53.0653418 7.21576136,53.1361279 C7.24587596,53.1785996 7.26896383,53.2321948 7.3020899,53.2696104 C7.39142991,53.3707334 7.49281575,53.4546656 7.60423981,53.5203956 L11.1406987,55.591396 C11.0292746,55.525666 10.9278888,55.4417339 10.8395526,55.3406108 C10.8275067,55.3264536 10.8194762,55.3042065 10.8064265,55.2900493 C10.7331476,55.1990385 10.6658917,55.1009491 10.6116854,54.9856688 C10.5936166,54.9462309 10.5855861,54.8966805 10.5695249,54.8552201 Z"/>
      <path fill="url(#awaiting-e)" d="M10.3318203,75.8761781 C10.216381,75.7790999 10.1069645,75.6719095 9.99353285,75.5717977 C9.81384902,75.4130344 9.63014991,75.2573049 9.456489,75.0884294 C9.3330191,74.9691042 9.21858359,74.8376442 9.09912897,74.7132628 C8.94353683,74.5514659 8.78392941,74.3937139 8.63335636,74.2228159 C8.51189411,74.0842773 8.39946624,73.9346152 8.28201926,73.7910204 C8.14248824,73.6211336 7.99894194,73.456303 7.86443002,73.2793377 C7.74798687,73.1246194 7.6405781,72.9577663 7.52815023,72.7979919 C7.40267269,72.619004 7.27317988,72.4450724 7.15272144,72.2600171 C7.04230121,72.0870967 6.94091536,71.9030527 6.83350659,71.7250761 C6.72208254,71.5390097 6.60664321,71.3569881 6.49923444,71.1638431 C6.39684477,70.9757542 6.30148184,70.7765417 6.20310745,70.5813742 C6.10372924,70.3851954 6.00033575,70.1950841 5.90497283,69.9928379 C5.81161754,69.7895806 5.72629282,69.5751996 5.63695281,69.3658749 C5.54861663,69.1605951 5.45626516,68.9613826 5.3739519,68.7490242 C5.28963099,68.5346433 5.21635211,68.3081276 5.13805413,68.0876793 C5.05975615,67.8692535 4.9784467,67.6558838 4.90516782,67.4313906 C4.83188894,67.2038637 4.76864826,66.964202 4.70038849,66.7295965 C4.63514017,66.5020696 4.56386893,66.2795988 4.50363971,66.0449933 C4.43939521,65.8012867 4.38719656,65.5464566 4.3299788,65.2966826 C4.27476868,65.0590434 4.21755093,64.8284828 4.16836373,64.5867986 C4.11616508,64.3319685 4.07601227,64.0660148 4.03084036,63.8051173 C3.98767608,63.5563546 3.93949271,63.312648 3.90235136,63.0588291 C3.86320237,62.7928754 3.8350954,62.5188319 3.80196933,62.2468108 C3.76984708,61.9849021 3.73370955,61.7290607 3.70761022,61.4620958 C3.6815109,61.1870411 3.66544977,60.9028852 3.64436955,60.6227743 C3.62429314,60.3477196 3.59919763,60.077721 3.58614797,59.7976101 C3.57109066,59.5134543 3.5680792,59.2201974 3.56004864,58.9299742 C3.55201808,58.613459 3.5379646,58.3019999 3.53696077,57.9794173 C3.53495313,57.4090832 3.5480028,56.8357154 3.56908302,56.2572914 C3.57711359,56.058079 3.59317471,55.8558329 3.60220909,55.6556092 C3.62328932,55.2753864 3.6423619,54.8961749 3.67247651,54.5139297 C3.69054528,54.278313 3.71664461,54.0426962 3.73772483,53.8080907 C3.7708509,53.4551712 3.80397697,53.1022517 3.8451336,52.7493322 C3.87324057,52.5025919 3.90636664,52.2548404 3.93949271,52.0091113 C3.9786417,51.7027084 4.02080215,51.3963055 4.06697789,51.0888914 C4.20048598,50.2030533 4.35708195,49.3121591 4.53877342,48.4182311 C4.57491095,48.2402545 4.61405994,48.0612667 4.65220511,47.8822789 C4.84694625,46.97116 5.05774851,46.0580187 5.29866538,45.1448774 C5.56367393,44.1417365 5.84574743,43.1992695 6.14388206,42.258825 C6.19808835,42.087927 6.25028701,41.9160178 6.30650094,41.7441086 C6.60262793,40.8350122 6.92083896,39.9279382 7.25912639,39.023898 C7.31835179,38.8671572 7.37958483,38.7104165 7.44081786,38.5526645 C7.8383307,37.5121081 8.26194286,36.4755967 8.71366199,35.4461638 C8.77489502,35.3086364 8.83913952,35.1711091 8.90037256,35.0325705 C9.36915663,33.9849355 9.86002475,32.9443791 10.3800037,31.9149462 C10.445252,31.7865199 10.5135118,31.6591049 10.5797639,31.5316898 C10.9170475,30.8754011 11.2643693,30.2221461 11.6217294,29.5759696 C11.7311458,29.3767572 11.8395584,29.178556 11.9509824,28.981366 C12.377606,28.2259767 12.813264,27.4746323 13.2639793,26.7354226 C13.3041321,26.6707039 13.3462926,26.6069963 13.3854416,26.5422776 C13.8040347,25.8637418 14.2346736,25.1943071 14.673343,24.5309397 C14.8058473,24.3307161 14.9393554,24.1304924 15.0738673,23.9322912 C15.5125368,23.2830811 15.958233,22.6409496 16.415975,22.0099416 C16.4671699,21.9391555 16.5163571,21.8673581 16.5665481,21.7965719 C17.2350924,20.8814082 17.9277284,19.9884915 18.6344179,19.1147881 C18.7167311,19.0116426 18.7970368,18.9074859 18.8803538,18.8053516 C19.5649593,17.9690638 20.2676335,17.1550231 20.9843612,16.3622182 C21.0957852,16.2378368 21.2072093,16.1124442 21.3206409,15.9890741 C22.0283342,15.2164938 22.7520887,14.4691943 23.4868851,13.7451532 C23.6133665,13.6207718 23.7398478,13.4974017 23.867333,13.3750427 C24.6051409,12.6601026 25.3559985,11.9694321 26.1199057,11.307076 C26.3036048,11.1483128 26.4883078,10.9935945 26.6730107,10.8368537 C26.995237,10.5658439 27.3184672,10.2978677 27.6447087,10.035959 C27.8565148,9.86607224 28.0693247,9.69719672 28.2831384,9.53135488 C28.6164068,9.27349106 28.9516828,9.02068338 29.2879626,8.77293186 C29.4957533,8.62124726 29.7025403,8.4675402 29.9113349,8.31888928 C30.279737,8.05799176 30.6501467,7.80720655 31.0215602,7.55945503 C31.201244,7.43911858 31.379924,7.31473721 31.5606117,7.19844568 C32.1137167,6.84047001 32.6678255,6.49564035 33.228961,6.17002406 C33.6796763,5.90811531 34.1273801,5.66440872 34.5720725,5.42879197 C34.7798633,5.31856782 34.9866503,5.21542229 35.1934373,5.1102543 C35.4755108,4.968682 35.7565805,4.82812094 36.0366463,4.69564972 C36.2414257,4.59857157 36.4452012,4.50756081 36.6489767,4.41553881 C36.9270349,4.29115744 37.2040893,4.17082099 37.4791361,4.05554069 C37.6819078,3.97160854 37.8826718,3.89071009 38.0824321,3.81284532 C38.3584826,3.70464364 38.6335294,3.60250934 38.9065685,3.50441996 C39.1023135,3.43565627 39.2970546,3.36588136 39.4897881,3.30116259 C39.80298,3.19801706 40.1131605,3.10195015 40.423341,3.01093938 C40.55183,2.97352385 40.6813228,2.93206339 40.808808,2.89667032 C41.2524965,2.77330017 41.6931736,2.6620648 42.1288316,2.56700911 C42.6076539,2.46487481 43.0111897,2.39105497 43.411714,2.32734744 C43.5452221,2.30611159 43.6787302,2.2899319 43.8122383,2.27172975 C44.1003347,2.23128052 44.3884311,2.19487622 44.6725122,2.16656176 C44.830112,2.1513933 44.9857042,2.13925853 45.1412963,2.12712376 C45.4103202,2.10791038 45.6773363,2.09375315 45.9423449,2.08364084 C46.0909103,2.07858469 46.2394757,2.07352853 46.3860335,2.07150607 C46.6721222,2.06847238 46.9551996,2.07555099 47.2352654,2.0856633 C47.3537162,2.09071945 47.4731708,2.09071945 47.5906178,2.09779807 C47.986123,2.12004514 48.3786167,2.15341576 48.7630799,2.20195483 C48.8674772,2.21611206 48.9688631,2.23835914 49.0722566,2.25453883 C49.3784217,2.29903298 49.6835831,2.34453836 49.9817177,2.4052122 C50.4434751,2.5073465 50.8038465,2.59431234 51.1551836,2.69745787 C51.6309945,2.84509755 51.9602475,2.952288 52.2834776,3.07565815 C52.4330469,3.13228707 52.5765932,3.20206198 52.7231509,3.26273583 C52.9379685,3.35374659 53.1547937,3.43868997 53.3635883,3.5388018 C53.7229559,3.70969979 54.074293,3.89576624 54.4165957,4.09598992 L50.8791331,2.02498946 C50.538838,1.82678824 50.1915162,1.64274426 49.83516,1.47184627 C49.499884,1.31004936 49.1766539,1.17555568 48.8484046,1.04814061 C48.3886549,0.868141549 48.0192491,0.744771404 47.6428165,0.634547259 C47.2643762,0.523311883 46.8999895,0.434323582 46.5325912,0.356458819 C46.1451166,0.273537902 45.8409591,0.228032521 45.5347939,0.183538371 C45.4303966,0.16836991 45.3300145,0.145111604 45.2246134,0.131965605 C44.8381426,0.0824153014 44.4476565,0.0490446885 44.0521513,0.0267976133 C43.9357082,0.0197189985 43.8162535,0.0197189985 43.6988066,0.014662845 C43.4167331,0.00455053811 43.1346596,-0.00151684604 42.8485708,0.00151684604 C42.7010092,0.00252807673 42.5524438,0.00758423019 42.4048822,0.0136516143 C42.1398737,0.0217414599 41.8738613,0.0358986895 41.6058413,0.0561233034 C41.4492453,0.0682580717 41.2916455,0.0814040707 41.1340457,0.096572531 C41.0336637,0.105673607 40.937297,0.110729761 40.8369149,0.121853298 C40.6542196,0.142077912 40.4655014,0.173426064 40.2797947,0.199718062 C40.1442789,0.217920214 40.0087632,0.235111136 39.8712398,0.25634698 C39.4787461,0.320054514 39.0822371,0.392863124 38.6827166,0.477806502 C38.1557109,0.591064339 37.7170415,0.702299715 37.2753606,0.824658629 C37.1418525,0.861062934 37.0073405,0.904545854 36.8728286,0.94398385 C36.6560034,1.00769138 36.4411859,1.06634276 36.2223531,1.13712891 C36.1360245,1.16544337 36.0466845,1.19982522 35.9583483,1.22813967 C35.7605957,1.2948809 35.5618393,1.36566705 35.3620791,1.4364532 C35.0930553,1.53353134 34.8220238,1.63364318 34.5489847,1.7398224 C34.3472168,1.8186984 34.1444451,1.90060808 33.9406696,1.98555146 C33.6656228,2.10083176 33.3885684,2.22015698 33.111514,2.34453836 C32.9087423,2.43656035 32.7059706,2.52858234 32.5001875,2.62363803 C32.2191178,2.75712048 31.9370443,2.89768155 31.6549708,3.0412763 C31.4481838,3.14543307 31.2424006,3.24756737 31.0356137,3.35880274 C30.9653462,3.39520705 30.8970865,3.4265552 30.826819,3.46397073 C30.4503864,3.6672281 30.07295,3.87756409 29.6925021,4.09902361 C29.1313666,4.42565112 28.576254,4.76946956 28.0241528,5.12744522 C27.8424613,5.24373675 27.6627775,5.36912936 27.4820899,5.48946581 C27.112684,5.7362061 26.7432781,5.98598008 26.3768837,6.24586637 C26.1660815,6.39653974 25.9572868,6.55125803 25.7474884,6.70597633 C25.4122124,6.95271662 25.0789441,7.2024906 24.7486872,7.4593432 C24.5338697,7.62619626 24.320056,7.79507179 24.1072461,7.96495854 C23.7789968,8.22888975 23.4527552,8.49888835 23.1285213,8.77293186 C22.9980246,8.88315601 22.8645165,8.98529031 22.7350237,9.09753692 C22.6848327,9.14101984 22.6366493,9.18854768 22.5874621,9.2320306 C21.8205434,9.89742039 21.0666744,10.5911246 20.3248512,11.3090984 C20.2013813,11.4284237 20.0779114,11.5477489 19.9544415,11.6701078 C19.2166336,12.3961714 18.4908716,13.1475158 17.7801668,13.9221185 C17.6697466,14.042455 17.561334,14.1648139 17.4509137,14.2861616 C16.7321784,15.0830114 16.0264928,15.8980633 15.3408835,16.738396 C15.2605779,16.8364854 15.1822799,16.9376085 15.1019743,17.0356978 C14.3902657,17.9164798 13.6936144,18.8154639 13.0210548,19.7377063 C12.4468696,20.5315223 11.9851123,21.1959009 11.5313855,21.8683693 C11.3998851,22.0635368 11.2683846,22.2587044 11.1388918,22.4558944 C10.7012262,23.1172392 10.2715911,23.7846515 9.85500565,24.4611648 C9.8128452,24.5299285 9.76767328,24.5986922 9.72551283,24.6674559 C9.27580135,25.4036318 8.84215098,26.1509313 8.417535,26.9022757 C8.30309949,27.1055331 8.19067162,27.3108129 8.07723992,27.5150815 C7.72590282,28.1531681 7.38360011,28.7952996 7.05133559,29.4424872 C6.9971293,29.5476552 6.9379039,29.651812 6.88369761,29.7569799 C6.31754296,30.8824797 5.82567103,31.9260698 5.35487931,32.9777497 C5.29766156,33.1071872 5.23743234,33.2366248 5.1812184,33.3660623 C4.72749163,34.3944839 4.30588711,35.4309954 3.90636664,36.4715517 C3.87123293,36.5625625 3.82907248,36.652562 3.79494259,36.7435728 C3.76683562,36.8173926 3.74475157,36.8912125 3.71764843,36.9640211 C3.38237245,37.8609827 3.06616906,38.760978 2.77204972,39.6609733 C2.71483196,39.8409724 2.65962185,40.0209715 2.60240409,40.1999593 C2.30426946,41.1404038 2.02319978,42.0818596 1.77425235,43.0223042 C1.5243011,43.9657824 1.30948356,44.8981371 1.11173097,45.8284693 C1.07559344,45.9983561 1.03845209,46.1682428 1.0043222,46.3381296 C0.821626903,47.2361024 0.664027119,48.1310416 0.5295152,49.0229471 C0.460251601,49.4638437 0.434152273,49.6944043 0.404037665,49.9259761 C0.370911595,50.1777725 0.335777885,50.429569 0.306667097,50.6803542 C0.265510465,51.0363074 0.232384396,51.3912494 0.200262147,51.7441689 C0.178178101,51.9757407 0.154086414,52.2063013 0.135013828,52.4368619 C0.1038954,52.8413542 0.0828151735,53.243824 0.0617349475,53.6452826 C0.052700565,53.8222479 0.0396509013,54.0012358 0.0326241593,54.1771899 C0.010540113,54.7576363 -0.00150573043,55.3350491 0.000285319635,55.9084169 C0.00250955071,56.3452685 0.0165630347,56.5990874 0.0235897767,56.8599849 C0.031620339,57.1491969 0.0346317998,57.4424538 0.0486852838,57.7266096 C0.0627387678,58.0067205 0.0868304547,58.2757079 0.10690686,58.5507627 C0.127987086,58.8308736 0.144048211,59.1160406 0.170147538,59.3910954 C0.197250686,59.6600827 0.233388216,59.9189578 0.265510465,60.182889 C0.297632715,60.4518764 0.326743503,60.7238974 0.365892494,60.9858062 C0.403033844,61.2456924 0.452221038,61.4944552 0.496389131,61.7482741 C0.540557224,62.0041155 0.580710035,62.2640018 0.629897229,62.514787 C0.680088243,62.7615273 0.74031746,62.997144 0.795527576,63.2398394 C0.851741512,63.4845572 0.903940167,63.7343312 0.965173204,63.9729816 C1.02640624,64.2075871 1.09667366,64.4300579 1.16392962,64.658596 C1.23118558,64.8932015 1.29543008,65.1328632 1.36870896,65.3614014 C1.4399802,65.5848833 1.52229346,65.798253 1.59958762,66.0156676 C1.67788561,66.2371271 1.75317213,66.4626316 1.83648921,66.6780237 C1.92081012,66.8913934 2.01316158,67.0946508 2.10250159,67.3029643 C2.19083777,67.5092553 2.27515868,67.7216138 2.36851396,67.9228487 C2.46387689,68.1271173 2.56927802,68.3202624 2.66966005,68.5184636 C2.76703062,68.7095862 2.85938208,68.9067762 2.96177175,69.0918314 C3.07018434,69.2880101 3.1866275,69.4730653 3.30106301,69.6621655 C3.40546032,69.8371084 3.50684617,70.0191299 3.61626258,70.1880054 C3.73571719,70.3740719 3.86521001,70.5480036 3.99068754,70.7269914 C4.10311542,70.8867659 4.21152801,71.0536189 4.32797116,71.2093484 C4.46449072,71.3893475 4.61004466,71.5572118 4.75158332,71.7301323 C4.86702265,71.8706933 4.97744288,72.0163105 5.0968975,72.1518155 C5.24947818,72.3257471 5.41109325,72.4855216 5.56969685,72.6503522 C5.68714383,72.7727111 5.7995717,72.9011374 5.92003013,73.0184402 C6.09871014,73.1913606 6.28642454,73.3521463 6.47313511,73.5159657 C6.58054388,73.6110213 6.68494119,73.7131556 6.79536142,73.8051776 C7.00917514,73.982143 7.23302706,74.1449511 7.45487135,74.3087705 C7.54521517,74.3745005 7.63154372,74.4483204 7.72289136,74.5120279 C8.04009857,74.7355099 8.36634017,74.9438234 8.6996085,75.1389909 L12.2360674,77.2099914 C11.902799,77.0148238 11.5775613,76.8065103 11.2593502,76.5830283 C11.1649911,76.5172983 11.0746473,76.4394336 10.9802882,76.3706699 C10.7624592,76.2098842 10.5426225,76.0501098 10.3318203,75.8761781 Z"/>
      <g transform="translate(3.37 1.736)">
        <mask id="awaiting-h" fill="#fff">
          <use xlink:href="#awaiting-f"/>
        </mask>
        <path fill="url(#awaiting-g)" d="M30.0366573,67.6286252 C16.359606,75.5829658 5.19712439,69.1747969 5.15281879,53.3429692 C5.10778439,37.5121528 16.1979909,18.1612422 29.8750423,10.2069016 C43.5520937,2.25256101 54.7145752,8.6607299 54.7588748,24.4915464 C54.8029114,40.3233741 43.7137087,59.6742846 30.0366573,67.6286252 M29.8579773,4.43479684 C13.432466,13.9889044 0.112774646,37.2290082 0.165818296,56.2431789 C0.220183417,75.2583608 13.6262033,82.9538263 30.0527185,73.40073 C46.4792336,63.8466224 59.7979212,40.6065187 59.7458754,21.592348 C59.6915162,2.57312113 46.2824848,-5.11728827 29.8579773,4.43479684" mask="url(#awaiting-h)"/>
      </g>
      <path fill="url(#awaiting-i)" d="M33.3848543,61.4036467 C32.0076128,62.2045414 30.8963838,64.1450931 30.8993891,65.7398039 C30.9044144,67.3345147 32.023674,67.9766462 33.4019192,67.1757515 C34.7791607,66.3738455 35.8903897,64.4353163 35.8853875,62.8395943 C35.8813553,61.2448835 34.7620957,60.602752 33.3848543,61.4036467"/>
      <path fill="url(#awaiting-j)" d="M53.7377121,25.8911461 C52.3604707,26.6930521 51.2482378,28.6325925 51.2522422,30.2273033 C51.2562683,31.8220141 52.3765318,32.4641456 53.7537732,31.6632509 C55.1249917,30.8653899 56.2432475,28.9218045 56.2382453,27.3270937 C56.2342131,25.7323829 55.1089306,25.0932851 53.7377121,25.8911461"/>
      <polygon fill="url(#awaiting-k)" points="35.811 36.317 35.769 21.228 30.783 24.127 30.841 44.989 46.153 36.085 46.136 30.313"/>
      <path fill="url(#awaiting-l)" d="M12.899693,49.6431349 C11.5214477,50.4450408 10.4102186,52.3845813 10.413224,53.9792921 C10.4182492,55.5740029 11.5375088,56.2171456 12.9157541,55.4152396 C14.2939993,54.6133337 15.4052284,52.6737932 15.4002262,51.0790824 C15.3951902,49.4843716 14.2769344,48.8422402 12.899693,49.6431349"/>
      <path fill="url(#awaiting-m)" d="M33.2682104,19.9027391 C34.6454518,19.1018444 35.7576847,17.1612927 35.7536802,15.5665819 C35.7486503,13.9799609 34.6283868,13.3297396 33.2511454,14.1306343 C31.873904,14.9325403 30.7626749,16.8791593 30.7666794,18.4667915 C30.7717093,20.0615023 31.8899651,20.7036338 33.2682104,19.9027391"/>
    </g>
  </g>
</svg>
