<?xml version="1.0" encoding="UTF-8"?>
<svg width="108px" height="108px" viewBox="0 0 108 108" version="1.1" xmlns="http://www.w3.org/2000/svg" xmlns:xlink="http://www.w3.org/1999/xlink">
    <!-- Generator: sketchtool 61 (101010) - https://sketch.com -->
    <title>34AFC6A9-A17E-4D47-A3B7-9E71D35CB21C</title>
    <desc>Created with sketchtool.</desc>
    <defs>
        <linearGradient x1="42.2638487%" y1="0%" x2="42.2638487%" y2="100%" id="linearGradient-1">
            <stop stop-color="#1B0D2F" offset="0%"></stop>
            <stop stop-color="#0C0417" offset="100%"></stop>
        </linearGradient>
    </defs>
    <g id="Stream-List" stroke="none" stroke-width="1" fill="none" fill-rule="evenodd">
        <g id="Screens/404" transform="translate(-665.000000, -292.000000)">
            <g id="4---Templates/Product/Simple-Message-Display" fill="url(#linearGradient-1)">
                <path d="M156,0 L1440,0 L1440,0 L1440,880 L156,880 C120.653776,880 92,851.346224 92,816 L92,64 C92,28.653776 120.653776,6.49299601e-15 156,0 Z" id="Rectangle"></path>
            </g>
            <g id="Icons/Studio/36px" opacity="0.238537016" transform="translate(665.000000, 292.000000)" fill="#D3B7FB">
                <g id="Logos/Company-Logo/White/Symbol-Logo" transform="translate(6.000000, 6.000000)">
                    <g id="Symmetrical-Logo">
                        <path d="M48,0 C74.509668,0 96,21.490332 96,48 C96,74.509668 74.509668,96 48,96 C21.490332,96 0,74.509668 0,48 C0,21.490332 21.490332,0 48,0 Z M48.0000011,4.17391312 C23.7955211,4.17391312 4.17391312,23.7955211 4.17391312,48.0000011 C4.17391312,72.2044811 23.7955211,91.826089 48.0000011,91.826089 C72.2044811,91.826089 91.826089,72.2044811 91.826089,48.0000011 C91.826089,23.7955211 72.2044811,4.17391312 48.0000011,4.17391312 Z M83.7060783,30.3130424 C86.4381724,35.7705818 87.8804784,41.8048039 87.8804784,48.0408411 C87.8804784,69.9401319 70.1275959,87.6930149 48.2283055,87.6930149 C46.1227467,87.6930149 44.0373042,87.5287184 41.9852997,87.2040511 L41.2173915,87.0747912 L41.9507351,82.9658063 C44.0078158,83.33294 46.1057131,83.5191018 48.2283055,83.5191018 C67.8224074,83.5191018 83.7065654,67.6349434 83.7065654,48.0408411 C83.7065654,42.6639592 82.5108106,37.4620971 80.2404533,32.7258936 L79.973727,32.1814917 L83.7060783,30.3130424 Z M60.2716626,19.1930695 C71.7184341,24.0751868 79.3043475,35.3395083 79.3043475,48.0000004 C79.3043475,63.0754115 68.5745562,75.9130632 53.9754444,78.7343287 L53.5318698,78.8167477 L52.7988667,74.7077019 C65.6410993,72.4168062 75.1304344,61.1966232 75.1304344,48.0000004 C75.1304344,37.1709716 68.7277578,27.5211511 59.0240795,23.2022684 L58.6341792,23.0323661 L60.2716626,19.1930695 Z M48.0000014,16.6956525 L48.0000014,20.8695655 C33.0162755,20.8695655 20.8695657,33.0162749 20.8695657,48.0000003 C20.8695657,57.1705178 25.4529829,65.5556034 32.9186217,70.5561599 L33.2942977,70.8033552 L31.028628,74.3088212 C22.1638027,68.5792651 16.6956525,58.7549694 16.6956525,48.0000003 C16.6956525,30.7110864 30.7110869,16.6956525 48.0000014,16.6956525 Z M48,25.043478 L48,29.2173911 C37.6266515,29.2173911 29.2173911,37.6266515 29.2173911,48 C29.2173911,58.3733485 37.6266515,66.7826089 48,66.7826089 C58.3733485,66.7826089 66.7826089,58.3733485 66.7826089,48 L66.7826089,48 L70.956522,48 C70.956522,60.678537 60.678537,70.956522 48,70.956522 C35.321463,70.956522 25.043478,60.678537 25.043478,48 C25.043478,35.321463 35.321463,25.043478 48,25.043478 L48,25.043478 Z M44.3641678,35.7378711 C44.3641678,35.7378711 47.5407616,37.052389 52.9269062,40.5266014 C58.3130508,44.0008137 60.8123451,46.4087729 60.8123451,46.4087729 C61.7974656,47.2566204 61.8154895,48.6833868 60.8683848,49.5761196 C60.8683848,49.5761196 58.010683,52.5218897 52.9269062,55.8010672 C47.8431294,59.0802446 44.4125355,60.3003882 44.4125355,60.3003882 C42.8918342,60.9579518 41.4810689,60.098189 41.275978,58.4134391 C41.275978,58.4134391 40.6956511,55.0467228 40.6956511,47.9914557 C40.6956511,40.9361885 41.2787039,37.5046855 41.2787039,37.5046855 C41.4688833,35.8203188 42.8636986,35.029594 44.3641678,35.7378711 Z M48,8.34782624 L48,12.5217393 C33.6135432,12.5217393 20.8301888,21.163734 15.320884,34.1626136 L15.1456946,34.5834382 L11.2821665,33.0039761 C17.3280648,18.2150815 31.7490945,8.34782624 48,8.34782624 Z" id="Combined-Shape"></path>
                    </g>
                </g>
            </g>
        </g>
    </g>
</svg>
