<svg xmlns="http://www.w3.org/2000/svg" width="321" height="283" viewBox="0 0 321 283">
  <defs>
    <linearGradient id="worker-a" x1="55.91%" x2="64.677%" y1="39.879%" y2="65.94%">
      <stop offset="0%" stop-color="#240A49"/>
      <stop offset="100%" stop-color="#352054"/>
    </linearGradient>
    <filter id="worker-b" width="270.9%" height="242.2%" x="-85.4%" y="-71.1%" filterUnits="objectBoundingBox">
      <feOffset dx="-20" dy="5" in="SourceAlpha" result="shadowOffsetOuter1"/>
      <feGaussianBlur in="shadowOffsetOuter1" result="shadowBlurOuter1" stdDeviation="7.5"/>
      <feColorMatrix in="shadowBlurOuter1" result="shadowMatrixOuter1" values="0 0 0 0 0   0 0 0 0 0   0 0 0 0 0  0 0 0 0.12 0"/>
      <feMerge>
        <feMergeNode in="shadowMatrixOuter1"/>
        <feMergeNode in="SourceGraphic"/>
      </feMerge>
    </filter>
    <linearGradient id="worker-c" x1="78.294%" x2="78.294%" y1="100%" y2="6.904%">
      <stop offset="0%" stop-color="#4E2E62"/>
      <stop offset="100%" stop-color="#3D3083"/>
    </linearGradient>
    <linearGradient id="worker-d" x1="71.868%" x2="71.868%" y1="94.701%" y2="0%">
      <stop offset="0%" stop-color="#884FAC"/>
      <stop offset="100%" stop-color="#644FD9"/>
    </linearGradient>
  </defs>
  <g fill="none" fill-rule="evenodd">
    <path fill="url(#worker-a)" d="M310.16583,76.8338349 L132.481838,175.23879 L132.481838,175.23879 C119.069108,182.949566 97.2649134,182.953841 83.7560158,175.23879 L10.1763199,129.834152 C-3.32501389,122.125513 -3.40281269,109.621956 10.0088364,101.91118 L33.5472963,88.381515 C41.6142473,83.7443199 91.5061919,56.9040554 183.22313,7.86072147 C202.76842,-2.59063198 226.27424,-2.44435317 245.687941,8.24944585 L310.128024,43.745474 C319.270889,48.7817088 322.59997,60.2761402 317.563735,69.419005 C315.845559,72.5382106 313.281101,75.1085353 310.16583,76.8338349 Z" opacity=".6" transform="translate(.275 101.177)"/>
    <path fill="#321C53" d="M159.556136,120.749811 C159.896004,120.196159 160.282315,119.709684 160.699482,119.32228 L155.919007,85.1515766 C155.645661,85.3619614 155.365192,85.5437049 155.079351,85.6932261 C152.199994,87.1993919 149.865815,84.8655843 149.865815,80.480521 C149.865815,76.0954577 152.199994,71.319673 155.079351,69.8135073 C157.958707,68.3073415 160.292887,70.6411491 160.292887,75.0262124 C160.292887,78.2764777 159.010497,81.741404 157.174234,83.9304284 L162.009953,118.496015 C162.350694,118.379318 162.676322,118.345596 162.979508,118.387521 L192.8307,16.7647072 C191.541603,15.9935245 190.70518,14.1036108 190.70518,11.4786556 C190.70518,7.09359228 193.039359,2.31780754 195.918715,0.8116418 C198.798072,-0.694523942 201.132251,1.63928363 201.132251,6.02434691 C201.132251,10.4094102 198.798072,15.1851949 195.918715,16.6913607 C195.229364,17.0519542 194.571261,17.1924485 193.968957,17.1373894 L164.062429,118.948583 C164.42457,119.314466 164.706395,119.843997 164.879153,120.508429 L232.848811,69.6415089 C232.848223,69.592736 232.847928,69.5437013 232.847928,69.4944074 C232.847928,65.1093441 235.182108,60.3335594 238.061464,58.8273937 C240.94082,57.3212279 243.275,59.6550355 243.275,64.0400988 C243.275,68.4251621 240.94082,73.2009468 238.061464,74.7071125 C235.662376,75.9620541 233.641765,74.5511826 233.034446,71.5091494 L165.068989,122.372926 C165.056293,122.850498 165.003196,123.33333 164.914836,123.810911 L221.298604,148.062177 C222.245229,146.091751 223.566206,144.485019 225.027624,143.720564 C227.906981,142.214398 230.24116,144.548206 230.24116,148.933269 C230.24116,153.318332 227.906981,158.094117 225.027624,159.600283 C222.148268,161.106449 219.814088,158.772641 219.814088,154.387578 C219.814088,152.945193 220.066637,151.460535 220.508065,150.063869 L164.297383,125.887049 C164.271977,125.948058 164.246035,126.00866 164.219574,126.068826 L181.610328,159.470953 L181.281617,159.95487 C181.90759,159.222235 182.596274,158.637822 183.319337,158.259594 C186.198693,156.753428 188.532873,159.087236 188.532873,163.472299 C188.532873,167.857362 186.198693,172.633147 183.319337,174.139313 C180.439981,175.645479 178.105801,173.311671 178.105801,168.926608 C178.105801,166.141849 179.047165,163.199515 180.471703,161.037072 L163.188669,127.84184 C162.711608,128.466523 162.170183,128.961576 161.596271,129.261785 C161.577165,129.271779 161.558096,129.281519 161.539063,129.291007 L150.921005,212.588382 C153.074524,212.438021 154.64489,214.654739 154.64489,218.25148 C154.64489,222.636543 152.31071,227.412328 149.431354,228.918493 C146.551997,230.424659 144.217818,228.090852 144.217818,223.705788 C144.217818,219.320725 146.551997,214.54494 149.431354,213.038774 C149.499157,213.003307 149.566658,212.969969 149.633833,212.938737 L160.262805,129.555749 C159.572172,129.479689 158.994111,129.01527 158.613217,128.247071 L96.0884348,195.775139 C96.3072578,196.537242 96.4270718,197.425438 96.4270718,198.418926 C96.4270718,202.80399 94.0928923,207.579774 91.2135359,209.08594 C88.3341795,210.592106 86,208.258298 86,203.873235 C86,199.488172 88.3341795,194.712387 91.2135359,193.206221 C92.9701911,192.287331 94.5239287,192.797697 95.4685073,194.331144 L158.165569,126.617009 C158.135967,126.354526 158.12058,126.077348 158.12058,125.786648 C158.12058,124.74371 158.318637,123.66762 158.660596,122.669179 L112.785844,90.7745602 C111.883388,92.3858173 110.724659,93.6767075 109.460912,94.3377625 C106.581555,95.8439283 104.247376,93.5101207 104.247376,89.1250574 C104.247376,84.7399941 106.581555,79.9642094 109.460912,78.4580437 C112.340268,76.9518779 114.674448,79.2856855 114.674448,83.6707488 C114.674448,85.413597 114.305723,87.2181664 113.680596,88.8546452 L159.556136,120.749811 Z M157.686119,76.3897895 C157.686119,74.1972579 156.519029,73.0303541 155.079351,73.783437 C153.639673,74.5365199 152.472583,76.9244122 152.472583,79.1169439 C152.472583,81.3094755 153.639673,82.4763793 155.079351,81.7232964 C155.191598,81.6645807 155.302189,81.5959271 155.410699,81.5182031 L155.399384,81.4373265 L156.140243,80.8257937 C157.05118,79.7304427 157.686119,78.0069745 157.686119,76.3897895 Z M238.061464,70.7371828 C239.501142,69.9840999 240.668232,67.5962076 240.668232,65.4036759 C240.668232,63.2111443 239.501142,62.0442405 238.061464,62.7973234 C236.720142,63.4989569 235.615436,65.6196552 235.470753,67.679308 L235.569545,67.6053742 L235.760278,69.4692001 L235.653233,69.54931 C236.045353,70.7812621 236.975919,71.3050217 238.061464,70.7371828 Z M109.460912,90.3678328 C110.90059,89.6147499 112.06768,87.2268576 112.06768,85.0343259 C112.06768,82.8417943 110.90059,81.6748905 109.460912,82.4279734 C108.021233,83.1810563 106.854144,85.5689486 106.854144,87.7614803 C106.854144,89.9540119 108.021233,91.1209157 109.460912,90.3678328 Z M195.918715,12.721431 C197.358394,11.9683481 198.525483,9.58045571 198.525483,7.38792407 C198.525483,5.19539243 197.358394,4.02848865 195.918715,4.78157152 C194.479037,5.53465439 193.311948,7.92254676 193.311948,10.1150784 C193.311948,12.30761 194.479037,13.4745138 195.918715,12.721431 Z M149.431354,224.948564 C150.871032,224.195481 152.038122,221.807588 152.038122,219.615057 C152.038122,217.422525 150.871032,216.255621 149.431354,217.008704 C147.991675,217.761787 146.824586,220.149679 146.824586,222.342211 C146.824586,224.534743 147.991675,225.701646 149.431354,224.948564 Z M225.027624,155.630353 C226.467302,154.87727 227.634392,152.489378 227.634392,150.296846 C227.634392,148.104315 226.467302,146.937411 225.027624,147.690494 C223.587946,148.443577 222.420856,150.831469 222.420856,153.024001 C222.420856,155.216532 223.587946,156.383436 225.027624,155.630353 Z M91.2135359,205.11601 C92.6532141,204.362928 93.8203039,201.975035 93.8203039,199.782504 C93.8203039,197.589972 92.6532141,196.423068 91.2135359,197.176151 C89.7738577,197.929234 88.606768,200.317126 88.606768,202.509658 C88.606768,204.70219 89.7738577,205.869093 91.2135359,205.11601 Z M183.319337,170.169383 C184.759015,169.4163 185.926105,167.028408 185.926105,164.835876 C185.926105,162.643345 184.759015,161.476441 183.319337,162.229524 C181.879659,162.982607 180.712569,165.370499 180.712569,167.563031 C180.712569,169.755562 181.879659,170.922466 183.319337,170.169383 Z"/>
    <g filter="url(#worker-b)" transform="translate(129.2 75.804)">
      <path fill="url(#worker-c)" d="M35.5025025,4.82007904 C45.3865275,-0.824679608 54.3572775,-1.33947839 60.8372775,2.38429958 L60.8372775,2.38429958 L67.9733775,6.48666499 C61.4933775,2.76288701 52.5226275,3.27568269 42.6406275,8.92244445 C23.0001525,20.1358436 7.0715025,47.4261885 7.1342775,69.7508284 C7.1383275,71.171032 7.2112275,72.5351486 7.3428525,73.8471844 C7.4603025,75.0450431 7.6324275,76.192824 7.8531525,77.2945335 C7.9139025,77.6070184 8.0030025,77.8914597 8.0718525,78.1979353 C8.2500525,78.9751412 8.4404025,79.7443347 8.6692275,80.471463 C8.7866775,80.8460442 8.9243775,81.1965881 9.0560025,81.5571476 C9.2767275,82.1741049 9.5075775,82.7830497 9.7667775,83.3599449 C9.9287775,83.7205043 10.1029275,84.0630358 10.2791025,84.4075704 C10.5504525,84.9424003 10.8359775,85.457199 11.1417525,85.9519667 C11.3402025,86.272464 11.5406775,86.5889551 11.7512775,86.8934276 C12.0793275,87.3681642 12.4296525,87.8148573 12.7880775,88.2475286 C13.0108275,88.513942 13.2275025,88.7883678 13.4583525,89.0387563 C13.8714525,89.4834463 14.3088525,89.8860711 14.7563775,90.2786803 C14.9690025,90.4689755 15.1715025,90.6752957 15.3922275,90.8515692 C16.0746525,91.3984177 16.7874525,91.8971916 17.5387275,92.3278599 L17.5387275,92.3278599 L10.4026275,88.2274976 C9.6513525,87.7948262 8.9405775,87.2960523 8.2601775,86.7512069 C8.0333775,86.568924 7.8248025,86.3585977 7.6061025,86.1642962 C7.1666775,85.7756932 6.7333275,85.3790778 6.3283275,84.9424003 C6.0914025,84.6860024 5.8686525,84.4055673 5.6438775,84.1351477 C5.2895025,83.7064826 4.9452525,83.2678019 4.6212525,82.8010777 C4.4066025,82.4885928 4.2000525,82.1660924 3.9995775,81.8355796 C3.6998775,81.3508274 3.4184025,80.8440411 3.1511025,80.3192267 C2.9708775,79.9686828 2.7926775,79.6161358 2.6286525,79.2455608 C2.3735025,78.6786812 2.1446775,78.0837581 1.9280025,77.4768163 C1.7943525,77.1062413 1.6505775,76.7456819 1.5311025,76.3630882 C1.3063275,75.6459755 1.1220525,74.8908038 0.9458775,74.1276196 C0.8729775,73.8111285 0.7818525,73.5126654 0.7150275,73.1881619 C0.5024025,72.1104897 0.3302775,70.9927554 0.2108025,69.8249434 C0.2087775,69.798903 0.2087775,69.7708594 0.2067525,69.7468221 C0.0771525,68.4347863 0.0042525,67.0706697 1.75642223e-05,65.648463 C-0.0625725,43.3258262 15.8640525,16.0354813 35.5025025,4.82007904 Z M55.7468325,11.0465403 L62.8829325,15.1509088 C63.4843575,15.4954434 64.0533825,15.8940619 64.5960825,16.3307395 C64.7722575,16.4689539 64.9302075,16.6312057 65.0982825,16.7794357 C65.4567075,17.0959268 65.8110825,17.4204303 66.1431825,17.7769835 C66.3254325,17.9752912 66.4935075,18.1876207 66.6676575,18.397947 C66.9592575,18.748491 67.2427575,19.1090504 67.5080325,19.4936472 C67.6720575,19.732017 67.8300075,19.9804024 67.9839075,20.230791 C68.2309575,20.6314126 68.4618075,21.0480591 68.6845575,21.4807304 C68.8182075,21.75115 68.9538825,22.0195665 69.0814575,22.2979985 C69.2920575,22.7687289 69.4803825,23.2634966 69.6606075,23.7662768 C69.7618575,24.0447088 69.8691825,24.3131253 69.9603075,24.603576 C70.1466075,25.2005022 70.3045575,25.8314812 70.4483325,26.4724758 C70.4989575,26.6968239 70.5657825,26.9091534 70.6123575,27.1395108 C70.7844825,28.0048535 70.9221825,28.8982397 71.0173575,29.8356943 L71.0173575,29.8356943 L71.0214075,29.9078062 C71.1246825,30.9514256 71.1813825,32.0391133 71.1855831,33.1708693 C71.2360575,50.9965284 58.5170325,72.7743197 42.8475825,81.7242068 C34.9521075,86.2332031 27.7876575,86.6458434 22.6137825,83.6712279 L22.6137825,83.6712279 L15.4756575,79.5688624 C20.6515575,82.543478 27.8180325,82.1288346 35.7114825,77.6218414 C51.3829575,68.6739574 64.0999575,46.894163 64.0513575,29.0685039 C64.0473075,27.938751 63.9885825,26.8530664 63.8873325,25.8074439 C63.7921575,24.8479551 63.6524325,23.9265254 63.4762575,23.0411516 C63.4296825,22.8007787 63.3608325,22.5824399 63.3081825,22.3500793 C63.1644075,21.7170972 63.0105075,21.0981368 62.8262325,20.5072199 C62.7330825,20.2107599 62.6237325,19.934331 62.5204575,19.6478865 C62.3422575,19.1531188 62.1559575,18.6663635 61.9494075,18.2036456 C61.8198075,17.9192042 61.6821075,17.6427753 61.5403575,17.3703526 C61.3236825,16.9416874 61.0948575,16.5290472 60.8518575,16.1344349 C60.6939075,15.8800401 60.5339325,15.6276485 60.3678825,15.3872756 C60.1026075,15.006685 59.8251825,14.6481287 59.5356075,14.2995879 C59.3594325,14.0892615 59.1873075,13.8709227 59.0030325,13.6746181 C58.6729575,13.3180649 58.3226325,12.9955645 57.9662325,12.6790734 C57.7961325,12.5288403 57.6361575,12.3645854 57.4599825,12.226371 C56.9132325,11.7896934 56.3462325,11.3910749 55.7468325,11.0465403 L55.7468325,11.0465403 Z M28.5761925,36.3451948 L48.3685425,38.0237994 L55.5046425,42.1261648 L35.7122925,40.4475602 L35.7851925,66.3717853 L28.6511175,62.2694199 L28.5761925,36.3451948 Z"/>
      <path fill="url(#worker-d)" d="M42.638805,8.92144289 C62.281305,-2.29395941 78.311205,6.74206127 78.3761899,29.064698 C78.43878,51.3873348 62.512155,78.6776796 42.87168,89.8950851 C23.231205,101.110487 7.19928,92.0724636 7.13429509,69.7498268 C7.071705,47.4271901 23.000355,20.1368452 42.638805,8.92144289 Z M71.1853928,33.1710696 C71.134605,15.3454106 58.332555,8.14423695 42.663105,17.0921209 C26.981505,26.0480172 14.260455,47.8258086 14.3109294,65.6534707 C14.36373,83.4791298 27.167805,90.6803034 42.84738,81.7244071 C58.51683,72.7745201 71.23788,50.9967287 71.1853928,33.1710696 Z M35.7126975,40.4483614 L55.5050475,42.126966 L35.7855975,66.3725865 L35.7126975,40.4483614 Z"/>
    </g>
  </g>
</svg>
