<svg xmlns="http://www.w3.org/2000/svg" xmlns:xlink="http://www.w3.org/1999/xlink" width="213" height="156" viewBox="0 0 213 156">
  <defs>
    <linearGradient id="started-c" x1="55.91%" x2="64.677%" y1="39.664%" y2="66.28%">
      <stop offset="0%" stop-color="#240A49"/>
      <stop offset="100%" stop-color="#352054"/>
    </linearGradient>
    <path id="started-b" d="M206.315701,85.8118754 L88.0113262,152.02582 C79.1008813,157.202608 64.6157553,157.205478 55.6414233,152.02582 L6.76040904,121.542489 C-2.20889812,116.367137 -2.260582,107.972618 6.64914512,102.795831 L22.286391,93.7124132 C27.640669,90.6019372 60.730489,72.6117743 121.555851,39.7419246 L121.555851,39.7419251 C134.625913,32.6789018 150.397408,32.7775913 163.378056,40.003626 L206.290515,63.8920267 C212.347396,67.2637561 214.524142,74.9071552 211.152412,80.9640363 C210.020678,82.997053 208.346111,84.675472 206.315701,85.8118754 Z"/>
    <filter id="started-a" width="169.1%" height="221.1%" x="-34.5%" y="-33.4%" filterUnits="objectBoundingBox">
      <feOffset dy="33" in="SourceAlpha" result="shadowOffsetOuter1"/>
      <feGaussianBlur in="shadowOffsetOuter1" result="shadowBlurOuter1" stdDeviation="19"/>
      <feColorMatrix in="shadowBlurOuter1" values="0 0 0 0 0.0980392157   0 0 0 0 0.0156862745   0 0 0 0 0.219607843  0 0 0 0.12 0"/>
    </filter>
    <filter id="started-d" width="224.3%" height="209.5%" x="-62.2%" y="-54.8%" filterUnits="objectBoundingBox">
      <feOffset dx="-14" dy="4" in="SourceAlpha" result="shadowOffsetOuter1"/>
      <feGaussianBlur in="shadowOffsetOuter1" result="shadowBlurOuter1" stdDeviation="5"/>
      <feColorMatrix in="shadowBlurOuter1" result="shadowMatrixOuter1" values="0 0 0 0 0   0 0 0 0 0   0 0 0 0 0  0 0 0 0.12 0"/>
      <feMerge>
        <feMergeNode in="shadowMatrixOuter1"/>
        <feMergeNode in="SourceGraphic"/>
      </feMerge>
    </filter>
    <linearGradient id="started-e" x1="50%" x2="50%" y1="0%" y2="100%">
      <stop offset="0%" stop-color="#7234C8"/>
      <stop offset="100%" stop-color="#4E238E"/>
    </linearGradient>
    <linearGradient id="started-f" x1="50%" x2="50%" y1="0%" y2="100%">
      <stop offset="0%" stop-color="#7234C8"/>
      <stop offset="100%" stop-color="#4E238E"/>
    </linearGradient>
  </defs>
  <g fill="none" fill-rule="evenodd">
    <g opacity=".6">
      <use fill="#000" filter="url(#started-a)" xlink:href="#started-b"/>
      <use fill="url(#started-c)" xlink:href="#started-b"/>
    </g>
    <g transform="translate(43.497)">
      <g fill="#341D55">
        <polygon points=".121 113.376 .125 114.834 27.059 99.288 27.152 132.386 .22 147.933 .223 149.407 28.429 133.127 28.327 97.096"/>
        <polygon points="0 70.988 .005 72.448 26.938 56.903 27.033 90 .099 105.547 .102 107.006 28.308 90.727 28.207 54.708"/>
        <path d="M87.5857794 97.5069931L87.4925078 64.4098897 35.7518931 94.2722345 35.8451646 127.369338 87.5857794 97.5069931 87.5857794 97.5069931zM34.4765836 93.5460276L88.7588488 62.215131 88.8610888 98.2475448 34.5788236 129.578441 34.4765836 93.5460276zM87.4648851 55.1203586L87.3716135 22.0232552 35.6327924 51.8856 35.7242703 84.9827034 87.4648851 55.1203586 87.4648851 55.1203586zM34.3556893 51.1593931L88.6379545 19.8284966 88.7419882 55.8465655 34.4579293 87.1774621 34.3556893 51.1593931z"/>
        <polygon points="94.909 58.667 95.011 94.697 123.217 78.418 123.213 76.944 96.29 92.483 96.195 59.386 123.12 43.847 123.115 42.387"/>
        <polygon points="122.995 .001 94.787 16.28 94.891 52.296 123.097 36.017 123.093 34.557 96.168 50.098 96.077 17.003 122.998 1.46"/>
      </g>
      <g filter="url(#started-d)" transform="translate(41.703 23.31)">
        <path fill="url(#started-e)" d="M62.0844328,26.4409241 C62.0763613,26.9465793 62.0736707,27.4522345 62.0615634,27.9605793 C62.0467655,28.5765103 62.0185149,29.1937862 61.9956455,29.8124069 C61.9754665,30.2952 61.9620139,30.7779931 61.9377992,31.262131 C61.9028223,31.9506828 61.8557381,32.6365448 61.8099992,33.3250966 C61.7817486,33.7366138 61.7615697,34.148131 61.7292834,34.5569586 C61.6472223,35.6529931 61.5517086,36.7409586 61.4400518,37.8208552 C61.3714434,38.243131 61.2772749,38.6654069 61.1669634,39.0809586 C61.1319865,39.2167862 61.0849023,39.3499241 61.0445444,39.4830621 C60.9597928,39.7654759 60.8750413,40.0478897 60.771456,40.3249241 C60.7243718,40.4540276 60.669216,40.5804414 60.618096,40.7068552 C60.5131655,40.9717862 60.4001634,41.2313379 60.2790897,41.4882 C60.2104813,41.6307517 60.1418728,41.7706138 60.0692286,41.9104759 C59.9441192,42.1538897 59.8122834,42.3919241 59.672376,42.627269 C59.5943507,42.7604069 59.519016,42.8922 59.4356097,43.0226483 C59.2674518,43.2875793 59.0885318,43.547131 58.905576,43.7999586 C58.8423486,43.8860276 58.7858476,43.9747862 58.7212749,44.0608552 C58.6661192,44.132131 58.6015465,44.1993724 58.5450455,44.2719931 C58.2275634,44.6727517 57.8872118,45.0533379 57.5293718,45.4164414 C57.4204055,45.5280621 57.3100939,45.6383379 57.1970918,45.7459241 C56.7706434,46.1520621 56.3293971,46.5393724 55.8558644,46.8836483 C48.9600455,51.4762345 41.7561613,55.9504759 34.4379297,60.1745793 C27.1210434,64.3986828 19.9211949,68.2368207 13.0307571,71.6002345 C12.7401802,71.7239586 12.4670918,71.8019586 12.1940034,71.8826483 C12.1832413,71.838269 12.1657528,71.8019586 12.156336,71.7562345 C11.1958181,63.9898552 11.1689128,54.4980621 12.0810013,45.6490966 C12.6661907,42.0826138 14.737896,38.711131 17.6638434,36.5876483 C24.5515907,31.9896828 31.7568202,27.5248552 39.0750518,23.3007517 C46.3932834,19.0766483 53.5917865,15.2290966 60.4822244,11.8750966 C60.7741465,11.7500276 61.0512707,11.6639586 61.3283949,11.583269 C61.3378118,11.6289931 61.3566455,11.6679931 61.3660623,11.7150621 C61.4481234,12.3901655 61.5167318,13.0921655 61.5853402,13.7914759 C61.6324244,14.2567862 61.6781634,14.7234414 61.7198665,15.2008552 C61.7629149,15.7266828 61.7992371,16.2659586 61.8355592,16.8038897 C61.8691907,17.2893724 61.9028223,17.7748552 61.9310728,18.2697517 C61.9593234,18.8170966 61.9808476,19.3725103 62.0023718,19.929269 C62.0225507,20.4295448 62.0454202,20.9284759 62.0575276,21.4368207 C62.0723255,22.0016483 62.0790518,22.5745448 62.0857781,23.1460966 C62.0925044,23.6557862 62.1019213,24.1627862 62.1019213,24.6765103 C62.1032665,25.2615103 62.0925044,25.8518897 62.0844328,26.4409241 M72.7160476,9.52837241 L72.682416,9.29975172 C72.1295128,6.44602759 70.8272981,4.48795862 68.9600728,3.49816552 C69.0286813,3.53582069 69.104016,3.56137241 69.1712792,3.60171724 L64.4292265,0.847510345 C62.3777002,-0.345351724 59.595696,-0.300972414 56.3280518,1.1232 C49.2412055,4.5699931 41.8274602,8.5332 34.3114749,12.870269 C26.7981802,17.2086828 19.3857802,21.8026138 12.1644076,26.6332345 C11.5025381,27.1066138 10.8689192,27.6297517 10.2474076,28.1730621 C10.0725234,28.3263724 9.90302021,28.4850621 9.73082653,28.6437517 C9.24653179,29.0915793 8.77568968,29.5568897 8.32099074,30.0437172 C8.19319074,30.1782 8.06135495,30.3086483 7.93624547,30.4471655 C7.43580758,31.0025793 6.95151284,31.5727862 6.49277811,32.1698897 C6.44569389,32.2317517 6.405336,32.2963034 6.35825179,32.3581655 C6.20354653,32.5639241 6.06229389,32.7777517 5.91296968,32.9875448 C5.55243916,33.4905103 5.20132547,34.0015448 4.871736,34.5273724 C4.70492337,34.7923034 4.54752758,35.061269 4.39013179,35.3302345 C4.09820968,35.8305103 3.81974021,36.3361655 3.55741389,36.8512345 C3.414816,37.1309586 3.27356337,37.4079931 3.14038232,37.6917517 C2.87671074,38.2485103 2.63859916,38.8133379 2.41259495,39.3848897 C2.31439074,39.6269586 2.20946021,39.8649931 2.11932758,40.1097517 C2.08973179,40.1904414 2.05206442,40.2684414 2.02381389,40.349131 C1.84489389,40.8494069 1.70767705,41.3604414 1.55969811,41.8674414 C1.47629179,42.1471655 1.37674232,42.4242 1.30275284,42.705269 C1.07674863,43.5726828 0.891102316,44.4468207 0.756576,45.3223034 L0.724289684,45.5885793 C0.601870737,46.7599241 0.496940211,47.9447172 0.405462316,49.1335448 C0.374521263,49.5356483 0.354342316,49.9404414 0.328782316,50.3412 C0.273626526,51.1319586 0.219816,51.9213724 0.178112842,52.7134759 C0.155243368,53.2016483 0.140445474,53.6898207 0.120266526,54.1779931 C0.092016,54.8853724 0.0624202105,55.5927517 0.0449317895,56.2987862 C0.0314791579,56.823269 0.0287886316,57.3437172 0.0207170526,57.8655103 C0.0113002105,58.5325448 0.000538105263,59.1995793 0.000538105263,59.8625793 C0.000538105263,60.4032 0.00995494737,60.9344069 0.0166812632,61.4723379 C0.0247528421,62.1070966 0.0314791579,62.7445448 0.0476223158,63.375269 C0.0624202105,63.9172345 0.0866349474,64.4497862 0.108159158,64.9863724 C0.131028632,65.5969241 0.155243368,66.2074759 0.186184421,66.8099586 C0.215780211,67.3438552 0.252102316,67.8656483 0.288424421,68.3914759 C0.328782316,68.9791655 0.369140211,69.5628207 0.417569684,70.1384069 C0.459272842,70.6548207 0.510392842,71.1577862 0.561512842,71.6634414 C0.596489684,72.0184759 0.622049684,72.384269 0.662407579,72.7339241 C0.706801263,73.1414069 0.753885474,73.5435103 0.803660211,73.9429241 L0.839982316,74.1607862 C0.931460211,74.6395448 1.05118863,75.0819931 1.18302442,75.5096483 C1.21396547,75.6078207 1.24490653,75.7046483 1.27719284,75.800131 C1.41575495,76.2103034 1.57180547,76.6003034 1.74668968,76.9607172 C1.76955916,77.0050966 1.79511916,77.0440966 1.81664337,77.087131 C1.98211074,77.4098897 2.16506653,77.711131 2.36147495,77.9922 C2.40990442,78.0594414 2.45429811,78.1293724 2.50272758,78.1939241 C2.72335074,78.4884414 2.96011705,78.7614414 3.21437179,79.0062 C3.22916968,79.0196483 3.24127705,79.037131 3.25607495,79.0519241 C3.28163495,79.076131 3.312576,79.0895793 3.33948126,79.1137862 C3.65292758,79.4002345 3.98520758,79.6584414 4.34842863,79.8695793 L9.08779074,82.6224414 C9.05954021,82.6063034 9.03532547,82.5794069 9.00572968,82.5605793 C11.0666728,83.8072345 13.8796181,83.7857172 17.2010728,82.3346483 C24.2798476,78.8905448 31.6761044,74.9475103 39.2001613,70.6050621 C46.7161465,66.2666483 54.1272013,61.6633034 61.3660623,56.8340276 C67.2811844,52.5803379 71.6479086,45.4245103 72.7631318,38.1489931 L72.7967634,37.8827172 C73.7936034,28.275269 73.7640076,17.9456483 72.7160476,9.52837241 M26.9079537,35.041769 L26.9617642,54.2822172 L31.7024716,57.0350793 L46.5851179,38.8099759 L41.8457558,36.055769 L26.9079537,35.041769 Z"/>
        <path fill="url(#started-f)" d="M66.1806246,40.5760034 C65.604852,44.1290379 63.5237299,47.5032103 60.5977825,49.6374517 C53.7019636,54.2300379 46.4967341,58.7042793 39.1785025,62.9283828 C31.8602709,67.1524862 24.6631131,70.9906241 17.7726752,74.3540379 C14.842692,75.6020379 12.7481173,74.6351069 12.1562015,71.7571759 C11.1956836,63.9894517 11.1687783,54.4990034 12.0808667,45.6486931 C12.6660562,42.0822103 14.7377615,38.7107276 17.6650541,36.5872448 C24.5514562,31.9892793 31.7566857,27.5244517 39.0762625,23.3003483 C46.3931488,19.0775897 53.591652,15.2286931 60.4820899,11.8746931 C63.4187994,10.6240034 65.5133741,11.5895897 66.1052899,14.4688655 C67.0658078,22.225831 67.0940583,31.7270379 66.1806246,40.5760034 M72.7159131,9.52796897 L72.6822815,9.29934828 C71.5293909,3.3431069 67.1357615,1.23441724 61.0686246,3.87700345 C53.9817783,7.32514138 46.5693783,11.2870034 39.0533931,15.6240724 C31.5374078,19.9624862 24.1250078,24.5564172 16.9049804,29.3870379 C10.9804415,33.6366931 6.61371726,40.8019345 5.49849411,48.0761069 L5.46486253,48.3423828 C4.46667726,57.9404172 4.49627305,68.2807966 5.54423305,76.6967276 L5.58055516,76.9145897 C6.73210042,82.8923483 11.1257299,84.9889345 17.2009383,82.3342448 C24.2810583,78.8901414 31.6773152,74.9484517 39.2000267,70.6046586 C46.716012,66.2675897 54.1270667,61.6642448 61.3659278,56.8336241 C67.2810499,52.5799345 71.6477741,45.4241069 72.7643425,38.1485897 L72.7966288,37.8823138 C73.7934688,28.2762103 73.7638731,17.9452448 72.7159131,9.52796897 M31.7030097,57.0357517 L46.585656,38.8093034 L31.6478539,37.7953034 L31.7030097,57.0357517 Z"/>
      </g>
    </g>
  </g>
</svg>
