<?xml version="1.0" encoding="UTF-8"?>
<svg width="51px" height="40px" viewBox="0 0 51 40" version="1.1" xmlns="http://www.w3.org/2000/svg" xmlns:xlink="http://www.w3.org/1999/xlink">
    <!-- Generator: Sketch 63.1 (92452) - https://sketch.com -->
    <title>cardChip</title>
    <desc>Created with Sketch.</desc>
    <defs>
        <filter x="-4.6%" y="-7.3%" width="109.1%" height="114.6%" filterUnits="objectBoundingBox" id="filter-1">
            <feOffset dx="0" dy="2" in="SourceAlpha" result="shadowOffsetOuter1"></feOffset>
            <feGaussianBlur stdDeviation="2" in="shadowOffsetOuter1" result="shadowBlurOuter1"></feGaussianBlur>
            <feColorMatrix values="0 0 0 0 0   0 0 0 0 0   0 0 0 0 0  0 0 0 0.5 0" type="matrix" in="shadowBlurOuter1" result="shadowMatrixOuter1"></feColorMatrix>
            <feMerge>
                <feMergeNode in="shadowMatrixOuter1"></feMergeNode>
                <feMergeNode in="SourceGraphic"></feMergeNode>
            </feMerge>
        </filter>
        <linearGradient x1="3.82200516%" y1="31.2754499%" x2="97.6416358%" y2="67.3537868%" id="linearGradient-2">
            <stop stop-color="#F4ECFF" offset="0%"></stop>
            <stop stop-color="#EADBFF" offset="100%"></stop>
        </linearGradient>
        <linearGradient x1="103.733585%" y1="67.8211555%" x2="-2.86013563%" y2="33.3488039%" id="linearGradient-3">
            <stop stop-color="#D1B2FF" offset="0%"></stop>
            <stop stop-color="#E1CAFF" offset="100%"></stop>
        </linearGradient>
        <rect id="path-4" x="0" y="0.327272727" width="42.7034483" height="31.4181818" rx="10.8"></rect>
        <linearGradient x1="103.733585%" y1="69.2423902%" x2="-2.86013563%" y2="32.0208733%" id="linearGradient-6">
            <stop stop-color="#D1B2FF" offset="0%"></stop>
            <stop stop-color="#E1CAFF" offset="100%"></stop>
        </linearGradient>
    </defs>
    <g id="Billing" stroke="none" stroke-width="1" fill="none" fill-rule="evenodd">
        <g id="Screens/Billing/Pre-paid-Credit" transform="translate(-228.000000, -237.000000)">
            <g id="Group" filter="url(#filter-1)" transform="translate(208.000000, 168.000000)">
                <g id="cardChip" transform="translate(24.000000, 71.000000)">
                    <mask id="mask-5" fill="white">
                        <use xlink:href="#path-4"></use>
                    </mask>
                    <rect stroke="url(#linearGradient-3)" stroke-width="1.2" x="0.6" y="0.927272727" width="41.5034483" height="30.2181818" rx="10.8"></rect>
                    <path d="M24.6455343,-2.42505006e-13 C24.8093153,-2.42505006e-13 24.9455316,0.115772832 24.9737799,0.268445041 L24.9791549,0.327272727 L24.9791549,4.32468169 C24.9791549,4.40756864 24.947147,4.48653911 24.8909149,4.54641999 L24.8443204,4.58751427 L21.9146134,6.719 L21.9181034,6.74837037 L21.9176134,9.818 L26.6896552,9.81818182 C27.3430811,9.81818182 27.9338282,10.0814354 28.3576944,10.5057232 L34.6320861,4.76165291 C34.6784197,4.71922664 34.7357684,4.69092299 34.7971993,4.6794228 L34.8597342,4.67362307 L41.8238326,4.67362307 C42.0080862,4.67362307 42.1574533,4.82014806 42.1574533,5.00089579 C42.1574533,5.16156045 42.0394348,5.29518491 41.8838013,5.32289572 L41.8238326,5.32816852 L34.9901379,5.328 L28.7905253,11.0059782 L28.7524682,11.0341301 C28.9264232,11.3546931 29.025,11.7205991 29.025,12.1090909 L29.025,12.1090909 L29.025,19.9636364 C29.025,20.3213384 28.9414293,20.6598928 28.7923965,20.9615358 C28.8376595,20.9746754 28.8813355,20.9989723 28.9190274,21.0334856 L28.9190274,21.0334856 L35.1195828,26.7119499 L41.9523347,26.7112953 L42.0123034,26.7165681 C42.1679369,26.7442789 42.2859553,26.8779034 42.2859553,27.038568 C42.2859553,27.2193158 42.1365883,27.3658408 41.9523347,27.3658408 L41.9523347,27.3658408 L34.9882363,27.3658408 L34.9257014,27.360041 C34.8642704,27.3485408 34.8069218,27.3202372 34.7605882,27.2778109 L34.7605882,27.2778109 L28.4637312,21.5119714 L28.437681,21.4828343 C28.0098509,21.9562001 27.38527,22.2545455 26.6896552,22.2545455 L26.6896552,22.2545455 L21.9176134,22.254 L21.9181034,25.3243569 L21.9146134,25.353 L24.8443204,27.485213 L24.8909149,27.5263073 C24.947147,27.5861882 24.9791549,27.6651586 24.9791549,27.7480456 L24.9791549,27.7480456 L24.9791549,31.7454545 L24.9737799,31.8042822 C24.9455316,31.9569544 24.8093153,32.0727273 24.6455343,32.0727273 L24.6455343,32.0727273 L24.5855655,32.0674545 C24.429932,32.0397437 24.3119136,31.9061192 24.3119136,31.7454545 L24.3119136,31.7454545 L24.3116069,27.9130909 L21.3163603,25.7328 L18.3491379,27.9124364 L18.3491379,31.7454545 L18.3437629,31.8042822 C18.3155146,31.9569544 18.1792982,32.0727273 18.0155172,32.0727273 C17.8312636,32.0727273 17.6818966,31.9262023 17.6818966,31.7454545 L17.6818966,31.7454545 L17.6818966,27.7480456 L17.6877209,27.6871392 C17.7030933,27.6075194 17.7482552,27.5355024 17.8155647,27.4860657 L17.8155647,27.4860657 L21.0176134,25.133 L21.0176134,22.254 L16.0137931,22.2545455 C15.3061288,22.2545455 14.6719805,21.9457746 14.2437123,21.4580783 L7.98748871,27.186006 C7.9411551,27.2284323 7.88380645,27.256736 7.82237552,27.2682361 L7.75984059,27.2740359 L0.795742228,27.2740359 C0.611488609,27.2740359 0.462121538,27.1275109 0.462121538,26.9467632 C0.462121538,26.7860985 0.580139964,26.652474 0.735773487,26.6247632 L0.795742228,26.6194904 L7.62888587,26.6199765 L13.8290495,20.9416807 L13.8830736,20.9027942 C13.7516,20.6162004 13.6784483,20.2982986 13.6784483,19.9636364 L13.6784483,19.9636364 L13.6784483,12.1090909 C13.6784483,11.5925422 13.8527227,11.115923 14.1467396,10.7327276 L7.50999462,5.23636364 L0.667234101,5.23636364 L0.60726536,5.23109083 C0.451631837,5.20338002 0.333613411,5.06975556 0.333613411,4.90909091 C0.333613411,4.72834317 0.482980482,4.58181818 0.667234101,4.58181818 L0.667234101,4.58181818 L7.63133246,4.58181818 L7.68971831,4.58686822 C7.74720626,4.5968927 7.80136808,4.62161363 7.84651151,4.65898958 L7.84651151,4.65898958 L14.6222229,10.2691331 C15.0108698,9.98581219 15.4923757,9.81818182 16.0137931,9.81818182 L16.0137931,9.81818182 L21.0176134,9.818 L21.0176134,6.939 L17.8155647,4.58666152 C17.7482552,4.53722485 17.7030933,4.46520782 17.6877209,4.38558803 L17.6818966,4.32468169 L17.6818966,0.327272727 C17.6818966,0.146524991 17.8312636,-2.42505006e-13 18.0155172,-2.42505006e-13 C18.1792982,-2.42505006e-13 18.3155146,0.115772832 18.3437629,0.268445041 L18.3491379,0.327272727 L18.3491379,4.16029091 L21.3163603,6.33992727 L24.3116069,4.15963636 L24.3119136,0.327272727 C24.3119136,0.166608073 24.429932,0.0329836121 24.5855655,0.0052728018 L24.6455343,-2.42505006e-13 Z M26.6896552,10.4727273 L16.0137931,10.4727273 C15.092525,10.4727273 14.3456897,11.2053522 14.3456897,12.1090909 L14.3456897,12.1090909 L14.3456897,19.9636364 C14.3456897,20.867375 15.092525,21.6 16.0137931,21.6 L16.0137931,21.6 L26.6896552,21.6 C27.6109233,21.6 28.3577586,20.867375 28.3577586,19.9636364 L28.3577586,19.9636364 L28.3577586,12.1090909 C28.3577586,11.2053522 27.6109233,10.4727273 26.6896552,10.4727273 L26.6896552,10.4727273 Z" id="Combined-Shape" fill="url(#linearGradient-6)" fill-rule="nonzero" mask="url(#mask-5)"></path>
                </g>
            </g>
        </g>
    </g>
</svg>