<?xml version="1.0" encoding="UTF-8"?>
<svg width="42px" height="42px" viewBox="0 0 42 42" version="1.1" xmlns="http://www.w3.org/2000/svg" xmlns:xlink="http://www.w3.org/1999/xlink">
    <!-- Generator: Sketch 63.1 (92452) - https://sketch.com -->
    <title>cardLogo</title>
    <desc>Created with Sketch.</desc>
    <defs>
        <filter x="-4.6%" y="-7.3%" width="109.1%" height="114.6%" filterUnits="objectBoundingBox" id="filter-1">
            <feOffset dx="0" dy="2" in="SourceAlpha" result="shadowOffsetOuter1"></feOffset>
            <feGaussianBlur stdDeviation="2" in="shadowOffsetOuter1" result="shadowBlurOuter1"></feGaussianBlur>
            <feColorMatrix values="0 0 0 0 0   0 0 0 0 0   0 0 0 0 0  0 0 0 0.5 0" type="matrix" in="shadowBlurOuter1" result="shadowMatrixOuter1"></feColorMatrix>
            <feMerge>
                <feMergeNode in="shadowMatrixOuter1"></feMergeNode>
                <feMergeNode in="SourceGraphic"></feMergeNode>
            </feMerge>
        </filter>
        <linearGradient x1="167.622114%" y1="91.2884735%" x2="-2.86013563%" y2="19.2383781%" id="linearGradient-2">
            <stop stop-color="#D1B2FF" offset="0%"></stop>
            <stop stop-color="#E1CAFF" offset="100%"></stop>
        </linearGradient>
    </defs>
    <g id="Billing" stroke="none" stroke-width="1" fill="none" fill-rule="evenodd">
        <g id="Screens/Billing/Pre-paid-Credit" transform="translate(-409.000000, -272.000000)" fill="url(#linearGradient-2)">
            <g id="Group" filter="url(#filter-1)" transform="translate(208.000000, 168.000000)">
                <g id="cardLogo" transform="translate(205.000000, 106.000000)">
                    <g id="Symmetrical-Logo">
                        <path d="M17,0 C26.3888407,0 34,7.61115925 34,17 C34,26.3888407 26.3888407,34 17,34 C7.61115925,34 0,26.3888407 0,17 C0,7.61115925 7.61115925,0 17,0 Z M17,1.47826087 C8.42758019,1.47826087 1.47826087,8.42758019 1.47826087,17 C1.47826087,25.5724198 8.42758019,32.5217391 17,32.5217391 C25.5724198,32.5217391 32.5217391,25.5724198 32.5217391,17 C32.5217391,8.42758019 25.5724198,1.47826087 17,1.47826087 Z M29.6459031,10.7358696 C30.6135197,12.6687481 31.1243364,14.8058684 31.1243364,17.0144649 C31.1243364,24.7704638 24.8368571,31.0579432 17.0808582,31.0579432 C16.4097113,31.0579432 15.7443353,31.0108107 15.0881696,30.9175591 L14.5978261,30.838989 L14.8575519,29.3837235 C15.5861014,29.51375 16.3291067,29.5796823 17.0808582,29.5796823 C24.0204361,29.5796823 29.6460756,23.9540429 29.6460756,17.0144649 C29.6460756,15.1781638 29.2522886,13.3995002 28.5031878,11.7707694 L28.3240286,11.397612 L29.6459031,10.7358696 Z M21.3462141,6.79754533 C25.4002789,8.52662857 28.0869565,12.5160757 28.0869565,17 C28.0869565,22.2950824 24.3493748,26.8106707 19.2442161,27.8595757 L18.9592043,27.9142646 L18.699599,26.4589776 C23.2478896,25.6476187 26.6086957,21.6738039 26.6086957,17 C26.6086957,13.2132337 24.3980869,9.83360455 21.0342175,8.27641982 L20.7662721,8.15729622 L21.3462141,6.79754533 Z M17,5.91304348 L17,7.39130435 C11.6932639,7.39130435 7.39130435,11.6932639 7.39130435,17 C7.39130435,20.1955063 8.96265587,23.1217397 11.531538,24.9020132 L11.7917301,25.0761882 L10.9893055,26.3177074 C7.84967995,24.2884896 5.91304348,20.8090516 5.91304348,17 C5.91304348,10.876843 10.876843,5.91304348 17,5.91304348 Z M17,8.86956522 L17,10.3478261 C13.3261058,10.3478261 10.3478261,13.3261058 10.3478261,17 C10.3478261,20.6738942 13.3261058,23.6521739 17,23.6521739 C20.6738942,23.6521739 23.6521739,20.6738942 23.6521739,17 L23.6521739,17 L25.1304348,17 C25.1304348,21.4903151 21.4903151,25.1304348 17,25.1304348 C12.5096849,25.1304348 8.86956522,21.4903151 8.86956522,17 C8.86956522,12.5096849 12.5096849,8.86956522 17,8.86956522 L17,8.86956522 Z M15.7123099,12.6571626 L15.7321252,12.6655632 C15.890024,12.733313 16.9840915,13.2173711 18.7449465,14.3531713 C20.6525394,15.5836215 21.5377062,16.4364404 21.5377062,16.4364404 C21.8866031,16.7367197 21.8929865,17.2420328 21.5575536,17.558209 L21.5142173,17.6016806 C21.303296,17.8102999 20.3293903,18.7408677 18.7449465,19.762878 C16.9444422,20.9242534 15.7294401,21.3563875 15.7294401,21.3563875 C15.1908584,21.5892747 14.6912123,21.2847753 14.6185759,20.6880931 C14.6185759,20.6880931 14.4285496,19.5856719 14.4139322,17.2794991 L14.4130435,16.9969739 C14.4130435,14.4982334 14.6195414,13.2829094 14.6195414,13.2829094 C14.6868966,12.6863629 15.1808937,12.4063145 15.7123099,12.6571626 Z M17,2.95652174 L17,4.43478261 C11.9573009,4.43478261 7.47072624,7.432735 5.48728461,11.9574313 L5.36410017,12.248301 L3.99576729,11.6889081 C6.13702294,6.45117463 11.2444709,2.95652174 17,2.95652174 Z" id="Combined-Shape"></path>
                    </g>
                </g>
            </g>
        </g>
    </g>
</svg>